<ttFont>
    <TTGlyph name="A" xMin="-32" yMin="0" xMax="577" yMax="690">
      <contour>
        <pt x="442" y="208" on="1"/>
        <pt x="166" y="208" on="1"/>
        <pt x="74" y="0" on="1"/>
        <pt x="-32" y="0" on="1"/>
        <pt x="278" y="665" on="1"/>
        <pt x="288" y="690" on="0"/>
        <pt x="317" y="690" on="1"/>
        <pt x="419" y="690" on="1"/>
        <pt x="432" y="690" on="0"/>
        <pt x="451" y="673" on="0"/>
        <pt x="452" y="661" on="1"/>
        <pt x="577" y="0" on="1"/>
        <pt x="477" y="0" on="1"/>
      </contour>
      <contour>
        <pt x="428" y="296" on="1"/>
        <pt x="385" y="555" on="1"/>
        <pt x="381" y="575" on="0"/>
        <pt x="377" y="615" on="1"/>
        <pt x="347" y="615" on="1"/>
        <pt x="321" y="555" on="1"/>
        <pt x="205" y="296" on="1"/>
      </contour>
    </TTGlyph>
    <TTGlyph name="AE" xMin="-45" yMin="-2" xMax="919" yMax="691">
      <contour>
        <pt x="905" y="606" on="1"/>
        <pt x="652" y="606" on="1"/>
        <pt x="589" y="606" on="0"/>
        <pt x="579" y="540" on="1"/>
        <pt x="560" y="402" on="1"/>
        <pt x="838" y="402" on="1"/>
        <pt x="828" y="323" on="1"/>
        <pt x="549" y="323" on="1"/>
        <pt x="525" y="147" on="1"/>
        <pt x="520" y="112" on="0"/>
        <pt x="544" y="84" on="0"/>
        <pt x="577" y="84" on="1"/>
        <pt x="833" y="84" on="1"/>
        <pt x="828" y="6" on="1"/>
        <pt x="726" y="-2" on="0"/>
        <pt x="559" y="-2" on="1"/>
        <pt x="491" y="-2" on="0"/>
        <pt x="420" y="75" on="0"/>
        <pt x="430" y="143" on="1"/>
        <pt x="440" y="215" on="1"/>
        <pt x="213" y="215" on="1"/>
        <pt x="62" y="0" on="1"/>
        <pt x="-45" y="0" on="1"/>
        <pt x="368" y="579" on="1"/>
        <pt x="414" y="645" on="0"/>
        <pt x="519" y="691" on="0"/>
        <pt x="617" y="691" on="1"/>
        <pt x="813" y="691" on="0"/>
        <pt x="919" y="684" on="1"/>
      </contour>
      <contour>
        <pt x="452" y="301" on="1"/>
        <pt x="488" y="554" on="1"/>
        <pt x="493" y="601" on="0"/>
        <pt x="526" y="624" on="1"/>
        <pt x="521" y="624" on="1"/>
        <pt x="489" y="605" on="0"/>
        <pt x="457" y="561" on="1"/>
        <pt x="274" y="301" on="1"/>
      </contour>
    </TTGlyph>
    <TTGlyph name="Aacute" xMin="-32" yMin="0" xMax="577" yMax="918">
      <contour>
        <pt x="341" y="726" on="1"/>
        <pt x="313" y="771" on="1"/>
        <pt x="509" y="918" on="1"/>
        <pt x="554" y="843" on="1"/>
      </contour>
      <contour>
        <pt x="442" y="208" on="1"/>
        <pt x="166" y="208" on="1"/>
        <pt x="74" y="0" on="1"/>
        <pt x="-32" y="0" on="1"/>
        <pt x="278" y="665" on="1"/>
        <pt x="288" y="690" on="0"/>
        <pt x="317" y="690" on="1"/>
        <pt x="419" y="690" on="1"/>
        <pt x="432" y="690" on="0"/>
        <pt x="451" y="673" on="0"/>
        <pt x="452" y="661" on="1"/>
        <pt x="577" y="0" on="1"/>
        <pt x="477" y="0" on="1"/>
      </contour>
      <contour>
        <pt x="428" y="296" on="1"/>
        <pt x="385" y="555" on="1"/>
        <pt x="381" y="575" on="0"/>
        <pt x="377" y="615" on="1"/>
        <pt x="347" y="615" on="1"/>
        <pt x="321" y="555" on="1"/>
        <pt x="205" y="296" on="1"/>
      </contour>
    </TTGlyph>
    <TTGlyph name="Abreve" xMin="-32" yMin="0" xMax="577" yMax="888">
      <contour>
        <pt x="501" y="888" on="1"/>
        <pt x="549" y="877" on="1"/>
        <pt x="545" y="817" on="0"/>
        <pt x="455" y="744" on="0"/>
        <pt x="384" y="744" on="1"/>
        <pt x="308" y="744" on="0"/>
        <pt x="231" y="821" on="0"/>
        <pt x="244" y="880" on="1"/>
        <pt x="294" y="884" on="1"/>
        <pt x="289" y="851" on="0"/>
        <pt x="336" y="815" on="0"/>
        <pt x="383" y="815" on="1"/>
        <pt x="434" y="815" on="0"/>
        <pt x="497" y="854" on="0"/>
      </contour>
      <contour>
        <pt x="442" y="208" on="1"/>
        <pt x="166" y="208" on="1"/>
        <pt x="74" y="0" on="1"/>
        <pt x="-32" y="0" on="1"/>
        <pt x="278" y="665" on="1"/>
        <pt x="288" y="690" on="0"/>
        <pt x="317" y="690" on="1"/>
        <pt x="419" y="690" on="1"/>
        <pt x="432" y="690" on="0"/>
        <pt x="451" y="673" on="0"/>
        <pt x="452" y="661" on="1"/>
        <pt x="577" y="0" on="1"/>
        <pt x="477" y="0" on="1"/>
      </contour>
      <contour>
        <pt x="428" y="296" on="1"/>
        <pt x="385" y="555" on="1"/>
        <pt x="381" y="575" on="0"/>
        <pt x="377" y="615" on="1"/>
        <pt x="347" y="615" on="1"/>
        <pt x="321" y="555" on="1"/>
        <pt x="205" y="296" on="1"/>
      </contour>
    </TTGlyph>
    <TTGlyph name="Acircumflex" xMin="-32" yMin="0" xMax="577" yMax="899">
      <contour>
        <pt x="243" y="728" on="1"/>
        <pt x="216" y="770" on="1"/>
        <pt x="364" y="899" on="1"/>
        <pt x="432" y="899" on="1"/>
        <pt x="557" y="764" on="1"/>
        <pt x="521" y="726" on="1"/>
        <pt x="401" y="827" on="1"/>
        <pt x="393" y="827" on="1"/>
      </contour>
      <contour>
        <pt x="442" y="208" on="1"/>
        <pt x="166" y="208" on="1"/>
        <pt x="74" y="0" on="1"/>
        <pt x="-32" y="0" on="1"/>
        <pt x="278" y="665" on="1"/>
        <pt x="288" y="690" on="0"/>
        <pt x="317" y="690" on="1"/>
        <pt x="419" y="690" on="1"/>
        <pt x="432" y="690" on="0"/>
        <pt x="451" y="673" on="0"/>
        <pt x="452" y="661" on="1"/>
        <pt x="577" y="0" on="1"/>
        <pt x="477" y="0" on="1"/>
      </contour>
      <contour>
        <pt x="428" y="296" on="1"/>
        <pt x="385" y="555" on="1"/>
        <pt x="381" y="575" on="0"/>
        <pt x="377" y="615" on="1"/>
        <pt x="347" y="615" on="1"/>
        <pt x="321" y="555" on="1"/>
        <pt x="205" y="296" on="1"/>
      </contour>
    </TTGlyph>
    <TTGlyph name="Adieresis" xMin="-32" yMin="0" xMax="577" yMax="873">
      <contour>
        <pt x="315" y="765" on="1"/>
        <pt x="282" y="765" on="1"/>
        <pt x="257" y="765" on="0"/>
        <pt x="258" y="790" on="1"/>
        <pt x="267" y="846" on="1"/>
        <pt x="272" y="873" on="0"/>
        <pt x="298" y="873" on="1"/>
        <pt x="327" y="873" on="1"/>
        <pt x="356" y="873" on="0"/>
        <pt x="352" y="846" on="1"/>
        <pt x="343" y="791" on="1"/>
        <pt x="340" y="765" on="0"/>
      </contour>
      <contour>
        <pt x="482" y="765" on="1"/>
        <pt x="450" y="765" on="1"/>
        <pt x="423" y="765" on="0"/>
        <pt x="426" y="790" on="1"/>
        <pt x="435" y="846" on="1"/>
        <pt x="438" y="873" on="0"/>
        <pt x="466" y="873" on="1"/>
        <pt x="495" y="873" on="1"/>
        <pt x="523" y="873" on="0"/>
        <pt x="520" y="846" on="1"/>
        <pt x="511" y="791" on="1"/>
        <pt x="508" y="765" on="0"/>
      </contour>
      <contour>
        <pt x="442" y="208" on="1"/>
        <pt x="166" y="208" on="1"/>
        <pt x="74" y="0" on="1"/>
        <pt x="-32" y="0" on="1"/>
        <pt x="278" y="665" on="1"/>
        <pt x="288" y="690" on="0"/>
        <pt x="317" y="690" on="1"/>
        <pt x="419" y="690" on="1"/>
        <pt x="432" y="690" on="0"/>
        <pt x="451" y="673" on="0"/>
        <pt x="452" y="661" on="1"/>
        <pt x="577" y="0" on="1"/>
        <pt x="477" y="0" on="1"/>
      </contour>
      <contour>
        <pt x="428" y="296" on="1"/>
        <pt x="385" y="555" on="1"/>
        <pt x="381" y="575" on="0"/>
        <pt x="377" y="615" on="1"/>
        <pt x="347" y="615" on="1"/>
        <pt x="321" y="555" on="1"/>
        <pt x="205" y="296" on="1"/>
      </contour>
    </TTGlyph>
    <TTGlyph name="Agrave" xMin="-32" yMin="0" xMax="577" yMax="917">
      <contour>
        <pt x="398" y="726" on="1"/>
        <pt x="203" y="848" on="1"/>
        <pt x="255" y="917" on="1"/>
        <pt x="432" y="770" on="1"/>
      </contour>
      <contour>
        <pt x="442" y="208" on="1"/>
        <pt x="166" y="208" on="1"/>
        <pt x="74" y="0" on="1"/>
        <pt x="-32" y="0" on="1"/>
        <pt x="278" y="665" on="1"/>
        <pt x="288" y="690" on="0"/>
        <pt x="317" y="690" on="1"/>
        <pt x="419" y="690" on="1"/>
        <pt x="432" y="690" on="0"/>
        <pt x="451" y="673" on="0"/>
        <pt x="452" y="661" on="1"/>
        <pt x="577" y="0" on="1"/>
        <pt x="477" y="0" on="1"/>
      </contour>
      <contour>
        <pt x="428" y="296" on="1"/>
        <pt x="385" y="555" on="1"/>
        <pt x="381" y="575" on="0"/>
        <pt x="377" y="615" on="1"/>
        <pt x="347" y="615" on="1"/>
        <pt x="321" y="555" on="1"/>
        <pt x="205" y="296" on="1"/>
      </contour>
    </TTGlyph>
    <TTGlyph name="Amacron" xMin="-32" yMin="0" xMax="577" yMax="853">
      <contour>
        <pt x="525" y="782" on="1"/>
        <pt x="242" y="782" on="1"/>
        <pt x="252" y="853" on="1"/>
        <pt x="535" y="853" on="1"/>
      </contour>
      <contour>
        <pt x="442" y="208" on="1"/>
        <pt x="166" y="208" on="1"/>
        <pt x="74" y="0" on="1"/>
        <pt x="-32" y="0" on="1"/>
        <pt x="278" y="665" on="1"/>
        <pt x="288" y="690" on="0"/>
        <pt x="317" y="690" on="1"/>
        <pt x="419" y="690" on="1"/>
        <pt x="432" y="690" on="0"/>
        <pt x="451" y="673" on="0"/>
        <pt x="452" y="661" on="1"/>
        <pt x="577" y="0" on="1"/>
        <pt x="477" y="0" on="1"/>
      </contour>
      <contour>
        <pt x="428" y="296" on="1"/>
        <pt x="385" y="555" on="1"/>
        <pt x="381" y="575" on="0"/>
        <pt x="377" y="615" on="1"/>
        <pt x="347" y="615" on="1"/>
        <pt x="321" y="555" on="1"/>
        <pt x="205" y="296" on="1"/>
      </contour>
    </TTGlyph>
    <TTGlyph name="Aogonek" xMin="-32" yMin="-213" xMax="577" yMax="690">
      <contour>
        <pt x="452" y="661" on="1"/>
        <pt x="577" y="0" on="1"/>
        <pt x="529" y="-51" on="0"/>
        <pt x="492" y="-115" on="1"/>
        <pt x="464" y="-161" on="0"/>
        <pt x="508" y="-161" on="1"/>
        <pt x="526" y="-161" on="0"/>
        <pt x="556" y="-152" on="1"/>
        <pt x="568" y="-194" on="1"/>
        <pt x="528" y="-209" on="0"/>
        <pt x="465" y="-216" on="0"/>
        <pt x="428" y="-201" on="0"/>
        <pt x="408" y="-173" on="0"/>
        <pt x="410" y="-134" on="0"/>
        <pt x="421" y="-112" on="1"/>
        <pt x="451" y="-56" on="0"/>
        <pt x="528" y="0" on="1"/>
        <pt x="477" y="0" on="1"/>
        <pt x="442" y="208" on="1"/>
        <pt x="166" y="208" on="1"/>
        <pt x="74" y="0" on="1"/>
        <pt x="-32" y="0" on="1"/>
        <pt x="278" y="665" on="1"/>
        <pt x="288" y="690" on="0"/>
        <pt x="317" y="690" on="1"/>
        <pt x="419" y="690" on="1"/>
        <pt x="432" y="690" on="0"/>
        <pt x="451" y="673" on="0"/>
      </contour>
      <contour>
        <pt x="428" y="296" on="1"/>
        <pt x="385" y="555" on="1"/>
        <pt x="381" y="575" on="0"/>
        <pt x="377" y="615" on="1"/>
        <pt x="347" y="615" on="1"/>
        <pt x="321" y="555" on="1"/>
        <pt x="205" y="296" on="1"/>
      </contour>
    </TTGlyph>
    <TTGlyph name="Aring" xMin="-32" yMin="0" xMax="577" yMax="927">
      <contour>
        <pt x="384" y="714" on="1"/>
        <pt x="334" y="714" on="0"/>
        <pt x="277" y="776" on="0"/>
        <pt x="282" y="824" on="1"/>
        <pt x="287" y="868" on="0"/>
        <pt x="347" y="927" on="0"/>
        <pt x="394" y="927" on="1"/>
        <pt x="444" y="927" on="0"/>
        <pt x="504" y="865" on="0"/>
        <pt x="498" y="816" on="1"/>
        <pt x="492" y="773" on="0"/>
        <pt x="432" y="714" on="0"/>
      </contour>
      <contour>
        <pt x="334" y="821" on="1"/>
        <pt x="331" y="793" on="0"/>
        <pt x="361" y="762" on="0"/>
        <pt x="385" y="762" on="1"/>
        <pt x="410" y="762" on="0"/>
        <pt x="443" y="796" on="0"/>
        <pt x="446" y="822" on="1"/>
        <pt x="448" y="847" on="0"/>
        <pt x="420" y="879" on="0"/>
        <pt x="370" y="879" on="0"/>
        <pt x="336" y="846" on="0"/>
      </contour>
      <contour>
        <pt x="442" y="208" on="1"/>
        <pt x="166" y="208" on="1"/>
        <pt x="74" y="0" on="1"/>
        <pt x="-32" y="0" on="1"/>
        <pt x="278" y="665" on="1"/>
        <pt x="288" y="690" on="0"/>
        <pt x="317" y="690" on="1"/>
        <pt x="419" y="690" on="1"/>
        <pt x="432" y="690" on="0"/>
        <pt x="451" y="673" on="0"/>
        <pt x="452" y="661" on="1"/>
        <pt x="577" y="0" on="1"/>
        <pt x="477" y="0" on="1"/>
      </contour>
      <contour>
        <pt x="428" y="296" on="1"/>
        <pt x="385" y="555" on="1"/>
        <pt x="381" y="575" on="0"/>
        <pt x="377" y="615" on="1"/>
        <pt x="347" y="615" on="1"/>
        <pt x="321" y="555" on="1"/>
        <pt x="205" y="296" on="1"/>
      </contour>
    </TTGlyph>
    <TTGlyph name="Atilde" xMin="-32" yMin="0" xMax="577" yMax="883">
      <contour>
        <pt x="513" y="879" on="1"/>
        <pt x="557" y="876" on="1"/>
        <pt x="556" y="818" on="0"/>
        <pt x="507" y="757" on="0"/>
        <pt x="429" y="763" on="0"/>
        <pt x="341" y="813" on="0"/>
        <pt x="323" y="815" on="1"/>
        <pt x="295" y="818" on="0"/>
        <pt x="269" y="791" on="0"/>
        <pt x="265" y="761" on="1"/>
        <pt x="221" y="765" on="1"/>
        <pt x="222" y="825" on="0"/>
        <pt x="274" y="886" on="0"/>
        <pt x="311" y="883" on="1"/>
        <pt x="345" y="880" on="0"/>
        <pt x="430" y="832" on="0"/>
        <pt x="454" y="829" on="1"/>
        <pt x="482" y="826" on="0"/>
        <pt x="509" y="851" on="0"/>
      </contour>
      <contour>
        <pt x="442" y="208" on="1"/>
        <pt x="166" y="208" on="1"/>
        <pt x="74" y="0" on="1"/>
        <pt x="-32" y="0" on="1"/>
        <pt x="278" y="665" on="1"/>
        <pt x="288" y="690" on="0"/>
        <pt x="317" y="690" on="1"/>
        <pt x="419" y="690" on="1"/>
        <pt x="432" y="690" on="0"/>
        <pt x="451" y="673" on="0"/>
        <pt x="452" y="661" on="1"/>
        <pt x="577" y="0" on="1"/>
        <pt x="477" y="0" on="1"/>
      </contour>
      <contour>
        <pt x="428" y="296" on="1"/>
        <pt x="385" y="555" on="1"/>
        <pt x="381" y="575" on="0"/>
        <pt x="377" y="615" on="1"/>
        <pt x="347" y="615" on="1"/>
        <pt x="321" y="555" on="1"/>
        <pt x="205" y="296" on="1"/>
      </contour>
    </TTGlyph>
    <TTGlyph name="B" xMin="42" yMin="-8" xMax="575" yMax="698">
      <contour>
        <pt x="42" y="0" on="1"/>
        <pt x="139" y="690" on="1"/>
        <pt x="220" y="698" on="0"/>
        <pt x="365" y="698" on="1"/>
        <pt x="492" y="698" on="0"/>
        <pt x="590" y="618" on="0"/>
        <pt x="575" y="514" on="1"/>
        <pt x="564" y="439" on="0"/>
        <pt x="500" y="365" on="0"/>
        <pt x="437" y="359" on="1"/>
        <pt x="436" y="354" on="1"/>
        <pt x="574" y="343" on="0"/>
        <pt x="548" y="168" on="1"/>
        <pt x="532" y="64" on="0"/>
        <pt x="428" y="-8" on="0"/>
        <pt x="308" y="-8" on="1"/>
        <pt x="133" y="-8" on="0"/>
      </contour>
      <contour>
        <pt x="196" y="396" on="1"/>
        <pt x="334" y="396" on="1"/>
        <pt x="406" y="396" on="0"/>
        <pt x="469" y="444" on="0"/>
        <pt x="479" y="510" on="1"/>
        <pt x="488" y="573" on="0"/>
        <pt x="438" y="613" on="0"/>
        <pt x="360" y="613" on="1"/>
        <pt x="226" y="613" on="1"/>
      </contour>
      <contour>
        <pt x="151" y="78" on="1"/>
        <pt x="293" y="77" on="1"/>
        <pt x="375" y="77" on="0"/>
        <pt x="441" y="124" on="0"/>
        <pt x="451" y="193" on="1"/>
        <pt x="461" y="267" on="0"/>
        <pt x="410" y="318" on="0"/>
        <pt x="329" y="319" on="1"/>
        <pt x="185" y="319" on="1"/>
      </contour>
    </TTGlyph>
    <TTGlyph name="C" xMin="66" yMin="-12" xMax="574" yMax="702">
      <contour>
        <pt x="494" y="88" on="1"/>
        <pt x="499" y="11" on="1"/>
        <pt x="416" y="-12" on="0"/>
        <pt x="293" y="-12" on="1"/>
        <pt x="144" y="-12" on="0"/>
        <pt x="38" y="159" on="0"/>
        <pt x="66" y="349" on="1"/>
        <pt x="93" y="545" on="0"/>
        <pt x="233" y="702" on="0"/>
        <pt x="383" y="702" on="1"/>
        <pt x="490" y="702" on="0"/>
        <pt x="574" y="681" on="1"/>
        <pt x="558" y="605" on="1"/>
        <pt x="479" y="613" on="0"/>
        <pt x="381" y="613" on="1"/>
        <pt x="314" y="613" on="0"/>
        <pt x="237" y="569" on="0"/>
        <pt x="185" y="451" on="0"/>
        <pt x="170" y="341" on="1"/>
        <pt x="148" y="191" on="0"/>
        <pt x="202" y="78" on="0"/>
        <pt x="295" y="77" on="1"/>
        <pt x="407" y="76" on="0"/>
      </contour>
    </TTGlyph>
    <TTGlyph name="Cacute" xMin="66" yMin="-12" xMax="574" yMax="918">
      <contour>
        <pt x="559" y="843" on="1"/>
        <pt x="346" y="726" on="1"/>
        <pt x="317" y="771" on="1"/>
        <pt x="513" y="918" on="1"/>
      </contour>
      <contour>
        <pt x="494" y="88" on="1"/>
        <pt x="499" y="11" on="1"/>
        <pt x="416" y="-12" on="0"/>
        <pt x="293" y="-12" on="1"/>
        <pt x="144" y="-12" on="0"/>
        <pt x="38" y="159" on="0"/>
        <pt x="66" y="349" on="1"/>
        <pt x="93" y="545" on="0"/>
        <pt x="233" y="702" on="0"/>
        <pt x="383" y="702" on="1"/>
        <pt x="490" y="702" on="0"/>
        <pt x="574" y="681" on="1"/>
        <pt x="558" y="605" on="1"/>
        <pt x="479" y="613" on="0"/>
        <pt x="381" y="613" on="1"/>
        <pt x="314" y="613" on="0"/>
        <pt x="237" y="569" on="0"/>
        <pt x="185" y="451" on="0"/>
        <pt x="170" y="341" on="1"/>
        <pt x="148" y="191" on="0"/>
        <pt x="202" y="78" on="0"/>
        <pt x="295" y="77" on="1"/>
        <pt x="407" y="76" on="0"/>
      </contour>
    </TTGlyph>
    <TTGlyph name="Ccaron" xMin="66" yMin="-12" xMax="574" yMax="913">
      <contour>
        <pt x="569" y="871" on="1"/>
        <pt x="420" y="742" on="1"/>
        <pt x="350" y="742" on="1"/>
        <pt x="233" y="878" on="1"/>
        <pt x="272" y="913" on="1"/>
        <pt x="385" y="814" on="1"/>
        <pt x="393" y="814" on="1"/>
        <pt x="540" y="913" on="1"/>
      </contour>
      <contour>
        <pt x="494" y="88" on="1"/>
        <pt x="499" y="11" on="1"/>
        <pt x="416" y="-12" on="0"/>
        <pt x="293" y="-12" on="1"/>
        <pt x="144" y="-12" on="0"/>
        <pt x="38" y="159" on="0"/>
        <pt x="66" y="349" on="1"/>
        <pt x="93" y="545" on="0"/>
        <pt x="233" y="702" on="0"/>
        <pt x="383" y="702" on="1"/>
        <pt x="490" y="702" on="0"/>
        <pt x="574" y="681" on="1"/>
        <pt x="558" y="605" on="1"/>
        <pt x="479" y="613" on="0"/>
        <pt x="381" y="613" on="1"/>
        <pt x="314" y="613" on="0"/>
        <pt x="237" y="569" on="0"/>
        <pt x="185" y="451" on="0"/>
        <pt x="170" y="341" on="1"/>
        <pt x="148" y="191" on="0"/>
        <pt x="202" y="78" on="0"/>
        <pt x="295" y="77" on="1"/>
        <pt x="407" y="76" on="0"/>
      </contour>
    </TTGlyph>
    <TTGlyph name="Ccedilla" xMin="66" yMin="-243" xMax="574" yMax="702">
      <contour>
        <pt x="494" y="88" on="1"/>
        <pt x="499" y="11" on="1"/>
        <pt x="416" y="-12" on="0"/>
        <pt x="293" y="-12" on="1"/>
        <pt x="144" y="-12" on="0"/>
        <pt x="38" y="159" on="0"/>
        <pt x="66" y="349" on="1"/>
        <pt x="93" y="545" on="0"/>
        <pt x="233" y="702" on="0"/>
        <pt x="383" y="702" on="1"/>
        <pt x="490" y="702" on="0"/>
        <pt x="574" y="681" on="1"/>
        <pt x="558" y="605" on="1"/>
        <pt x="479" y="613" on="0"/>
        <pt x="381" y="613" on="1"/>
        <pt x="314" y="613" on="0"/>
        <pt x="237" y="569" on="0"/>
        <pt x="185" y="451" on="0"/>
        <pt x="170" y="341" on="1"/>
        <pt x="148" y="191" on="0"/>
        <pt x="202" y="78" on="0"/>
        <pt x="295" y="77" on="1"/>
        <pt x="407" y="76" on="0"/>
      </contour>
      <contour>
        <pt x="212" y="-99" on="1"/>
        <pt x="224" y="-54" on="1"/>
        <pt x="290" y="-48" on="0"/>
        <pt x="343" y="-76" on="0"/>
        <pt x="335" y="-123" on="1"/>
        <pt x="325" y="-187" on="0"/>
        <pt x="220" y="-253" on="0"/>
        <pt x="147" y="-243" on="1"/>
        <pt x="165" y="-192" on="1"/>
        <pt x="203" y="-193" on="0"/>
        <pt x="260" y="-155" on="0"/>
        <pt x="266" y="-123" on="1"/>
        <pt x="268" y="-109" on="0"/>
        <pt x="249" y="-100" on="0"/>
      </contour>
    </TTGlyph>
    <TTGlyph name="Cdotaccent" xMin="66" yMin="-12" xMax="574" yMax="869">
      <contour>
        <pt x="382" y="869" on="1"/>
        <pt x="413" y="869" on="1"/>
        <pt x="427" y="869" on="0"/>
        <pt x="442" y="852" on="0"/>
        <pt x="440" y="838" on="1"/>
        <pt x="432" y="783" on="1"/>
        <pt x="429" y="756" on="0"/>
        <pt x="403" y="756" on="1"/>
        <pt x="372" y="756" on="1"/>
        <pt x="342" y="756" on="0"/>
        <pt x="345" y="786" on="1"/>
        <pt x="352" y="842" on="1"/>
        <pt x="356" y="869" on="0"/>
      </contour>
      <contour>
        <pt x="494" y="88" on="1"/>
        <pt x="499" y="11" on="1"/>
        <pt x="416" y="-12" on="0"/>
        <pt x="293" y="-12" on="1"/>
        <pt x="144" y="-12" on="0"/>
        <pt x="38" y="159" on="0"/>
        <pt x="66" y="349" on="1"/>
        <pt x="93" y="545" on="0"/>
        <pt x="233" y="702" on="0"/>
        <pt x="383" y="702" on="1"/>
        <pt x="490" y="702" on="0"/>
        <pt x="574" y="681" on="1"/>
        <pt x="558" y="605" on="1"/>
        <pt x="479" y="613" on="0"/>
        <pt x="381" y="613" on="1"/>
        <pt x="314" y="613" on="0"/>
        <pt x="237" y="569" on="0"/>
        <pt x="185" y="451" on="0"/>
        <pt x="170" y="341" on="1"/>
        <pt x="148" y="191" on="0"/>
        <pt x="202" y="78" on="0"/>
        <pt x="295" y="77" on="1"/>
        <pt x="407" y="76" on="0"/>
      </contour>
    </TTGlyph>
    <TTGlyph name="D" xMin="42" yMin="-9" xMax="612" yMax="699">
      <contour>
        <pt x="42" y="0" on="1"/>
        <pt x="139" y="690" on="1"/>
        <pt x="261" y="699" on="0"/>
        <pt x="364" y="699" on="1"/>
        <pt x="528" y="699" on="0"/>
        <pt x="640" y="541" on="0"/>
        <pt x="612" y="341" on="1"/>
        <pt x="601" y="264" on="0"/>
        <pt x="572" y="154" on="0"/>
        <pt x="529" y="76" on="0"/>
        <pt x="479" y="28" on="0"/>
        <pt x="405" y="0" on="0"/>
        <pt x="327" y="-9" on="0"/>
        <pt x="271" y="-9" on="1"/>
        <pt x="175" y="-9" on="0"/>
      </contour>
      <contour>
        <pt x="228" y="611" on="1"/>
        <pt x="153" y="80" on="1"/>
        <pt x="239" y="78" on="0"/>
        <pt x="270" y="78" on="1"/>
        <pt x="351" y="78" on="0"/>
        <pt x="437" y="118" on="0"/>
        <pt x="491" y="232" on="0"/>
        <pt x="508" y="349" on="1"/>
        <pt x="518" y="417" on="0"/>
        <pt x="520" y="506" on="0"/>
        <pt x="505" y="568" on="0"/>
        <pt x="465" y="599" on="0"/>
        <pt x="408" y="612" on="0"/>
        <pt x="362" y="612" on="1"/>
        <pt x="350" y="612" on="0"/>
        <pt x="254" y="611" on="0"/>
      </contour>
    </TTGlyph>
    <TTGlyph name="Dcaron" xMin="42" yMin="-9" xMax="612" yMax="913">
      <contour>
        <pt x="346" y="742" on="1"/>
        <pt x="229" y="878" on="1"/>
        <pt x="268" y="913" on="1"/>
        <pt x="381" y="814" on="1"/>
        <pt x="389" y="814" on="1"/>
        <pt x="535" y="913" on="1"/>
        <pt x="565" y="871" on="1"/>
        <pt x="416" y="742" on="1"/>
      </contour>
      <contour>
        <pt x="42" y="0" on="1"/>
        <pt x="139" y="690" on="1"/>
        <pt x="261" y="699" on="0"/>
        <pt x="364" y="699" on="1"/>
        <pt x="528" y="699" on="0"/>
        <pt x="640" y="541" on="0"/>
        <pt x="612" y="341" on="1"/>
        <pt x="601" y="264" on="0"/>
        <pt x="572" y="154" on="0"/>
        <pt x="529" y="76" on="0"/>
        <pt x="479" y="28" on="0"/>
        <pt x="405" y="0" on="0"/>
        <pt x="327" y="-9" on="0"/>
        <pt x="271" y="-9" on="1"/>
        <pt x="175" y="-9" on="0"/>
      </contour>
      <contour>
        <pt x="228" y="611" on="1"/>
        <pt x="153" y="80" on="1"/>
        <pt x="239" y="78" on="0"/>
        <pt x="270" y="78" on="1"/>
        <pt x="351" y="78" on="0"/>
        <pt x="437" y="118" on="0"/>
        <pt x="491" y="232" on="0"/>
        <pt x="508" y="349" on="1"/>
        <pt x="518" y="417" on="0"/>
        <pt x="520" y="506" on="0"/>
        <pt x="505" y="568" on="0"/>
        <pt x="465" y="599" on="0"/>
        <pt x="408" y="612" on="0"/>
        <pt x="362" y="612" on="1"/>
        <pt x="350" y="612" on="0"/>
        <pt x="254" y="611" on="0"/>
      </contour>
    </TTGlyph>
    <TTGlyph name="Dcroat" xMin="27" yMin="-9" xMax="612" yMax="699">
      <contour>
        <pt x="97" y="393" on="1"/>
        <pt x="139" y="690" on="1"/>
        <pt x="261" y="699" on="0"/>
        <pt x="364" y="699" on="1"/>
        <pt x="528" y="699" on="0"/>
        <pt x="640" y="541" on="0"/>
        <pt x="612" y="341" on="1"/>
        <pt x="601" y="264" on="0"/>
        <pt x="572" y="154" on="0"/>
        <pt x="529" y="76" on="0"/>
        <pt x="479" y="28" on="0"/>
        <pt x="405" y="0" on="0"/>
        <pt x="327" y="-9" on="0"/>
        <pt x="271" y="-9" on="1"/>
        <pt x="175" y="-9" on="0"/>
        <pt x="42" y="0" on="1"/>
        <pt x="90" y="338" on="1"/>
        <pt x="27" y="338" on="1"/>
        <pt x="34" y="393" on="1"/>
      </contour>
      <contour>
        <pt x="189" y="338" on="1"/>
        <pt x="153" y="80" on="1"/>
        <pt x="239" y="78" on="0"/>
        <pt x="270" y="78" on="1"/>
        <pt x="351" y="78" on="0"/>
        <pt x="437" y="118" on="0"/>
        <pt x="491" y="232" on="0"/>
        <pt x="508" y="349" on="1"/>
        <pt x="518" y="417" on="0"/>
        <pt x="520" y="506" on="0"/>
        <pt x="505" y="568" on="0"/>
        <pt x="465" y="599" on="0"/>
        <pt x="408" y="612" on="0"/>
        <pt x="362" y="612" on="1"/>
        <pt x="350" y="612" on="0"/>
        <pt x="254" y="611" on="0"/>
        <pt x="228" y="611" on="1"/>
        <pt x="197" y="393" on="1"/>
        <pt x="346" y="393" on="1"/>
        <pt x="339" y="338" on="1"/>
      </contour>
    </TTGlyph>
    <TTGlyph name="Delta" xMin="-15" yMin="0" xMax="573" yMax="690">
      <contour>
        <pt x="573" y="40" on="1"/>
        <pt x="567" y="0" on="1"/>
        <pt x="-15" y="0" on="1"/>
        <pt x="-10" y="40" on="1"/>
        <pt x="323" y="690" on="1"/>
        <pt x="423" y="690" on="1"/>
      </contour>
      <contour>
        <pt x="465" y="81" on="1"/>
        <pt x="372" y="515" on="1"/>
        <pt x="366" y="546" on="0"/>
        <pt x="361" y="593" on="1"/>
        <pt x="344" y="544" on="0"/>
        <pt x="328" y="513" on="1"/>
        <pt x="115" y="81" on="1"/>
      </contour>
    </TTGlyph>
    <TTGlyph name="E" xMin="56" yMin="-2" xMax="564" yMax="692">
      <contour>
        <pt x="551" y="606" on="1"/>
        <pt x="279" y="606" on="1"/>
        <pt x="247" y="606" on="0"/>
        <pt x="216" y="577" on="0"/>
        <pt x="212" y="541" on="1"/>
        <pt x="193" y="401" on="1"/>
        <pt x="484" y="401" on="1"/>
        <pt x="474" y="324" on="1"/>
        <pt x="182" y="324" on="1"/>
        <pt x="158" y="146" on="1"/>
        <pt x="154" y="112" on="0"/>
        <pt x="177" y="84" on="0"/>
        <pt x="210" y="84" on="1"/>
        <pt x="477" y="84" on="1"/>
        <pt x="475" y="6" on="1"/>
        <pt x="389" y="-2" on="0"/>
        <pt x="198" y="-2" on="1"/>
        <pt x="118" y="-2" on="0"/>
        <pt x="47" y="75" on="0"/>
        <pt x="56" y="143" on="1"/>
        <pt x="115" y="570" on="1"/>
        <pt x="123" y="628" on="0"/>
        <pt x="201" y="692" on="0"/>
        <pt x="267" y="692" on="1"/>
        <pt x="474" y="692" on="0"/>
        <pt x="564" y="684" on="1"/>
      </contour>
    </TTGlyph>
    <TTGlyph name="Eacute" xMin="56" yMin="-2" xMax="564" yMax="938">
      <contour>
        <pt x="337" y="746" on="1"/>
        <pt x="309" y="791" on="1"/>
        <pt x="505" y="938" on="1"/>
        <pt x="550" y="863" on="1"/>
      </contour>
      <contour>
        <pt x="551" y="606" on="1"/>
        <pt x="279" y="606" on="1"/>
        <pt x="247" y="606" on="0"/>
        <pt x="216" y="577" on="0"/>
        <pt x="212" y="541" on="1"/>
        <pt x="193" y="401" on="1"/>
        <pt x="484" y="401" on="1"/>
        <pt x="474" y="324" on="1"/>
        <pt x="182" y="324" on="1"/>
        <pt x="158" y="146" on="1"/>
        <pt x="154" y="112" on="0"/>
        <pt x="177" y="84" on="0"/>
        <pt x="210" y="84" on="1"/>
        <pt x="477" y="84" on="1"/>
        <pt x="475" y="6" on="1"/>
        <pt x="389" y="-2" on="0"/>
        <pt x="198" y="-2" on="1"/>
        <pt x="118" y="-2" on="0"/>
        <pt x="47" y="75" on="0"/>
        <pt x="56" y="143" on="1"/>
        <pt x="115" y="570" on="1"/>
        <pt x="123" y="628" on="0"/>
        <pt x="201" y="692" on="0"/>
        <pt x="267" y="692" on="1"/>
        <pt x="474" y="692" on="0"/>
        <pt x="564" y="684" on="1"/>
      </contour>
    </TTGlyph>
    <TTGlyph name="Ecaron" xMin="56" yMin="-2" xMax="564" yMax="933">
      <contour>
        <pt x="342" y="762" on="1"/>
        <pt x="225" y="897" on="1"/>
        <pt x="264" y="933" on="1"/>
        <pt x="377" y="833" on="1"/>
        <pt x="385" y="833" on="1"/>
        <pt x="531" y="933" on="1"/>
        <pt x="561" y="891" on="1"/>
        <pt x="412" y="762" on="1"/>
      </contour>
      <contour>
        <pt x="551" y="606" on="1"/>
        <pt x="279" y="606" on="1"/>
        <pt x="247" y="606" on="0"/>
        <pt x="216" y="577" on="0"/>
        <pt x="212" y="541" on="1"/>
        <pt x="193" y="401" on="1"/>
        <pt x="484" y="401" on="1"/>
        <pt x="474" y="324" on="1"/>
        <pt x="182" y="324" on="1"/>
        <pt x="158" y="146" on="1"/>
        <pt x="154" y="112" on="0"/>
        <pt x="177" y="84" on="0"/>
        <pt x="210" y="84" on="1"/>
        <pt x="477" y="84" on="1"/>
        <pt x="475" y="6" on="1"/>
        <pt x="389" y="-2" on="0"/>
        <pt x="198" y="-2" on="1"/>
        <pt x="118" y="-2" on="0"/>
        <pt x="47" y="75" on="0"/>
        <pt x="56" y="143" on="1"/>
        <pt x="115" y="570" on="1"/>
        <pt x="123" y="628" on="0"/>
        <pt x="201" y="692" on="0"/>
        <pt x="267" y="692" on="1"/>
        <pt x="474" y="692" on="0"/>
        <pt x="564" y="684" on="1"/>
      </contour>
    </TTGlyph>
    <TTGlyph name="Ecircumflex" xMin="56" yMin="-2" xMax="564" yMax="919">
      <contour>
        <pt x="239" y="748" on="1"/>
        <pt x="212" y="790" on="1"/>
        <pt x="359" y="919" on="1"/>
        <pt x="428" y="919" on="1"/>
        <pt x="552" y="784" on="1"/>
        <pt x="517" y="746" on="1"/>
        <pt x="397" y="847" on="1"/>
        <pt x="389" y="847" on="1"/>
      </contour>
      <contour>
        <pt x="551" y="606" on="1"/>
        <pt x="279" y="606" on="1"/>
        <pt x="247" y="606" on="0"/>
        <pt x="216" y="577" on="0"/>
        <pt x="212" y="541" on="1"/>
        <pt x="193" y="401" on="1"/>
        <pt x="484" y="401" on="1"/>
        <pt x="474" y="324" on="1"/>
        <pt x="182" y="324" on="1"/>
        <pt x="158" y="146" on="1"/>
        <pt x="154" y="112" on="0"/>
        <pt x="177" y="84" on="0"/>
        <pt x="210" y="84" on="1"/>
        <pt x="477" y="84" on="1"/>
        <pt x="475" y="6" on="1"/>
        <pt x="389" y="-2" on="0"/>
        <pt x="198" y="-2" on="1"/>
        <pt x="118" y="-2" on="0"/>
        <pt x="47" y="75" on="0"/>
        <pt x="56" y="143" on="1"/>
        <pt x="115" y="570" on="1"/>
        <pt x="123" y="628" on="0"/>
        <pt x="201" y="692" on="0"/>
        <pt x="267" y="692" on="1"/>
        <pt x="474" y="692" on="0"/>
        <pt x="564" y="684" on="1"/>
      </contour>
    </TTGlyph>
    <TTGlyph name="Edieresis" xMin="56" yMin="-2" xMax="564" yMax="892">
      <contour>
        <pt x="311" y="785" on="1"/>
        <pt x="278" y="785" on="1"/>
        <pt x="251" y="785" on="0"/>
        <pt x="254" y="810" on="1"/>
        <pt x="263" y="866" on="1"/>
        <pt x="267" y="892" on="0"/>
        <pt x="294" y="892" on="1"/>
        <pt x="323" y="892" on="1"/>
        <pt x="339" y="892" on="0"/>
        <pt x="350" y="880" on="0"/>
        <pt x="348" y="866" on="1"/>
        <pt x="339" y="811" on="1"/>
        <pt x="336" y="785" on="0"/>
      </contour>
      <contour>
        <pt x="478" y="785" on="1"/>
        <pt x="446" y="785" on="1"/>
        <pt x="419" y="785" on="0"/>
        <pt x="422" y="810" on="1"/>
        <pt x="431" y="866" on="1"/>
        <pt x="434" y="892" on="0"/>
        <pt x="462" y="892" on="1"/>
        <pt x="491" y="892" on="1"/>
        <pt x="507" y="892" on="0"/>
        <pt x="517" y="880" on="0"/>
        <pt x="515" y="866" on="1"/>
        <pt x="507" y="811" on="1"/>
        <pt x="504" y="785" on="0"/>
      </contour>
      <contour>
        <pt x="551" y="606" on="1"/>
        <pt x="279" y="606" on="1"/>
        <pt x="247" y="606" on="0"/>
        <pt x="216" y="577" on="0"/>
        <pt x="212" y="541" on="1"/>
        <pt x="193" y="401" on="1"/>
        <pt x="484" y="401" on="1"/>
        <pt x="474" y="324" on="1"/>
        <pt x="182" y="324" on="1"/>
        <pt x="158" y="146" on="1"/>
        <pt x="154" y="112" on="0"/>
        <pt x="177" y="84" on="0"/>
        <pt x="210" y="84" on="1"/>
        <pt x="477" y="84" on="1"/>
        <pt x="475" y="6" on="1"/>
        <pt x="389" y="-2" on="0"/>
        <pt x="198" y="-2" on="1"/>
        <pt x="118" y="-2" on="0"/>
        <pt x="47" y="75" on="0"/>
        <pt x="56" y="143" on="1"/>
        <pt x="115" y="570" on="1"/>
        <pt x="123" y="628" on="0"/>
        <pt x="201" y="692" on="0"/>
        <pt x="267" y="692" on="1"/>
        <pt x="474" y="692" on="0"/>
        <pt x="564" y="684" on="1"/>
      </contour>
    </TTGlyph>
    <TTGlyph name="Edotaccent" xMin="56" yMin="-2" xMax="564" yMax="888">
      <contour>
        <pt x="394" y="775" on="1"/>
        <pt x="364" y="775" on="1"/>
        <pt x="350" y="775" on="0"/>
        <pt x="335" y="792" on="0"/>
        <pt x="337" y="806" on="1"/>
        <pt x="344" y="862" on="1"/>
        <pt x="348" y="888" on="0"/>
        <pt x="374" y="888" on="1"/>
        <pt x="405" y="888" on="1"/>
        <pt x="419" y="888" on="0"/>
        <pt x="434" y="872" on="0"/>
        <pt x="432" y="858" on="1"/>
        <pt x="424" y="802" on="1"/>
        <pt x="420" y="775" on="0"/>
      </contour>
      <contour>
        <pt x="551" y="606" on="1"/>
        <pt x="279" y="606" on="1"/>
        <pt x="247" y="606" on="0"/>
        <pt x="216" y="577" on="0"/>
        <pt x="212" y="541" on="1"/>
        <pt x="193" y="401" on="1"/>
        <pt x="484" y="401" on="1"/>
        <pt x="474" y="324" on="1"/>
        <pt x="182" y="324" on="1"/>
        <pt x="158" y="146" on="1"/>
        <pt x="154" y="112" on="0"/>
        <pt x="177" y="84" on="0"/>
        <pt x="210" y="84" on="1"/>
        <pt x="477" y="84" on="1"/>
        <pt x="475" y="6" on="1"/>
        <pt x="389" y="-2" on="0"/>
        <pt x="198" y="-2" on="1"/>
        <pt x="118" y="-2" on="0"/>
        <pt x="47" y="75" on="0"/>
        <pt x="56" y="143" on="1"/>
        <pt x="115" y="570" on="1"/>
        <pt x="123" y="628" on="0"/>
        <pt x="201" y="692" on="0"/>
        <pt x="267" y="692" on="1"/>
        <pt x="474" y="692" on="0"/>
        <pt x="564" y="684" on="1"/>
      </contour>
    </TTGlyph>
    <TTGlyph name="Egrave" xMin="56" yMin="-2" xMax="564" yMax="937">
      <contour>
        <pt x="394" y="746" on="1"/>
        <pt x="199" y="868" on="1"/>
        <pt x="251" y="937" on="1"/>
        <pt x="428" y="790" on="1"/>
      </contour>
      <contour>
        <pt x="551" y="606" on="1"/>
        <pt x="279" y="606" on="1"/>
        <pt x="247" y="606" on="0"/>
        <pt x="216" y="577" on="0"/>
        <pt x="212" y="541" on="1"/>
        <pt x="193" y="401" on="1"/>
        <pt x="484" y="401" on="1"/>
        <pt x="474" y="324" on="1"/>
        <pt x="182" y="324" on="1"/>
        <pt x="158" y="146" on="1"/>
        <pt x="154" y="112" on="0"/>
        <pt x="177" y="84" on="0"/>
        <pt x="210" y="84" on="1"/>
        <pt x="477" y="84" on="1"/>
        <pt x="475" y="6" on="1"/>
        <pt x="389" y="-2" on="0"/>
        <pt x="198" y="-2" on="1"/>
        <pt x="118" y="-2" on="0"/>
        <pt x="47" y="75" on="0"/>
        <pt x="56" y="143" on="1"/>
        <pt x="115" y="570" on="1"/>
        <pt x="123" y="628" on="0"/>
        <pt x="201" y="692" on="0"/>
        <pt x="267" y="692" on="1"/>
        <pt x="474" y="692" on="0"/>
        <pt x="564" y="684" on="1"/>
      </contour>
    </TTGlyph>
    <TTGlyph name="Emacron" xMin="56" yMin="-2" xMax="564" yMax="873">
      <contour>
        <pt x="521" y="802" on="1"/>
        <pt x="238" y="802" on="1"/>
        <pt x="248" y="873" on="1"/>
        <pt x="531" y="873" on="1"/>
      </contour>
      <contour>
        <pt x="551" y="606" on="1"/>
        <pt x="279" y="606" on="1"/>
        <pt x="247" y="606" on="0"/>
        <pt x="216" y="577" on="0"/>
        <pt x="212" y="541" on="1"/>
        <pt x="193" y="401" on="1"/>
        <pt x="484" y="401" on="1"/>
        <pt x="474" y="324" on="1"/>
        <pt x="182" y="324" on="1"/>
        <pt x="158" y="146" on="1"/>
        <pt x="154" y="112" on="0"/>
        <pt x="177" y="84" on="0"/>
        <pt x="210" y="84" on="1"/>
        <pt x="477" y="84" on="1"/>
        <pt x="475" y="6" on="1"/>
        <pt x="389" y="-2" on="0"/>
        <pt x="198" y="-2" on="1"/>
        <pt x="118" y="-2" on="0"/>
        <pt x="47" y="75" on="0"/>
        <pt x="56" y="143" on="1"/>
        <pt x="115" y="570" on="1"/>
        <pt x="123" y="628" on="0"/>
        <pt x="201" y="692" on="0"/>
        <pt x="267" y="692" on="1"/>
        <pt x="474" y="692" on="0"/>
        <pt x="564" y="684" on="1"/>
      </contour>
    </TTGlyph>
    <TTGlyph name="Eng" xMin="42" yMin="-215" xMax="679" yMax="690">
      <contour>
        <pt x="679" y="690" on="1"/>
        <pt x="571" y="-77" on="1"/>
        <pt x="561" y="-144" on="0"/>
        <pt x="481" y="-216" on="0"/>
        <pt x="421" y="-215" on="1"/>
        <pt x="366" y="-215" on="0"/>
        <pt x="326" y="-200" on="1"/>
        <pt x="343" y="-138" on="1"/>
        <pt x="389" y="-138" on="1"/>
        <pt x="469" y="-138" on="0"/>
        <pt x="479" y="-65" on="1"/>
        <pt x="489" y="0" on="1"/>
        <pt x="461" y="0" on="1"/>
        <pt x="456" y="0" on="0"/>
        <pt x="448" y="4" on="0"/>
        <pt x="441" y="15" on="0"/>
        <pt x="439" y="21" on="0"/>
        <pt x="435" y="29" on="1"/>
        <pt x="259" y="485" on="1"/>
        <pt x="242" y="528" on="0"/>
        <pt x="234" y="581" on="1"/>
        <pt x="219" y="581" on="1"/>
        <pt x="218" y="539" on="0"/>
        <pt x="209" y="483" on="1"/>
        <pt x="142" y="0" on="1"/>
        <pt x="42" y="0" on="1"/>
        <pt x="133" y="653" on="1"/>
        <pt x="139" y="690" on="0"/>
        <pt x="175" y="690" on="1"/>
        <pt x="248" y="690" on="1"/>
        <pt x="275" y="690" on="0"/>
        <pt x="288" y="657" on="1"/>
        <pt x="454" y="217" on="1"/>
        <pt x="477" y="155" on="0"/>
        <pt x="489" y="113" on="1"/>
        <pt x="503" y="113" on="1"/>
        <pt x="504" y="160" on="0"/>
        <pt x="513" y="221" on="1"/>
        <pt x="579" y="690" on="1"/>
      </contour>
    </TTGlyph>
    <TTGlyph name="Eogonek" xMin="56" yMin="-207" xMax="564" yMax="692">
      <contour>
        <pt x="551" y="606" on="1"/>
        <pt x="279" y="606" on="1"/>
        <pt x="247" y="606" on="0"/>
        <pt x="216" y="577" on="0"/>
        <pt x="212" y="541" on="1"/>
        <pt x="193" y="401" on="1"/>
        <pt x="484" y="401" on="1"/>
        <pt x="474" y="324" on="1"/>
        <pt x="182" y="324" on="1"/>
        <pt x="158" y="146" on="1"/>
        <pt x="154" y="112" on="0"/>
        <pt x="177" y="84" on="0"/>
        <pt x="210" y="84" on="1"/>
        <pt x="477" y="84" on="1"/>
        <pt x="475" y="6" on="1"/>
        <pt x="427" y="-45" on="0"/>
        <pt x="390" y="-109" on="1"/>
        <pt x="370" y="-143" on="0"/>
        <pt x="406" y="-162" on="0"/>
        <pt x="454" y="-147" on="1"/>
        <pt x="466" y="-188" on="1"/>
        <pt x="426" y="-203" on="0"/>
        <pt x="363" y="-210" on="0"/>
        <pt x="326" y="-196" on="0"/>
        <pt x="306" y="-167" on="0"/>
        <pt x="308" y="-128" on="0"/>
        <pt x="319" y="-107" on="1"/>
        <pt x="346" y="-53" on="0"/>
        <pt x="421" y="2" on="1"/>
        <pt x="348" y="-2" on="0"/>
        <pt x="198" y="-2" on="1"/>
        <pt x="118" y="-2" on="0"/>
        <pt x="47" y="75" on="0"/>
        <pt x="56" y="143" on="1"/>
        <pt x="115" y="570" on="1"/>
        <pt x="123" y="628" on="0"/>
        <pt x="201" y="692" on="0"/>
        <pt x="267" y="692" on="1"/>
        <pt x="474" y="692" on="0"/>
        <pt x="564" y="684" on="1"/>
      </contour>
    </TTGlyph>
    <TTGlyph name="Eth" xMin="27" yMin="-9" xMax="612" yMax="699">
      <contour>
        <pt x="97" y="393" on="1"/>
        <pt x="139" y="690" on="1"/>
        <pt x="261" y="699" on="0"/>
        <pt x="364" y="699" on="1"/>
        <pt x="528" y="699" on="0"/>
        <pt x="640" y="541" on="0"/>
        <pt x="612" y="341" on="1"/>
        <pt x="601" y="264" on="0"/>
        <pt x="572" y="154" on="0"/>
        <pt x="529" y="76" on="0"/>
        <pt x="479" y="28" on="0"/>
        <pt x="405" y="0" on="0"/>
        <pt x="327" y="-9" on="0"/>
        <pt x="271" y="-9" on="1"/>
        <pt x="175" y="-9" on="0"/>
        <pt x="42" y="0" on="1"/>
        <pt x="90" y="338" on="1"/>
        <pt x="27" y="338" on="1"/>
        <pt x="34" y="393" on="1"/>
      </contour>
      <contour>
        <pt x="189" y="338" on="1"/>
        <pt x="153" y="80" on="1"/>
        <pt x="239" y="78" on="0"/>
        <pt x="270" y="78" on="1"/>
        <pt x="351" y="78" on="0"/>
        <pt x="437" y="118" on="0"/>
        <pt x="491" y="232" on="0"/>
        <pt x="508" y="349" on="1"/>
        <pt x="518" y="417" on="0"/>
        <pt x="520" y="506" on="0"/>
        <pt x="505" y="568" on="0"/>
        <pt x="465" y="599" on="0"/>
        <pt x="408" y="612" on="0"/>
        <pt x="362" y="612" on="1"/>
        <pt x="350" y="612" on="0"/>
        <pt x="254" y="611" on="0"/>
        <pt x="228" y="611" on="1"/>
        <pt x="197" y="393" on="1"/>
        <pt x="346" y="393" on="1"/>
        <pt x="339" y="338" on="1"/>
      </contour>
    </TTGlyph>
    <TTGlyph name="Euro" xMin="43" yMin="-12" xMax="626" yMax="702">
      <contour>
        <pt x="626" y="681" on="1"/>
        <pt x="610" y="603" on="1"/>
        <pt x="539" y="617" on="0"/>
        <pt x="454" y="612" on="1"/>
        <pt x="374" y="609" on="0"/>
        <pt x="284" y="531" on="0"/>
        <pt x="260" y="446" on="1"/>
        <pt x="509" y="446" on="1"/>
        <pt x="492" y="388" on="1"/>
        <pt x="246" y="388" on="1"/>
        <pt x="244" y="380" on="0"/>
        <pt x="239" y="347" on="0"/>
        <pt x="238" y="340" on="1"/>
        <pt x="235" y="317" on="1"/>
        <pt x="456" y="317" on="1"/>
        <pt x="439" y="258" on="1"/>
        <pt x="231" y="258" on="1"/>
        <pt x="228" y="166" on="0"/>
        <pt x="292" y="80" on="0"/>
        <pt x="368" y="78" on="1"/>
        <pt x="460" y="73" on="0"/>
        <pt x="545" y="89" on="1"/>
        <pt x="549" y="11" on="1"/>
        <pt x="470" y="-12" on="0"/>
        <pt x="372" y="-12" on="1"/>
        <pt x="241" y="-12" on="0"/>
        <pt x="123" y="121" on="0"/>
        <pt x="128" y="258" on="1"/>
        <pt x="43" y="258" on="1"/>
        <pt x="52" y="317" on="1"/>
        <pt x="132" y="317" on="1"/>
        <pt x="136" y="349" on="1"/>
        <pt x="142" y="388" on="1"/>
        <pt x="62" y="388" on="1"/>
        <pt x="70" y="446" on="1"/>
        <pt x="154" y="446" on="1"/>
        <pt x="187" y="577" on="0"/>
        <pt x="332" y="702" on="0"/>
        <pt x="461" y="702" on="1"/>
        <pt x="551" y="702" on="0"/>
      </contour>
    </TTGlyph>
    <TTGlyph name="F" xMin="40" yMin="0" xMax="559" yMax="692">
      <contour>
        <pt x="544" y="606" on="1"/>
        <pt x="291" y="606" on="1"/>
        <pt x="253" y="606" on="0"/>
        <pt x="221" y="579" on="0"/>
        <pt x="216" y="541" on="1"/>
        <pt x="194" y="389" on="1"/>
        <pt x="477" y="389" on="1"/>
        <pt x="466" y="312" on="1"/>
        <pt x="184" y="312" on="1"/>
        <pt x="140" y="0" on="1"/>
        <pt x="40" y="0" on="1"/>
        <pt x="118" y="565" on="1"/>
        <pt x="138" y="692" on="0"/>
        <pt x="271" y="692" on="1"/>
        <pt x="472" y="692" on="0"/>
        <pt x="559" y="683" on="1"/>
      </contour>
    </TTGlyph>
    <TTGlyph name="G" xMin="65" yMin="-13" xMax="595" yMax="703">
      <contour>
        <pt x="595" y="681" on="1"/>
        <pt x="580" y="606" on="1"/>
        <pt x="496" y="614" on="0"/>
        <pt x="409" y="614" on="1"/>
        <pt x="347" y="614" on="0"/>
        <pt x="272" y="594" on="0"/>
        <pt x="213" y="533" on="0"/>
        <pt x="181" y="428" on="0"/>
        <pt x="170" y="341" on="1"/>
        <pt x="153" y="193" on="0"/>
        <pt x="196" y="75" on="0"/>
        <pt x="268" y="75" on="1"/>
        <pt x="316" y="75" on="0"/>
        <pt x="394" y="121" on="0"/>
        <pt x="448" y="174" on="1"/>
        <pt x="480" y="400" on="1"/>
        <pt x="576" y="400" on="1"/>
        <pt x="520" y="0" on="1"/>
        <pt x="448" y="0" on="1"/>
        <pt x="448" y="93" on="1"/>
        <pt x="358" y="-13" on="0"/>
        <pt x="233" y="-13" on="1"/>
        <pt x="128" y="-13" on="0"/>
        <pt x="45" y="161" on="0"/>
        <pt x="65" y="349" on="1"/>
        <pt x="79" y="457" on="0"/>
        <pt x="132" y="598" on="0"/>
        <pt x="219" y="674" on="0"/>
        <pt x="323" y="703" on="0"/>
        <pt x="397" y="703" on="1"/>
        <pt x="510" y="703" on="0"/>
      </contour>
    </TTGlyph>
    <TTGlyph name="Gbreve" xMin="65" yMin="-13" xMax="595" yMax="888">
      <contour>
        <pt x="513" y="888" on="1"/>
        <pt x="561" y="877" on="1"/>
        <pt x="557" y="817" on="0"/>
        <pt x="467" y="744" on="0"/>
        <pt x="396" y="744" on="1"/>
        <pt x="320" y="744" on="0"/>
        <pt x="243" y="821" on="0"/>
        <pt x="256" y="880" on="1"/>
        <pt x="306" y="884" on="1"/>
        <pt x="301" y="851" on="0"/>
        <pt x="348" y="815" on="0"/>
        <pt x="395" y="815" on="1"/>
        <pt x="446" y="815" on="0"/>
        <pt x="509" y="854" on="0"/>
      </contour>
      <contour>
        <pt x="595" y="681" on="1"/>
        <pt x="580" y="606" on="1"/>
        <pt x="496" y="614" on="0"/>
        <pt x="409" y="614" on="1"/>
        <pt x="347" y="614" on="0"/>
        <pt x="272" y="594" on="0"/>
        <pt x="213" y="533" on="0"/>
        <pt x="181" y="428" on="0"/>
        <pt x="170" y="341" on="1"/>
        <pt x="153" y="193" on="0"/>
        <pt x="196" y="75" on="0"/>
        <pt x="268" y="75" on="1"/>
        <pt x="316" y="75" on="0"/>
        <pt x="394" y="121" on="0"/>
        <pt x="448" y="174" on="1"/>
        <pt x="480" y="400" on="1"/>
        <pt x="576" y="400" on="1"/>
        <pt x="520" y="0" on="1"/>
        <pt x="448" y="0" on="1"/>
        <pt x="448" y="93" on="1"/>
        <pt x="358" y="-13" on="0"/>
        <pt x="233" y="-13" on="1"/>
        <pt x="128" y="-13" on="0"/>
        <pt x="45" y="161" on="0"/>
        <pt x="65" y="349" on="1"/>
        <pt x="79" y="457" on="0"/>
        <pt x="132" y="598" on="0"/>
        <pt x="219" y="674" on="0"/>
        <pt x="323" y="703" on="0"/>
        <pt x="397" y="703" on="1"/>
        <pt x="510" y="703" on="0"/>
      </contour>
    </TTGlyph>
    <TTGlyph name="Gcommaaccent" xMin="65" yMin="-278" xMax="595" yMax="703">
      <contour>
        <pt x="595" y="681" on="1"/>
        <pt x="580" y="606" on="1"/>
        <pt x="496" y="614" on="0"/>
        <pt x="409" y="614" on="1"/>
        <pt x="347" y="614" on="0"/>
        <pt x="272" y="594" on="0"/>
        <pt x="213" y="533" on="0"/>
        <pt x="181" y="428" on="0"/>
        <pt x="170" y="341" on="1"/>
        <pt x="153" y="193" on="0"/>
        <pt x="196" y="75" on="0"/>
        <pt x="268" y="75" on="1"/>
        <pt x="316" y="75" on="0"/>
        <pt x="394" y="121" on="0"/>
        <pt x="448" y="174" on="1"/>
        <pt x="480" y="400" on="1"/>
        <pt x="576" y="400" on="1"/>
        <pt x="520" y="0" on="1"/>
        <pt x="448" y="0" on="1"/>
        <pt x="448" y="93" on="1"/>
        <pt x="358" y="-13" on="0"/>
        <pt x="233" y="-13" on="1"/>
        <pt x="128" y="-13" on="0"/>
        <pt x="45" y="161" on="0"/>
        <pt x="65" y="349" on="1"/>
        <pt x="79" y="457" on="0"/>
        <pt x="132" y="598" on="0"/>
        <pt x="219" y="674" on="0"/>
        <pt x="323" y="703" on="0"/>
        <pt x="397" y="703" on="1"/>
        <pt x="510" y="703" on="0"/>
      </contour>
      <contour>
        <pt x="278" y="-58" on="1"/>
        <pt x="304" y="-58" on="1"/>
        <pt x="338" y="-58" on="0"/>
        <pt x="332" y="-89" on="1"/>
        <pt x="324" y="-144" on="1"/>
        <pt x="316" y="-206" on="0"/>
        <pt x="270" y="-278" on="1"/>
        <pt x="227" y="-264" on="1"/>
        <pt x="251" y="-195" on="0"/>
        <pt x="258" y="-161" on="1"/>
        <pt x="244" y="-162" on="0"/>
        <pt x="229" y="-148" on="0"/>
        <pt x="231" y="-135" on="1"/>
        <pt x="238" y="-86" on="1"/>
        <pt x="242" y="-69" on="0"/>
        <pt x="258" y="-58" on="0"/>
      </contour>
    </TTGlyph>
    <TTGlyph name="Gdotaccent" xMin="65" yMin="-13" xMax="595" yMax="869">
      <contour>
        <pt x="410" y="756" on="1"/>
        <pt x="380" y="756" on="1"/>
        <pt x="366" y="756" on="0"/>
        <pt x="351" y="773" on="0"/>
        <pt x="353" y="786" on="1"/>
        <pt x="360" y="842" on="1"/>
        <pt x="364" y="869" on="0"/>
        <pt x="390" y="869" on="1"/>
        <pt x="421" y="869" on="1"/>
        <pt x="435" y="869" on="0"/>
        <pt x="450" y="852" on="0"/>
        <pt x="448" y="838" on="1"/>
        <pt x="440" y="783" on="1"/>
        <pt x="436" y="756" on="0"/>
      </contour>
      <contour>
        <pt x="595" y="681" on="1"/>
        <pt x="580" y="606" on="1"/>
        <pt x="496" y="614" on="0"/>
        <pt x="409" y="614" on="1"/>
        <pt x="347" y="614" on="0"/>
        <pt x="272" y="594" on="0"/>
        <pt x="213" y="533" on="0"/>
        <pt x="181" y="428" on="0"/>
        <pt x="170" y="341" on="1"/>
        <pt x="153" y="193" on="0"/>
        <pt x="196" y="75" on="0"/>
        <pt x="268" y="75" on="1"/>
        <pt x="316" y="75" on="0"/>
        <pt x="394" y="121" on="0"/>
        <pt x="448" y="174" on="1"/>
        <pt x="480" y="400" on="1"/>
        <pt x="576" y="400" on="1"/>
        <pt x="520" y="0" on="1"/>
        <pt x="448" y="0" on="1"/>
        <pt x="448" y="93" on="1"/>
        <pt x="358" y="-13" on="0"/>
        <pt x="233" y="-13" on="1"/>
        <pt x="128" y="-13" on="0"/>
        <pt x="45" y="161" on="0"/>
        <pt x="65" y="349" on="1"/>
        <pt x="79" y="457" on="0"/>
        <pt x="132" y="598" on="0"/>
        <pt x="219" y="674" on="0"/>
        <pt x="323" y="703" on="0"/>
        <pt x="397" y="703" on="1"/>
        <pt x="510" y="703" on="0"/>
      </contour>
    </TTGlyph>
    <TTGlyph name="H" xMin="42" yMin="0" xMax="641" yMax="690">
      <contour>
        <pt x="641" y="690" on="1"/>
        <pt x="544" y="0" on="1"/>
        <pt x="444" y="0" on="1"/>
        <pt x="490" y="324" on="1"/>
        <pt x="188" y="324" on="1"/>
        <pt x="143" y="0" on="1"/>
        <pt x="42" y="0" on="1"/>
        <pt x="139" y="690" on="1"/>
        <pt x="240" y="690" on="1"/>
        <pt x="200" y="411" on="1"/>
        <pt x="502" y="411" on="1"/>
        <pt x="541" y="690" on="1"/>
      </contour>
    </TTGlyph>
    <TTGlyph name="Hbar" xMin="42" yMin="0" xMax="696" yMax="690">
      <contour>
        <pt x="690" y="518" on="1"/>
        <pt x="617" y="518" on="1"/>
        <pt x="544" y="0" on="1"/>
        <pt x="444" y="0" on="1"/>
        <pt x="490" y="324" on="1"/>
        <pt x="188" y="324" on="1"/>
        <pt x="143" y="0" on="1"/>
        <pt x="42" y="0" on="1"/>
        <pt x="115" y="518" on="1"/>
        <pt x="50" y="518" on="1"/>
        <pt x="57" y="570" on="1"/>
        <pt x="122" y="570" on="1"/>
        <pt x="139" y="690" on="1"/>
        <pt x="240" y="690" on="1"/>
        <pt x="223" y="570" on="1"/>
        <pt x="525" y="570" on="1"/>
        <pt x="541" y="690" on="1"/>
        <pt x="641" y="690" on="1"/>
        <pt x="625" y="570" on="1"/>
        <pt x="696" y="570" on="1"/>
      </contour>
      <contour>
        <pt x="517" y="518" on="1"/>
        <pt x="216" y="518" on="1"/>
        <pt x="200" y="411" on="1"/>
        <pt x="502" y="411" on="1"/>
      </contour>
    </TTGlyph>
    <TTGlyph name="I" xMin="42" yMin="0" xMax="240" yMax="690">
      <contour>
        <pt x="143" y="0" on="1"/>
        <pt x="42" y="0" on="1"/>
        <pt x="139" y="690" on="1"/>
        <pt x="240" y="690" on="1"/>
      </contour>
    </TTGlyph>
    <TTGlyph name="IJ" xMin="42" yMin="-9" xMax="585" yMax="690">
      <contour>
        <pt x="143" y="0" on="1"/>
        <pt x="42" y="0" on="1"/>
        <pt x="139" y="690" on="1"/>
        <pt x="240" y="690" on="1"/>
      </contour>
      <contour>
        <pt x="585" y="690" on="1"/>
        <pt x="508" y="149" on="1"/>
        <pt x="498" y="71" on="0"/>
        <pt x="419" y="-10" on="0"/>
        <pt x="356" y="-9" on="1"/>
        <pt x="296" y="-9" on="0"/>
        <pt x="257" y="5" on="1"/>
        <pt x="276" y="76" on="1"/>
        <pt x="321" y="76" on="1"/>
        <pt x="399" y="76" on="0"/>
        <pt x="408" y="148" on="1"/>
        <pt x="484" y="690" on="1"/>
      </contour>
    </TTGlyph>
    <TTGlyph name="Iacute" xMin="42" yMin="0" xMax="373" yMax="918">
      <contour>
        <pt x="373" y="843" on="1"/>
        <pt x="160" y="726" on="1"/>
        <pt x="131" y="771" on="1"/>
        <pt x="327" y="918" on="1"/>
      </contour>
      <contour>
        <pt x="143" y="0" on="1"/>
        <pt x="42" y="0" on="1"/>
        <pt x="139" y="690" on="1"/>
        <pt x="240" y="690" on="1"/>
      </contour>
    </TTGlyph>
    <TTGlyph name="Icircumflex" xMin="34" yMin="0" xMax="375" yMax="899">
      <contour>
        <pt x="375" y="764" on="1"/>
        <pt x="339" y="726" on="1"/>
        <pt x="219" y="827" on="1"/>
        <pt x="211" y="827" on="1"/>
        <pt x="62" y="728" on="1"/>
        <pt x="34" y="770" on="1"/>
        <pt x="182" y="899" on="1"/>
        <pt x="250" y="899" on="1"/>
      </contour>
      <contour>
        <pt x="143" y="0" on="1"/>
        <pt x="42" y="0" on="1"/>
        <pt x="139" y="690" on="1"/>
        <pt x="240" y="690" on="1"/>
      </contour>
    </TTGlyph>
    <TTGlyph name="Idieresis" xMin="42" yMin="0" xMax="338" yMax="873">
      <contour>
        <pt x="117" y="873" on="1"/>
        <pt x="146" y="873" on="1"/>
        <pt x="162" y="873" on="0"/>
        <pt x="172" y="860" on="0"/>
        <pt x="170" y="846" on="1"/>
        <pt x="161" y="791" on="1"/>
        <pt x="160" y="765" on="0"/>
        <pt x="133" y="765" on="1"/>
        <pt x="101" y="765" on="1"/>
        <pt x="74" y="765" on="0"/>
        <pt x="77" y="790" on="1"/>
        <pt x="86" y="846" on="1"/>
        <pt x="89" y="873" on="0"/>
      </contour>
      <contour>
        <pt x="284" y="873" on="1"/>
        <pt x="313" y="873" on="1"/>
        <pt x="342" y="873" on="0"/>
        <pt x="338" y="846" on="1"/>
        <pt x="329" y="791" on="1"/>
        <pt x="326" y="765" on="0"/>
        <pt x="300" y="765" on="1"/>
        <pt x="268" y="765" on="1"/>
        <pt x="241" y="765" on="0"/>
        <pt x="244" y="790" on="1"/>
        <pt x="253" y="846" on="1"/>
        <pt x="258" y="873" on="0"/>
      </contour>
      <contour>
        <pt x="143" y="0" on="1"/>
        <pt x="42" y="0" on="1"/>
        <pt x="139" y="690" on="1"/>
        <pt x="240" y="690" on="1"/>
      </contour>
    </TTGlyph>
    <TTGlyph name="Idotaccent" xMin="42" yMin="0" xMax="254" yMax="869">
      <contour>
        <pt x="196" y="869" on="1"/>
        <pt x="227" y="869" on="1"/>
        <pt x="241" y="869" on="0"/>
        <pt x="256" y="852" on="0"/>
        <pt x="254" y="838" on="1"/>
        <pt x="246" y="783" on="1"/>
        <pt x="243" y="756" on="0"/>
        <pt x="217" y="756" on="1"/>
        <pt x="186" y="756" on="1"/>
        <pt x="172" y="756" on="0"/>
        <pt x="158" y="773" on="0"/>
        <pt x="159" y="786" on="1"/>
        <pt x="166" y="842" on="1"/>
        <pt x="170" y="869" on="0"/>
      </contour>
      <contour>
        <pt x="143" y="0" on="1"/>
        <pt x="42" y="0" on="1"/>
        <pt x="139" y="690" on="1"/>
        <pt x="240" y="690" on="1"/>
      </contour>
    </TTGlyph>
    <TTGlyph name="Igrave" xMin="21" yMin="0" xMax="250" yMax="917">
      <contour>
        <pt x="250" y="770" on="1"/>
        <pt x="216" y="726" on="1"/>
        <pt x="21" y="848" on="1"/>
        <pt x="73" y="917" on="1"/>
      </contour>
      <contour>
        <pt x="143" y="0" on="1"/>
        <pt x="42" y="0" on="1"/>
        <pt x="139" y="690" on="1"/>
        <pt x="240" y="690" on="1"/>
      </contour>
    </TTGlyph>
    <TTGlyph name="Imacron" xMin="42" yMin="0" xMax="353" yMax="853">
      <contour>
        <pt x="343" y="782" on="1"/>
        <pt x="60" y="782" on="1"/>
        <pt x="70" y="853" on="1"/>
        <pt x="353" y="853" on="1"/>
      </contour>
      <contour>
        <pt x="143" y="0" on="1"/>
        <pt x="42" y="0" on="1"/>
        <pt x="139" y="690" on="1"/>
        <pt x="240" y="690" on="1"/>
      </contour>
    </TTGlyph>
    <TTGlyph name="Iogonek" xMin="-38" yMin="-213" xMax="240" yMax="690">
      <contour>
        <pt x="143" y="0" on="1"/>
        <pt x="131" y="0" on="1"/>
        <pt x="82" y="-51" on="0"/>
        <pt x="46" y="-115" on="1"/>
        <pt x="18" y="-161" on="0"/>
        <pt x="62" y="-161" on="1"/>
        <pt x="80" y="-161" on="0"/>
        <pt x="110" y="-152" on="1"/>
        <pt x="121" y="-194" on="1"/>
        <pt x="81" y="-209" on="0"/>
        <pt x="18" y="-216" on="0"/>
        <pt x="-19" y="-201" on="0"/>
        <pt x="-39" y="-173" on="0"/>
        <pt x="-36" y="-134" on="0"/>
        <pt x="-25" y="-112" on="1"/>
        <pt x="5" y="-55" on="0"/>
        <pt x="82" y="0" on="1"/>
        <pt x="42" y="0" on="1"/>
        <pt x="139" y="690" on="1"/>
        <pt x="240" y="690" on="1"/>
      </contour>
    </TTGlyph>
    <TTGlyph name="J" xMin="-10" yMin="-9" xMax="318" yMax="690">
      <contour>
        <pt x="318" y="690" on="1"/>
        <pt x="242" y="149" on="1"/>
        <pt x="231" y="71" on="0"/>
        <pt x="152" y="-10" on="0"/>
        <pt x="89" y="-9" on="1"/>
        <pt x="28" y="-9" on="0"/>
        <pt x="-10" y="5" on="1"/>
        <pt x="9" y="76" on="1"/>
        <pt x="55" y="76" on="1"/>
        <pt x="131" y="76" on="0"/>
        <pt x="142" y="148" on="1"/>
        <pt x="217" y="690" on="1"/>
      </contour>
    </TTGlyph>
    <TTGlyph name="K" xMin="42" yMin="0" xMax="627" yMax="690">
      <contour>
        <pt x="344" y="360" on="1"/>
        <pt x="343" y="356" on="1"/>
        <pt x="362" y="332" on="0"/>
        <pt x="378" y="301" on="1"/>
        <pt x="543" y="0" on="1"/>
        <pt x="430" y="0" on="1"/>
        <pt x="258" y="319" on="1"/>
        <pt x="180" y="319" on="1"/>
        <pt x="180" y="278" on="0"/>
        <pt x="176" y="246" on="1"/>
        <pt x="142" y="0" on="1"/>
        <pt x="42" y="0" on="1"/>
        <pt x="139" y="690" on="1"/>
        <pt x="239" y="690" on="1"/>
        <pt x="208" y="477" on="1"/>
        <pt x="204" y="439" on="0"/>
        <pt x="193" y="400" on="1"/>
        <pt x="267" y="400" on="1"/>
        <pt x="506" y="690" on="1"/>
        <pt x="627" y="690" on="1"/>
        <pt x="393" y="406" on="1"/>
        <pt x="370" y="378" on="0"/>
      </contour>
    </TTGlyph>
    <TTGlyph name="Kcommaaccent" xMin="42" yMin="-278" xMax="627" yMax="690">
      <contour>
        <pt x="344" y="360" on="1"/>
        <pt x="343" y="356" on="1"/>
        <pt x="362" y="332" on="0"/>
        <pt x="378" y="301" on="1"/>
        <pt x="543" y="0" on="1"/>
        <pt x="430" y="0" on="1"/>
        <pt x="258" y="319" on="1"/>
        <pt x="180" y="319" on="1"/>
        <pt x="180" y="278" on="0"/>
        <pt x="176" y="246" on="1"/>
        <pt x="142" y="0" on="1"/>
        <pt x="42" y="0" on="1"/>
        <pt x="139" y="690" on="1"/>
        <pt x="239" y="690" on="1"/>
        <pt x="208" y="477" on="1"/>
        <pt x="204" y="439" on="0"/>
        <pt x="193" y="400" on="1"/>
        <pt x="267" y="400" on="1"/>
        <pt x="506" y="690" on="1"/>
        <pt x="627" y="690" on="1"/>
        <pt x="393" y="406" on="1"/>
        <pt x="370" y="378" on="0"/>
      </contour>
      <contour>
        <pt x="262" y="-58" on="1"/>
        <pt x="288" y="-58" on="1"/>
        <pt x="322" y="-58" on="0"/>
        <pt x="316" y="-89" on="1"/>
        <pt x="309" y="-144" on="1"/>
        <pt x="299" y="-207" on="0"/>
        <pt x="254" y="-278" on="1"/>
        <pt x="211" y="-264" on="1"/>
        <pt x="235" y="-195" on="0"/>
        <pt x="242" y="-161" on="1"/>
        <pt x="228" y="-162" on="0"/>
        <pt x="214" y="-148" on="0"/>
        <pt x="215" y="-135" on="1"/>
        <pt x="223" y="-86" on="1"/>
        <pt x="227" y="-69" on="0"/>
        <pt x="242" y="-58" on="0"/>
      </contour>
    </TTGlyph>
    <TTGlyph name="L" xMin="62" yMin="-2" xMax="459" yMax="690">
      <contour>
        <pt x="237" y="690" on="1"/>
        <pt x="161" y="146" on="1"/>
        <pt x="153" y="84" on="0"/>
        <pt x="213" y="84" on="1"/>
        <pt x="459" y="84" on="1"/>
        <pt x="457" y="6" on="1"/>
        <pt x="371" y="-2" on="0"/>
        <pt x="192" y="-2" on="1"/>
        <pt x="122" y="-2" on="0"/>
        <pt x="52" y="75" on="0"/>
        <pt x="62" y="149" on="1"/>
        <pt x="136" y="690" on="1"/>
      </contour>
    </TTGlyph>
    <TTGlyph name="Lacute" xMin="62" yMin="-2" xMax="459" yMax="918">
      <contour>
        <pt x="371" y="843" on="1"/>
        <pt x="159" y="726" on="1"/>
        <pt x="130" y="771" on="1"/>
        <pt x="326" y="918" on="1"/>
      </contour>
      <contour>
        <pt x="237" y="690" on="1"/>
        <pt x="161" y="146" on="1"/>
        <pt x="153" y="84" on="0"/>
        <pt x="213" y="84" on="1"/>
        <pt x="459" y="84" on="1"/>
        <pt x="457" y="6" on="1"/>
        <pt x="371" y="-2" on="0"/>
        <pt x="192" y="-2" on="1"/>
        <pt x="122" y="-2" on="0"/>
        <pt x="52" y="75" on="0"/>
        <pt x="62" y="149" on="1"/>
        <pt x="136" y="690" on="1"/>
      </contour>
    </TTGlyph>
    <TTGlyph name="Lcaron" xMin="62" yMin="-2" xMax="459" yMax="691">
      <contour>
        <pt x="353" y="691" on="1"/>
        <pt x="379" y="691" on="1"/>
        <pt x="413" y="691" on="0"/>
        <pt x="407" y="659" on="1"/>
        <pt x="399" y="605" on="1"/>
        <pt x="391" y="542" on="0"/>
        <pt x="345" y="470" on="1"/>
        <pt x="302" y="484" on="1"/>
        <pt x="327" y="558" on="0"/>
        <pt x="333" y="587" on="1"/>
        <pt x="319" y="586" on="0"/>
        <pt x="304" y="600" on="0"/>
        <pt x="306" y="613" on="1"/>
        <pt x="314" y="662" on="1"/>
        <pt x="318" y="679" on="0"/>
        <pt x="333" y="691" on="0"/>
      </contour>
      <contour>
        <pt x="237" y="690" on="1"/>
        <pt x="161" y="146" on="1"/>
        <pt x="153" y="84" on="0"/>
        <pt x="213" y="84" on="1"/>
        <pt x="459" y="84" on="1"/>
        <pt x="457" y="6" on="1"/>
        <pt x="371" y="-2" on="0"/>
        <pt x="192" y="-2" on="1"/>
        <pt x="122" y="-2" on="0"/>
        <pt x="52" y="75" on="0"/>
        <pt x="62" y="149" on="1"/>
        <pt x="136" y="690" on="1"/>
      </contour>
    </TTGlyph>
    <TTGlyph name="Lcommaaccent" xMin="62" yMin="-280" xMax="459" yMax="690">
      <contour>
        <pt x="237" y="690" on="1"/>
        <pt x="161" y="146" on="1"/>
        <pt x="153" y="84" on="0"/>
        <pt x="213" y="84" on="1"/>
        <pt x="459" y="84" on="1"/>
        <pt x="457" y="6" on="1"/>
        <pt x="371" y="-2" on="0"/>
        <pt x="192" y="-2" on="1"/>
        <pt x="122" y="-2" on="0"/>
        <pt x="52" y="75" on="0"/>
        <pt x="62" y="149" on="1"/>
        <pt x="136" y="690" on="1"/>
      </contour>
      <contour>
        <pt x="252" y="-59" on="1"/>
        <pt x="278" y="-59" on="1"/>
        <pt x="312" y="-59" on="0"/>
        <pt x="306" y="-90" on="1"/>
        <pt x="299" y="-145" on="1"/>
        <pt x="291" y="-202" on="0"/>
        <pt x="245" y="-280" on="1"/>
        <pt x="202" y="-266" on="1"/>
        <pt x="228" y="-184" on="0"/>
        <pt x="232" y="-163" on="1"/>
        <pt x="218" y="-164" on="0"/>
        <pt x="204" y="-149" on="0"/>
        <pt x="205" y="-137" on="1"/>
        <pt x="213" y="-87" on="1"/>
        <pt x="217" y="-70" on="0"/>
        <pt x="232" y="-59" on="0"/>
      </contour>
    </TTGlyph>
    <TTGlyph name="Ldot" xMin="62" yMin="-2" xMax="459" yMax="690">
      <contour>
        <pt x="237" y="690" on="1"/>
        <pt x="161" y="146" on="1"/>
        <pt x="153" y="84" on="0"/>
        <pt x="213" y="84" on="1"/>
        <pt x="459" y="84" on="1"/>
        <pt x="457" y="6" on="1"/>
        <pt x="371" y="-2" on="0"/>
        <pt x="192" y="-2" on="1"/>
        <pt x="122" y="-2" on="0"/>
        <pt x="52" y="75" on="0"/>
        <pt x="62" y="149" on="1"/>
        <pt x="136" y="690" on="1"/>
      </contour>
      <contour>
        <pt x="403" y="340" on="1"/>
        <pt x="372" y="340" on="1"/>
        <pt x="358" y="340" on="0"/>
        <pt x="342" y="356" on="0"/>
        <pt x="344" y="370" on="1"/>
        <pt x="352" y="426" on="1"/>
        <pt x="356" y="453" on="0"/>
        <pt x="382" y="453" on="1"/>
        <pt x="413" y="453" on="1"/>
        <pt x="427" y="453" on="0"/>
        <pt x="441" y="436" on="0"/>
        <pt x="439" y="422" on="1"/>
        <pt x="432" y="367" on="1"/>
        <pt x="428" y="340" on="0"/>
      </contour>
    </TTGlyph>
    <TTGlyph name="Lslash" xMin="20" yMin="-2" xMax="458" yMax="690">
      <contour>
        <pt x="458" y="84" on="1"/>
        <pt x="456" y="6" on="1"/>
        <pt x="370" y="-2" on="0"/>
        <pt x="191" y="-2" on="1"/>
        <pt x="121" y="-2" on="0"/>
        <pt x="51" y="75" on="0"/>
        <pt x="61" y="149" on="1"/>
        <pt x="85" y="328" on="1"/>
        <pt x="20" y="302" on="1"/>
        <pt x="26" y="362" on="1"/>
        <pt x="94" y="389" on="1"/>
        <pt x="135" y="690" on="1"/>
        <pt x="236" y="690" on="1"/>
        <pt x="200" y="430" on="1"/>
        <pt x="324" y="479" on="1"/>
        <pt x="318" y="419" on="1"/>
        <pt x="191" y="369" on="1"/>
        <pt x="160" y="146" on="1"/>
        <pt x="152" y="84" on="0"/>
        <pt x="212" y="84" on="1"/>
      </contour>
    </TTGlyph>
    <TTGlyph name="M" xMin="29" yMin="0" xMax="832" yMax="690">
      <contour>
        <pt x="685" y="690" on="1"/>
        <pt x="794" y="690" on="1"/>
        <pt x="814" y="690" on="0"/>
        <pt x="834" y="667" on="0"/>
        <pt x="832" y="647" on="1"/>
        <pt x="769" y="0" on="1"/>
        <pt x="670" y="0" on="1"/>
        <pt x="733" y="607" on="1"/>
        <pt x="714" y="607" on="1"/>
        <pt x="505" y="114" on="1"/>
        <pt x="492" y="82" on="0"/>
        <pt x="459" y="82" on="1"/>
        <pt x="372" y="82" on="1"/>
        <pt x="337" y="82" on="0"/>
        <pt x="332" y="118" on="1"/>
        <pt x="255" y="607" on="1"/>
        <pt x="235" y="607" on="1"/>
        <pt x="129" y="0" on="1"/>
        <pt x="29" y="0" on="1"/>
        <pt x="147" y="651" on="1"/>
        <pt x="153" y="690" on="0"/>
        <pt x="191" y="690" on="1"/>
        <pt x="298" y="690" on="1"/>
        <pt x="330" y="690" on="0"/>
        <pt x="335" y="654" on="1"/>
        <pt x="400" y="250" on="1"/>
        <pt x="404" y="227" on="0"/>
        <pt x="411" y="156" on="1"/>
        <pt x="429" y="156" on="1"/>
        <pt x="437" y="176" on="0"/>
        <pt x="464" y="242" on="0"/>
        <pt x="466" y="248" on="1"/>
        <pt x="639" y="657" on="1"/>
        <pt x="652" y="689" on="0"/>
      </contour>
    </TTGlyph>
    <TTGlyph name="N" xMin="42" yMin="0" xMax="679" yMax="690">
      <contour>
        <pt x="679" y="690" on="1"/>
        <pt x="587" y="37" on="1"/>
        <pt x="581" y="0" on="0"/>
        <pt x="547" y="0" on="1"/>
        <pt x="460" y="0" on="1"/>
        <pt x="432" y="0" on="0"/>
        <pt x="421" y="33" on="1"/>
        <pt x="260" y="503" on="1"/>
        <pt x="241" y="557" on="0"/>
        <pt x="233" y="597" on="1"/>
        <pt x="218" y="597" on="1"/>
        <pt x="217" y="555" on="0"/>
        <pt x="210" y="503" on="1"/>
        <pt x="142" y="0" on="1"/>
        <pt x="42" y="0" on="1"/>
        <pt x="133" y="653" on="1"/>
        <pt x="139" y="690" on="0"/>
        <pt x="175" y="690" on="1"/>
        <pt x="260" y="690" on="1"/>
        <pt x="287" y="690" on="0"/>
        <pt x="300" y="657" on="1"/>
        <pt x="455" y="200" on="1"/>
        <pt x="486" y="101" on="0"/>
        <pt x="487" y="96" on="1"/>
        <pt x="504" y="96" on="1"/>
        <pt x="507" y="153" on="0"/>
        <pt x="514" y="200" on="1"/>
        <pt x="580" y="690" on="1"/>
      </contour>
    </TTGlyph>
    <TTGlyph name="Nacute" xMin="42" yMin="0" xMax="679" yMax="918">
      <contour>
        <pt x="599" y="843" on="1"/>
        <pt x="386" y="726" on="1"/>
        <pt x="358" y="771" on="1"/>
        <pt x="554" y="918" on="1"/>
      </contour>
      <contour>
        <pt x="679" y="690" on="1"/>
        <pt x="587" y="37" on="1"/>
        <pt x="581" y="0" on="0"/>
        <pt x="547" y="0" on="1"/>
        <pt x="460" y="0" on="1"/>
        <pt x="432" y="0" on="0"/>
        <pt x="421" y="33" on="1"/>
        <pt x="260" y="503" on="1"/>
        <pt x="241" y="557" on="0"/>
        <pt x="233" y="597" on="1"/>
        <pt x="218" y="597" on="1"/>
        <pt x="217" y="555" on="0"/>
        <pt x="210" y="503" on="1"/>
        <pt x="142" y="0" on="1"/>
        <pt x="42" y="0" on="1"/>
        <pt x="133" y="653" on="1"/>
        <pt x="139" y="690" on="0"/>
        <pt x="175" y="690" on="1"/>
        <pt x="260" y="690" on="1"/>
        <pt x="287" y="690" on="0"/>
        <pt x="300" y="657" on="1"/>
        <pt x="455" y="200" on="1"/>
        <pt x="486" y="101" on="0"/>
        <pt x="487" y="96" on="1"/>
        <pt x="504" y="96" on="1"/>
        <pt x="507" y="153" on="0"/>
        <pt x="514" y="200" on="1"/>
        <pt x="580" y="690" on="1"/>
      </contour>
    </TTGlyph>
    <TTGlyph name="Ncaron" xMin="42" yMin="0" xMax="679" yMax="913">
      <contour>
        <pt x="610" y="871" on="1"/>
        <pt x="461" y="742" on="1"/>
        <pt x="391" y="742" on="1"/>
        <pt x="274" y="878" on="1"/>
        <pt x="313" y="913" on="1"/>
        <pt x="426" y="814" on="1"/>
        <pt x="434" y="814" on="1"/>
        <pt x="580" y="913" on="1"/>
      </contour>
      <contour>
        <pt x="679" y="690" on="1"/>
        <pt x="587" y="37" on="1"/>
        <pt x="581" y="0" on="0"/>
        <pt x="547" y="0" on="1"/>
        <pt x="460" y="0" on="1"/>
        <pt x="432" y="0" on="0"/>
        <pt x="421" y="33" on="1"/>
        <pt x="260" y="503" on="1"/>
        <pt x="241" y="557" on="0"/>
        <pt x="233" y="597" on="1"/>
        <pt x="218" y="597" on="1"/>
        <pt x="217" y="555" on="0"/>
        <pt x="210" y="503" on="1"/>
        <pt x="142" y="0" on="1"/>
        <pt x="42" y="0" on="1"/>
        <pt x="133" y="653" on="1"/>
        <pt x="139" y="690" on="0"/>
        <pt x="175" y="690" on="1"/>
        <pt x="260" y="690" on="1"/>
        <pt x="287" y="690" on="0"/>
        <pt x="300" y="657" on="1"/>
        <pt x="455" y="200" on="1"/>
        <pt x="486" y="101" on="0"/>
        <pt x="487" y="96" on="1"/>
        <pt x="504" y="96" on="1"/>
        <pt x="507" y="153" on="0"/>
        <pt x="514" y="200" on="1"/>
        <pt x="580" y="690" on="1"/>
      </contour>
    </TTGlyph>
    <TTGlyph name="Ncommaaccent" xMin="42" yMin="-278" xMax="679" yMax="690">
      <contour>
        <pt x="679" y="690" on="1"/>
        <pt x="587" y="37" on="1"/>
        <pt x="581" y="0" on="0"/>
        <pt x="547" y="0" on="1"/>
        <pt x="460" y="0" on="1"/>
        <pt x="432" y="0" on="0"/>
        <pt x="421" y="33" on="1"/>
        <pt x="260" y="503" on="1"/>
        <pt x="241" y="557" on="0"/>
        <pt x="233" y="597" on="1"/>
        <pt x="218" y="597" on="1"/>
        <pt x="217" y="555" on="0"/>
        <pt x="210" y="503" on="1"/>
        <pt x="142" y="0" on="1"/>
        <pt x="42" y="0" on="1"/>
        <pt x="133" y="653" on="1"/>
        <pt x="139" y="690" on="0"/>
        <pt x="175" y="690" on="1"/>
        <pt x="260" y="690" on="1"/>
        <pt x="287" y="690" on="0"/>
        <pt x="300" y="657" on="1"/>
        <pt x="455" y="200" on="1"/>
        <pt x="486" y="101" on="0"/>
        <pt x="487" y="96" on="1"/>
        <pt x="504" y="96" on="1"/>
        <pt x="507" y="153" on="0"/>
        <pt x="514" y="200" on="1"/>
        <pt x="580" y="690" on="1"/>
      </contour>
      <contour>
        <pt x="315" y="-58" on="1"/>
        <pt x="341" y="-58" on="1"/>
        <pt x="375" y="-58" on="0"/>
        <pt x="368" y="-89" on="1"/>
        <pt x="361" y="-144" on="1"/>
        <pt x="353" y="-203" on="0"/>
        <pt x="307" y="-278" on="1"/>
        <pt x="264" y="-264" on="1"/>
        <pt x="286" y="-201" on="0"/>
        <pt x="294" y="-161" on="1"/>
        <pt x="280" y="-162" on="0"/>
        <pt x="266" y="-147" on="0"/>
        <pt x="268" y="-135" on="1"/>
        <pt x="275" y="-86" on="1"/>
        <pt x="279" y="-69" on="0"/>
        <pt x="294" y="-58" on="0"/>
      </contour>
    </TTGlyph>
    <TTGlyph name="Ntilde" xMin="42" yMin="0" xMax="679" yMax="883">
      <contour>
        <pt x="310" y="761" on="1"/>
        <pt x="266" y="765" on="1"/>
        <pt x="267" y="825" on="0"/>
        <pt x="319" y="886" on="0"/>
        <pt x="356" y="883" on="1"/>
        <pt x="390" y="880" on="0"/>
        <pt x="475" y="832" on="0"/>
        <pt x="499" y="829" on="1"/>
        <pt x="527" y="826" on="0"/>
        <pt x="554" y="851" on="0"/>
        <pt x="558" y="879" on="1"/>
        <pt x="602" y="876" on="1"/>
        <pt x="601" y="818" on="0"/>
        <pt x="552" y="757" on="0"/>
        <pt x="474" y="763" on="0"/>
        <pt x="386" y="813" on="0"/>
        <pt x="368" y="815" on="1"/>
        <pt x="340" y="818" on="0"/>
        <pt x="314" y="791" on="0"/>
      </contour>
      <contour>
        <pt x="679" y="690" on="1"/>
        <pt x="587" y="37" on="1"/>
        <pt x="581" y="0" on="0"/>
        <pt x="547" y="0" on="1"/>
        <pt x="460" y="0" on="1"/>
        <pt x="432" y="0" on="0"/>
        <pt x="421" y="33" on="1"/>
        <pt x="260" y="503" on="1"/>
        <pt x="241" y="557" on="0"/>
        <pt x="233" y="597" on="1"/>
        <pt x="218" y="597" on="1"/>
        <pt x="217" y="555" on="0"/>
        <pt x="210" y="503" on="1"/>
        <pt x="142" y="0" on="1"/>
        <pt x="42" y="0" on="1"/>
        <pt x="133" y="653" on="1"/>
        <pt x="139" y="690" on="0"/>
        <pt x="175" y="690" on="1"/>
        <pt x="260" y="690" on="1"/>
        <pt x="287" y="690" on="0"/>
        <pt x="300" y="657" on="1"/>
        <pt x="455" y="200" on="1"/>
        <pt x="486" y="101" on="0"/>
        <pt x="487" y="96" on="1"/>
        <pt x="504" y="96" on="1"/>
        <pt x="507" y="153" on="0"/>
        <pt x="514" y="200" on="1"/>
        <pt x="580" y="690" on="1"/>
      </contour>
    </TTGlyph>
    <TTGlyph name="O" xMin="66" yMin="-13" xMax="616" yMax="703">
      <contour>
        <pt x="387" y="703" on="1"/>
        <pt x="534" y="703" on="0"/>
        <pt x="644" y="538" on="0"/>
        <pt x="616" y="341" on="1"/>
        <pt x="589" y="142" on="0"/>
        <pt x="448" y="-13" on="0"/>
        <pt x="299" y="-13" on="1"/>
        <pt x="152" y="-13" on="0"/>
        <pt x="39" y="150" on="0"/>
        <pt x="66" y="349" on="1"/>
        <pt x="92" y="545" on="0"/>
        <pt x="234" y="703" on="0"/>
      </contour>
      <contour>
        <pt x="382" y="614" on="1"/>
        <pt x="282" y="614" on="0"/>
        <pt x="193" y="499" on="0"/>
        <pt x="170" y="341" on="1"/>
        <pt x="149" y="189" on="0"/>
        <pt x="204" y="76" on="0"/>
        <pt x="301" y="76" on="1"/>
        <pt x="399" y="76" on="0"/>
        <pt x="490" y="193" on="0"/>
        <pt x="512" y="349" on="1"/>
        <pt x="534" y="504" on="0"/>
        <pt x="479" y="614" on="0"/>
      </contour>
    </TTGlyph>
    <TTGlyph name="OE" xMin="66" yMin="-13" xMax="930" yMax="703">
      <contour>
        <pt x="916" y="606" on="1"/>
        <pt x="646" y="606" on="1"/>
        <pt x="615" y="606" on="0"/>
        <pt x="583" y="576" on="0"/>
        <pt x="579" y="541" on="1"/>
        <pt x="560" y="402" on="1"/>
        <pt x="849" y="402" on="1"/>
        <pt x="839" y="323" on="1"/>
        <pt x="550" y="323" on="1"/>
        <pt x="525" y="146" on="1"/>
        <pt x="521" y="112" on="0"/>
        <pt x="544" y="84" on="0"/>
        <pt x="578" y="84" on="1"/>
        <pt x="843" y="84" on="1"/>
        <pt x="840" y="6" on="1"/>
        <pt x="755" y="-2" on="0"/>
        <pt x="566" y="-2" on="1"/>
        <pt x="505" y="-2" on="0"/>
        <pt x="467" y="22" on="1"/>
        <pt x="387" y="-13" on="0"/>
        <pt x="297" y="-13" on="1"/>
        <pt x="140" y="-13" on="0"/>
        <pt x="37" y="146" on="0"/>
        <pt x="66" y="349" on="1"/>
        <pt x="94" y="550" on="0"/>
        <pt x="234" y="703" on="0"/>
        <pt x="386" y="703" on="1"/>
        <pt x="477" y="703" on="0"/>
        <pt x="550" y="673" on="1"/>
        <pt x="586" y="692" on="0"/>
        <pt x="635" y="692" on="1"/>
        <pt x="840" y="692" on="0"/>
        <pt x="930" y="684" on="1"/>
      </contour>
      <contour>
        <pt x="424" y="143" on="1"/>
        <pt x="483" y="570" on="1"/>
        <pt x="487" y="592" on="0"/>
        <pt x="491" y="602" on="1"/>
        <pt x="440" y="614" on="0"/>
        <pt x="386" y="614" on="1"/>
        <pt x="285" y="614" on="0"/>
        <pt x="192" y="497" on="0"/>
        <pt x="170" y="341" on="1"/>
        <pt x="148" y="190" on="0"/>
        <pt x="203" y="76" on="0"/>
        <pt x="299" y="76" on="1"/>
        <pt x="367" y="76" on="0"/>
        <pt x="423" y="92" on="1"/>
        <pt x="420" y="118" on="0"/>
      </contour>
    </TTGlyph>
    <TTGlyph name="Oacute" xMin="66" yMin="-13" xMax="616" yMax="918">
      <contour>
        <pt x="573" y="843" on="1"/>
        <pt x="360" y="726" on="1"/>
        <pt x="331" y="771" on="1"/>
        <pt x="527" y="918" on="1"/>
      </contour>
      <contour>
        <pt x="387" y="703" on="1"/>
        <pt x="534" y="703" on="0"/>
        <pt x="644" y="538" on="0"/>
        <pt x="616" y="341" on="1"/>
        <pt x="589" y="142" on="0"/>
        <pt x="448" y="-13" on="0"/>
        <pt x="299" y="-13" on="1"/>
        <pt x="152" y="-13" on="0"/>
        <pt x="39" y="150" on="0"/>
        <pt x="66" y="349" on="1"/>
        <pt x="92" y="545" on="0"/>
        <pt x="234" y="703" on="0"/>
      </contour>
      <contour>
        <pt x="382" y="614" on="1"/>
        <pt x="282" y="614" on="0"/>
        <pt x="193" y="499" on="0"/>
        <pt x="170" y="341" on="1"/>
        <pt x="149" y="189" on="0"/>
        <pt x="204" y="76" on="0"/>
        <pt x="301" y="76" on="1"/>
        <pt x="399" y="76" on="0"/>
        <pt x="490" y="193" on="0"/>
        <pt x="512" y="349" on="1"/>
        <pt x="534" y="504" on="0"/>
        <pt x="479" y="614" on="0"/>
      </contour>
    </TTGlyph>
    <TTGlyph name="Ocircumflex" xMin="66" yMin="-13" xMax="616" yMax="899">
      <contour>
        <pt x="575" y="764" on="1"/>
        <pt x="539" y="726" on="1"/>
        <pt x="419" y="827" on="1"/>
        <pt x="411" y="827" on="1"/>
        <pt x="262" y="728" on="1"/>
        <pt x="234" y="770" on="1"/>
        <pt x="382" y="899" on="1"/>
        <pt x="450" y="899" on="1"/>
      </contour>
      <contour>
        <pt x="387" y="703" on="1"/>
        <pt x="534" y="703" on="0"/>
        <pt x="644" y="538" on="0"/>
        <pt x="616" y="341" on="1"/>
        <pt x="589" y="142" on="0"/>
        <pt x="448" y="-13" on="0"/>
        <pt x="299" y="-13" on="1"/>
        <pt x="152" y="-13" on="0"/>
        <pt x="39" y="150" on="0"/>
        <pt x="66" y="349" on="1"/>
        <pt x="92" y="545" on="0"/>
        <pt x="234" y="703" on="0"/>
      </contour>
      <contour>
        <pt x="382" y="614" on="1"/>
        <pt x="282" y="614" on="0"/>
        <pt x="193" y="499" on="0"/>
        <pt x="170" y="341" on="1"/>
        <pt x="149" y="189" on="0"/>
        <pt x="204" y="76" on="0"/>
        <pt x="301" y="76" on="1"/>
        <pt x="399" y="76" on="0"/>
        <pt x="490" y="193" on="0"/>
        <pt x="512" y="349" on="1"/>
        <pt x="534" y="504" on="0"/>
        <pt x="479" y="614" on="0"/>
      </contour>
    </TTGlyph>
    <TTGlyph name="Odieresis" xMin="66" yMin="-13" xMax="616" yMax="873">
      <contour>
        <pt x="484" y="873" on="1"/>
        <pt x="513" y="873" on="1"/>
        <pt x="542" y="873" on="0"/>
        <pt x="538" y="846" on="1"/>
        <pt x="529" y="791" on="1"/>
        <pt x="526" y="765" on="0"/>
        <pt x="500" y="765" on="1"/>
        <pt x="468" y="765" on="1"/>
        <pt x="441" y="765" on="0"/>
        <pt x="444" y="790" on="1"/>
        <pt x="453" y="846" on="1"/>
        <pt x="458" y="873" on="0"/>
      </contour>
      <contour>
        <pt x="317" y="873" on="1"/>
        <pt x="346" y="873" on="1"/>
        <pt x="362" y="873" on="0"/>
        <pt x="372" y="860" on="0"/>
        <pt x="370" y="846" on="1"/>
        <pt x="362" y="791" on="1"/>
        <pt x="359" y="765" on="0"/>
        <pt x="333" y="765" on="1"/>
        <pt x="301" y="765" on="1"/>
        <pt x="274" y="765" on="0"/>
        <pt x="277" y="790" on="1"/>
        <pt x="286" y="846" on="1"/>
        <pt x="289" y="873" on="0"/>
      </contour>
      <contour>
        <pt x="387" y="703" on="1"/>
        <pt x="534" y="703" on="0"/>
        <pt x="644" y="538" on="0"/>
        <pt x="616" y="341" on="1"/>
        <pt x="589" y="142" on="0"/>
        <pt x="448" y="-13" on="0"/>
        <pt x="299" y="-13" on="1"/>
        <pt x="152" y="-13" on="0"/>
        <pt x="39" y="150" on="0"/>
        <pt x="66" y="349" on="1"/>
        <pt x="92" y="545" on="0"/>
        <pt x="234" y="703" on="0"/>
      </contour>
      <contour>
        <pt x="382" y="614" on="1"/>
        <pt x="282" y="614" on="0"/>
        <pt x="193" y="499" on="0"/>
        <pt x="170" y="341" on="1"/>
        <pt x="149" y="189" on="0"/>
        <pt x="204" y="76" on="0"/>
        <pt x="301" y="76" on="1"/>
        <pt x="399" y="76" on="0"/>
        <pt x="490" y="193" on="0"/>
        <pt x="512" y="349" on="1"/>
        <pt x="534" y="504" on="0"/>
        <pt x="479" y="614" on="0"/>
      </contour>
    </TTGlyph>
    <TTGlyph name="Ograve" xMin="66" yMin="-13" xMax="616" yMax="917">
      <contour>
        <pt x="450" y="770" on="1"/>
        <pt x="416" y="726" on="1"/>
        <pt x="221" y="848" on="1"/>
        <pt x="273" y="917" on="1"/>
      </contour>
      <contour>
        <pt x="387" y="703" on="1"/>
        <pt x="534" y="703" on="0"/>
        <pt x="644" y="538" on="0"/>
        <pt x="616" y="341" on="1"/>
        <pt x="589" y="142" on="0"/>
        <pt x="448" y="-13" on="0"/>
        <pt x="299" y="-13" on="1"/>
        <pt x="152" y="-13" on="0"/>
        <pt x="39" y="150" on="0"/>
        <pt x="66" y="349" on="1"/>
        <pt x="92" y="545" on="0"/>
        <pt x="234" y="703" on="0"/>
      </contour>
      <contour>
        <pt x="382" y="614" on="1"/>
        <pt x="282" y="614" on="0"/>
        <pt x="193" y="499" on="0"/>
        <pt x="170" y="341" on="1"/>
        <pt x="149" y="189" on="0"/>
        <pt x="204" y="76" on="0"/>
        <pt x="301" y="76" on="1"/>
        <pt x="399" y="76" on="0"/>
        <pt x="490" y="193" on="0"/>
        <pt x="512" y="349" on="1"/>
        <pt x="534" y="504" on="0"/>
        <pt x="479" y="614" on="0"/>
      </contour>
    </TTGlyph>
    <TTGlyph name="Ohungarumlaut" xMin="66" yMin="-13" xMax="627" yMax="923">
      <contour>
        <pt x="627" y="881" on="1"/>
        <pt x="468" y="720" on="1"/>
        <pt x="429" y="752" on="1"/>
        <pt x="567" y="923" on="1"/>
      </contour>
      <contour>
        <pt x="458" y="881" on="1"/>
        <pt x="300" y="720" on="1"/>
        <pt x="259" y="752" on="1"/>
        <pt x="399" y="923" on="1"/>
      </contour>
      <contour>
        <pt x="387" y="703" on="1"/>
        <pt x="534" y="703" on="0"/>
        <pt x="644" y="538" on="0"/>
        <pt x="616" y="341" on="1"/>
        <pt x="589" y="142" on="0"/>
        <pt x="448" y="-13" on="0"/>
        <pt x="299" y="-13" on="1"/>
        <pt x="152" y="-13" on="0"/>
        <pt x="39" y="150" on="0"/>
        <pt x="66" y="349" on="1"/>
        <pt x="92" y="545" on="0"/>
        <pt x="234" y="703" on="0"/>
      </contour>
      <contour>
        <pt x="382" y="614" on="1"/>
        <pt x="282" y="614" on="0"/>
        <pt x="193" y="499" on="0"/>
        <pt x="170" y="341" on="1"/>
        <pt x="149" y="189" on="0"/>
        <pt x="204" y="76" on="0"/>
        <pt x="301" y="76" on="1"/>
        <pt x="399" y="76" on="0"/>
        <pt x="490" y="193" on="0"/>
        <pt x="512" y="349" on="1"/>
        <pt x="534" y="504" on="0"/>
        <pt x="479" y="614" on="0"/>
      </contour>
    </TTGlyph>
    <TTGlyph name="Omacron" xMin="66" yMin="-13" xMax="616" yMax="853">
      <contour>
        <pt x="543" y="782" on="1"/>
        <pt x="261" y="782" on="1"/>
        <pt x="271" y="853" on="1"/>
        <pt x="553" y="853" on="1"/>
      </contour>
      <contour>
        <pt x="387" y="703" on="1"/>
        <pt x="534" y="703" on="0"/>
        <pt x="644" y="538" on="0"/>
        <pt x="616" y="341" on="1"/>
        <pt x="589" y="142" on="0"/>
        <pt x="448" y="-13" on="0"/>
        <pt x="299" y="-13" on="1"/>
        <pt x="152" y="-13" on="0"/>
        <pt x="39" y="150" on="0"/>
        <pt x="66" y="349" on="1"/>
        <pt x="92" y="545" on="0"/>
        <pt x="234" y="703" on="0"/>
      </contour>
      <contour>
        <pt x="382" y="614" on="1"/>
        <pt x="282" y="614" on="0"/>
        <pt x="193" y="499" on="0"/>
        <pt x="170" y="341" on="1"/>
        <pt x="149" y="189" on="0"/>
        <pt x="204" y="76" on="0"/>
        <pt x="301" y="76" on="1"/>
        <pt x="399" y="76" on="0"/>
        <pt x="490" y="193" on="0"/>
        <pt x="512" y="349" on="1"/>
        <pt x="534" y="504" on="0"/>
        <pt x="479" y="614" on="0"/>
      </contour>
    </TTGlyph>
    <TTGlyph name="Omega" xMin="10" yMin="0" xMax="654" yMax="703">
      <contour>
        <pt x="21" y="88" on="1"/>
        <pt x="117" y="88" on="1"/>
        <pt x="150" y="88" on="0"/>
        <pt x="184" y="81" on="1"/>
        <pt x="123" y="141" on="0"/>
        <pt x="71" y="283" on="0"/>
        <pt x="85" y="380" on="1"/>
        <pt x="107" y="544" on="0"/>
        <pt x="262" y="703" on="0"/>
        <pt x="410" y="703" on="1"/>
        <pt x="701" y="703" on="0"/>
        <pt x="654" y="371" on="1"/>
        <pt x="638" y="264" on="0"/>
        <pt x="556" y="135" on="0"/>
        <pt x="470" y="80" on="1"/>
        <pt x="502" y="88" on="0"/>
        <pt x="535" y="88" on="1"/>
        <pt x="636" y="88" on="1"/>
        <pt x="625" y="0" on="1"/>
        <pt x="370" y="0" on="1"/>
        <pt x="379" y="85" on="1"/>
        <pt x="458" y="137" on="0"/>
        <pt x="534" y="264" on="0"/>
        <pt x="548" y="366" on="1"/>
        <pt x="567" y="500" on="0"/>
        <pt x="503" y="615" on="0"/>
        <pt x="406" y="615" on="1"/>
        <pt x="306" y="615" on="0"/>
        <pt x="207" y="495" on="0"/>
        <pt x="187" y="356" on="1"/>
        <pt x="172" y="252" on="0"/>
        <pt x="211" y="138" on="0"/>
        <pt x="274" y="83" on="1"/>
        <pt x="264" y="0" on="1"/>
        <pt x="10" y="0" on="1"/>
      </contour>
    </TTGlyph>
    <TTGlyph name="Oslash" xMin="66" yMin="-61" xMax="616" yMax="755">
      <contour>
        <pt x="605" y="728" on="1"/>
        <pt x="560" y="654" on="1"/>
        <pt x="649" y="575" on="0"/>
        <pt x="616" y="341" on="1"/>
        <pt x="589" y="142" on="0"/>
        <pt x="448" y="-13" on="0"/>
        <pt x="299" y="-13" on="1"/>
        <pt x="219" y="-13" on="0"/>
        <pt x="168" y="9" on="1"/>
        <pt x="125" y="-61" on="1"/>
        <pt x="80" y="-34" on="1"/>
        <pt x="123" y="37" on="1"/>
        <pt x="33" y="115" on="0"/>
        <pt x="66" y="349" on="1"/>
        <pt x="92" y="545" on="0"/>
        <pt x="234" y="703" on="0"/>
        <pt x="387" y="703" on="1"/>
        <pt x="463" y="703" on="0"/>
        <pt x="514" y="682" on="1"/>
        <pt x="559" y="755" on="1"/>
      </contour>
      <contour>
        <pt x="179" y="129" on="1"/>
        <pt x="465" y="600" on="1"/>
        <pt x="436" y="614" on="0"/>
        <pt x="382" y="614" on="1"/>
        <pt x="282" y="614" on="0"/>
        <pt x="193" y="499" on="0"/>
        <pt x="170" y="341" on="1"/>
        <pt x="147" y="184" on="0"/>
      </contour>
      <contour>
        <pt x="505" y="563" on="1"/>
        <pt x="218" y="91" on="1"/>
        <pt x="250" y="76" on="0"/>
        <pt x="301" y="76" on="1"/>
        <pt x="399" y="76" on="0"/>
        <pt x="490" y="193" on="0"/>
        <pt x="512" y="349" on="1"/>
        <pt x="534" y="509" on="0"/>
      </contour>
    </TTGlyph>
    <TTGlyph name="Otilde" xMin="66" yMin="-13" xMax="616" yMax="883">
      <contour>
        <pt x="283" y="761" on="1"/>
        <pt x="239" y="765" on="1"/>
        <pt x="241" y="825" on="0"/>
        <pt x="292" y="886" on="0"/>
        <pt x="329" y="883" on="1"/>
        <pt x="364" y="880" on="0"/>
        <pt x="449" y="832" on="0"/>
        <pt x="472" y="829" on="1"/>
        <pt x="501" y="826" on="0"/>
        <pt x="528" y="851" on="0"/>
        <pt x="532" y="879" on="1"/>
        <pt x="576" y="876" on="1"/>
        <pt x="575" y="818" on="0"/>
        <pt x="525" y="757" on="0"/>
        <pt x="447" y="763" on="0"/>
        <pt x="359" y="813" on="0"/>
        <pt x="342" y="815" on="1"/>
        <pt x="314" y="818" on="0"/>
        <pt x="287" y="791" on="0"/>
      </contour>
      <contour>
        <pt x="387" y="703" on="1"/>
        <pt x="534" y="703" on="0"/>
        <pt x="644" y="538" on="0"/>
        <pt x="616" y="341" on="1"/>
        <pt x="589" y="142" on="0"/>
        <pt x="448" y="-13" on="0"/>
        <pt x="299" y="-13" on="1"/>
        <pt x="152" y="-13" on="0"/>
        <pt x="39" y="150" on="0"/>
        <pt x="66" y="349" on="1"/>
        <pt x="92" y="545" on="0"/>
        <pt x="234" y="703" on="0"/>
      </contour>
      <contour>
        <pt x="382" y="614" on="1"/>
        <pt x="282" y="614" on="0"/>
        <pt x="193" y="499" on="0"/>
        <pt x="170" y="341" on="1"/>
        <pt x="149" y="189" on="0"/>
        <pt x="204" y="76" on="0"/>
        <pt x="301" y="76" on="1"/>
        <pt x="399" y="76" on="0"/>
        <pt x="490" y="193" on="0"/>
        <pt x="512" y="349" on="1"/>
        <pt x="534" y="504" on="0"/>
        <pt x="479" y="614" on="0"/>
      </contour>
    </TTGlyph>
    <TTGlyph name="P" xMin="42" yMin="0" xMax="575" yMax="699">
      <contour>
        <pt x="42" y="0" on="1"/>
        <pt x="139" y="690" on="1"/>
        <pt x="225" y="699" on="0"/>
        <pt x="376" y="699" on="1"/>
        <pt x="499" y="699" on="0"/>
        <pt x="592" y="597" on="0"/>
        <pt x="575" y="477" on="1"/>
        <pt x="565" y="409" on="0"/>
        <pt x="531" y="326" on="0"/>
        <pt x="470" y="279" on="0"/>
        <pt x="390" y="262" on="0"/>
        <pt x="327" y="262" on="1"/>
        <pt x="266" y="262" on="0"/>
        <pt x="180" y="272" on="1"/>
        <pt x="142" y="0" on="1"/>
      </contour>
      <contour>
        <pt x="191" y="348" on="1"/>
        <pt x="323" y="348" on="1"/>
        <pt x="402" y="348" on="0"/>
        <pt x="464" y="404" on="0"/>
        <pt x="476" y="485" on="1"/>
        <pt x="487" y="561" on="0"/>
        <pt x="441" y="613" on="0"/>
        <pt x="372" y="613" on="1"/>
        <pt x="267" y="613" on="0"/>
        <pt x="228" y="612" on="1"/>
      </contour>
    </TTGlyph>
    <TTGlyph name="Q" xMin="66" yMin="-218" xMax="616" yMax="703">
      <contour>
        <pt x="387" y="703" on="1"/>
        <pt x="534" y="703" on="0"/>
        <pt x="644" y="538" on="0"/>
        <pt x="616" y="341" on="1"/>
        <pt x="589" y="142" on="0"/>
        <pt x="448" y="-13" on="0"/>
        <pt x="299" y="-13" on="1"/>
        <pt x="152" y="-13" on="0"/>
        <pt x="39" y="150" on="0"/>
        <pt x="66" y="349" on="1"/>
        <pt x="92" y="545" on="0"/>
        <pt x="234" y="703" on="0"/>
      </contour>
      <contour>
        <pt x="382" y="614" on="1"/>
        <pt x="282" y="614" on="0"/>
        <pt x="193" y="499" on="0"/>
        <pt x="170" y="341" on="1"/>
        <pt x="149" y="189" on="0"/>
        <pt x="204" y="76" on="0"/>
        <pt x="301" y="76" on="1"/>
        <pt x="399" y="76" on="0"/>
        <pt x="490" y="193" on="0"/>
        <pt x="512" y="349" on="1"/>
        <pt x="534" y="504" on="0"/>
        <pt x="479" y="614" on="0"/>
      </contour>
      <contour>
        <pt x="203" y="-102" on="1"/>
        <pt x="241" y="-42" on="1"/>
        <pt x="355" y="-95" on="0"/>
        <pt x="507" y="-119" on="1"/>
        <pt x="467" y="-218" on="1"/>
        <pt x="323" y="-183" on="0"/>
      </contour>
    </TTGlyph>
    <TTGlyph name="R" xMin="42" yMin="0" xMax="580" yMax="699">
      <contour>
        <pt x="42" y="0" on="1"/>
        <pt x="139" y="690" on="1"/>
        <pt x="225" y="699" on="0"/>
        <pt x="376" y="699" on="1"/>
        <pt x="490" y="699" on="0"/>
        <pt x="595" y="608" on="0"/>
        <pt x="580" y="495" on="1"/>
        <pt x="569" y="416" on="0"/>
        <pt x="497" y="332" on="0"/>
        <pt x="426" y="323" on="1"/>
        <pt x="425" y="317" on="1"/>
        <pt x="485" y="300" on="0"/>
        <pt x="500" y="216" on="1"/>
        <pt x="544" y="0" on="1"/>
        <pt x="442" y="0" on="1"/>
        <pt x="401" y="217" on="1"/>
        <pt x="394" y="254" on="0"/>
        <pt x="360" y="284" on="0"/>
        <pt x="327" y="284" on="1"/>
        <pt x="180" y="285" on="1"/>
        <pt x="140" y="0" on="1"/>
      </contour>
      <contour>
        <pt x="192" y="370" on="1"/>
        <pt x="330" y="370" on="1"/>
        <pt x="403" y="371" on="0"/>
        <pt x="469" y="425" on="0"/>
        <pt x="479" y="497" on="1"/>
        <pt x="489" y="564" on="0"/>
        <pt x="444" y="613" on="0"/>
        <pt x="373" y="613" on="1"/>
        <pt x="265" y="613" on="0"/>
        <pt x="226" y="612" on="1"/>
      </contour>
    </TTGlyph>
    <TTGlyph name="Racute" xMin="42" yMin="0" xMax="580" yMax="918">
      <contour>
        <pt x="329" y="726" on="1"/>
        <pt x="300" y="771" on="1"/>
        <pt x="496" y="918" on="1"/>
        <pt x="542" y="843" on="1"/>
      </contour>
      <contour>
        <pt x="42" y="0" on="1"/>
        <pt x="139" y="690" on="1"/>
        <pt x="225" y="699" on="0"/>
        <pt x="376" y="699" on="1"/>
        <pt x="490" y="699" on="0"/>
        <pt x="595" y="608" on="0"/>
        <pt x="580" y="495" on="1"/>
        <pt x="569" y="416" on="0"/>
        <pt x="497" y="332" on="0"/>
        <pt x="426" y="323" on="1"/>
        <pt x="425" y="317" on="1"/>
        <pt x="485" y="300" on="0"/>
        <pt x="500" y="216" on="1"/>
        <pt x="544" y="0" on="1"/>
        <pt x="442" y="0" on="1"/>
        <pt x="401" y="217" on="1"/>
        <pt x="394" y="254" on="0"/>
        <pt x="360" y="284" on="0"/>
        <pt x="327" y="284" on="1"/>
        <pt x="180" y="285" on="1"/>
        <pt x="140" y="0" on="1"/>
      </contour>
      <contour>
        <pt x="192" y="370" on="1"/>
        <pt x="330" y="370" on="1"/>
        <pt x="403" y="371" on="0"/>
        <pt x="469" y="425" on="0"/>
        <pt x="479" y="497" on="1"/>
        <pt x="489" y="564" on="0"/>
        <pt x="444" y="613" on="0"/>
        <pt x="373" y="613" on="1"/>
        <pt x="265" y="613" on="0"/>
        <pt x="226" y="612" on="1"/>
      </contour>
    </TTGlyph>
    <TTGlyph name="Rcaron" xMin="42" yMin="0" xMax="580" yMax="913">
      <contour>
        <pt x="333" y="742" on="1"/>
        <pt x="216" y="878" on="1"/>
        <pt x="255" y="913" on="1"/>
        <pt x="368" y="814" on="1"/>
        <pt x="376" y="814" on="1"/>
        <pt x="523" y="913" on="1"/>
        <pt x="552" y="871" on="1"/>
        <pt x="403" y="742" on="1"/>
      </contour>
      <contour>
        <pt x="42" y="0" on="1"/>
        <pt x="139" y="690" on="1"/>
        <pt x="225" y="699" on="0"/>
        <pt x="376" y="699" on="1"/>
        <pt x="490" y="699" on="0"/>
        <pt x="595" y="608" on="0"/>
        <pt x="580" y="495" on="1"/>
        <pt x="569" y="416" on="0"/>
        <pt x="497" y="332" on="0"/>
        <pt x="426" y="323" on="1"/>
        <pt x="425" y="317" on="1"/>
        <pt x="485" y="300" on="0"/>
        <pt x="500" y="216" on="1"/>
        <pt x="544" y="0" on="1"/>
        <pt x="442" y="0" on="1"/>
        <pt x="401" y="217" on="1"/>
        <pt x="394" y="254" on="0"/>
        <pt x="360" y="284" on="0"/>
        <pt x="327" y="284" on="1"/>
        <pt x="180" y="285" on="1"/>
        <pt x="140" y="0" on="1"/>
      </contour>
      <contour>
        <pt x="192" y="370" on="1"/>
        <pt x="330" y="370" on="1"/>
        <pt x="403" y="371" on="0"/>
        <pt x="469" y="425" on="0"/>
        <pt x="479" y="497" on="1"/>
        <pt x="489" y="564" on="0"/>
        <pt x="444" y="613" on="0"/>
        <pt x="373" y="613" on="1"/>
        <pt x="265" y="613" on="0"/>
        <pt x="226" y="612" on="1"/>
      </contour>
    </TTGlyph>
    <TTGlyph name="Rcommaaccent" xMin="42" yMin="-278" xMax="580" yMax="699">
      <contour>
        <pt x="42" y="0" on="1"/>
        <pt x="139" y="690" on="1"/>
        <pt x="225" y="699" on="0"/>
        <pt x="376" y="699" on="1"/>
        <pt x="490" y="699" on="0"/>
        <pt x="595" y="608" on="0"/>
        <pt x="580" y="495" on="1"/>
        <pt x="569" y="416" on="0"/>
        <pt x="497" y="332" on="0"/>
        <pt x="426" y="323" on="1"/>
        <pt x="425" y="317" on="1"/>
        <pt x="485" y="300" on="0"/>
        <pt x="500" y="216" on="1"/>
        <pt x="544" y="0" on="1"/>
        <pt x="442" y="0" on="1"/>
        <pt x="401" y="217" on="1"/>
        <pt x="394" y="254" on="0"/>
        <pt x="360" y="284" on="0"/>
        <pt x="327" y="284" on="1"/>
        <pt x="180" y="285" on="1"/>
        <pt x="140" y="0" on="1"/>
      </contour>
      <contour>
        <pt x="192" y="370" on="1"/>
        <pt x="330" y="370" on="1"/>
        <pt x="403" y="371" on="0"/>
        <pt x="469" y="425" on="0"/>
        <pt x="479" y="497" on="1"/>
        <pt x="489" y="564" on="0"/>
        <pt x="444" y="613" on="0"/>
        <pt x="373" y="613" on="1"/>
        <pt x="265" y="613" on="0"/>
        <pt x="226" y="612" on="1"/>
      </contour>
      <contour>
        <pt x="295" y="-58" on="1"/>
        <pt x="321" y="-58" on="1"/>
        <pt x="355" y="-58" on="0"/>
        <pt x="349" y="-89" on="1"/>
        <pt x="341" y="-144" on="1"/>
        <pt x="333" y="-203" on="0"/>
        <pt x="287" y="-278" on="1"/>
        <pt x="244" y="-264" on="1"/>
        <pt x="268" y="-195" on="0"/>
        <pt x="275" y="-161" on="1"/>
        <pt x="261" y="-162" on="0"/>
        <pt x="246" y="-148" on="0"/>
        <pt x="248" y="-135" on="1"/>
        <pt x="255" y="-86" on="1"/>
        <pt x="259" y="-69" on="0"/>
        <pt x="274" y="-58" on="0"/>
      </contour>
    </TTGlyph>
    <TTGlyph name="S" xMin="24" yMin="-12" xMax="539" yMax="702">
      <contour>
        <pt x="332" y="283" on="1"/>
        <pt x="197" y="331" on="1"/>
        <pt x="126" y="357" on="0"/>
        <pt x="74" y="451" on="0"/>
        <pt x="85" y="526" on="1"/>
        <pt x="93" y="583" on="0"/>
        <pt x="131" y="655" on="0"/>
        <pt x="198" y="690" on="0"/>
        <pt x="273" y="702" on="0"/>
        <pt x="332" y="702" on="1"/>
        <pt x="452" y="702" on="0"/>
        <pt x="539" y="680" on="1"/>
        <pt x="528" y="608" on="1"/>
        <pt x="425" y="613" on="0"/>
        <pt x="332" y="613" on="1"/>
        <pt x="298" y="613" on="0"/>
        <pt x="267" y="612" on="0"/>
        <pt x="225" y="603" on="0"/>
        <pt x="206" y="583" on="0"/>
        <pt x="189" y="545" on="0"/>
        <pt x="185" y="516" on="1"/>
        <pt x="179" y="467" on="0"/>
        <pt x="204" y="431" on="0"/>
        <pt x="251" y="414" on="1"/>
        <pt x="383" y="367" on="1"/>
        <pt x="459" y="340" on="0"/>
        <pt x="508" y="251" on="0"/>
        <pt x="497" y="171" on="1"/>
        <pt x="482" y="61" on="0"/>
        <pt x="369" y="-12" on="0"/>
        <pt x="237" y="-12" on="1"/>
        <pt x="128" y="-12" on="0"/>
        <pt x="24" y="8" on="1"/>
        <pt x="37" y="82" on="1"/>
        <pt x="193" y="77" on="0"/>
        <pt x="236" y="77" on="1"/>
        <pt x="324" y="78" on="0"/>
        <pt x="388" y="115" on="0"/>
        <pt x="397" y="181" on="1"/>
        <pt x="403" y="230" on="0"/>
        <pt x="377" y="267" on="0"/>
      </contour>
    </TTGlyph>
    <TTGlyph name="Sacute" xMin="24" yMin="-12" xMax="539" yMax="918">
      <contour>
        <pt x="516" y="843" on="1"/>
        <pt x="303" y="726" on="1"/>
        <pt x="275" y="771" on="1"/>
        <pt x="471" y="918" on="1"/>
      </contour>
      <contour>
        <pt x="332" y="283" on="1"/>
        <pt x="197" y="331" on="1"/>
        <pt x="126" y="357" on="0"/>
        <pt x="74" y="451" on="0"/>
        <pt x="85" y="526" on="1"/>
        <pt x="93" y="583" on="0"/>
        <pt x="131" y="655" on="0"/>
        <pt x="198" y="690" on="0"/>
        <pt x="273" y="702" on="0"/>
        <pt x="332" y="702" on="1"/>
        <pt x="452" y="702" on="0"/>
        <pt x="539" y="680" on="1"/>
        <pt x="528" y="608" on="1"/>
        <pt x="425" y="613" on="0"/>
        <pt x="332" y="613" on="1"/>
        <pt x="298" y="613" on="0"/>
        <pt x="267" y="612" on="0"/>
        <pt x="225" y="603" on="0"/>
        <pt x="206" y="583" on="0"/>
        <pt x="189" y="545" on="0"/>
        <pt x="185" y="516" on="1"/>
        <pt x="179" y="467" on="0"/>
        <pt x="204" y="431" on="0"/>
        <pt x="251" y="414" on="1"/>
        <pt x="383" y="367" on="1"/>
        <pt x="459" y="340" on="0"/>
        <pt x="508" y="251" on="0"/>
        <pt x="497" y="171" on="1"/>
        <pt x="482" y="61" on="0"/>
        <pt x="369" y="-12" on="0"/>
        <pt x="237" y="-12" on="1"/>
        <pt x="128" y="-12" on="0"/>
        <pt x="24" y="8" on="1"/>
        <pt x="37" y="82" on="1"/>
        <pt x="193" y="77" on="0"/>
        <pt x="236" y="77" on="1"/>
        <pt x="324" y="78" on="0"/>
        <pt x="388" y="115" on="0"/>
        <pt x="397" y="181" on="1"/>
        <pt x="403" y="230" on="0"/>
        <pt x="377" y="267" on="0"/>
      </contour>
    </TTGlyph>
    <TTGlyph name="Scaron" xMin="24" yMin="-12" xMax="539" yMax="913">
      <contour>
        <pt x="527" y="871" on="1"/>
        <pt x="378" y="742" on="1"/>
        <pt x="308" y="742" on="1"/>
        <pt x="191" y="878" on="1"/>
        <pt x="230" y="913" on="1"/>
        <pt x="343" y="814" on="1"/>
        <pt x="351" y="814" on="1"/>
        <pt x="497" y="913" on="1"/>
      </contour>
      <contour>
        <pt x="332" y="283" on="1"/>
        <pt x="197" y="331" on="1"/>
        <pt x="126" y="357" on="0"/>
        <pt x="74" y="451" on="0"/>
        <pt x="85" y="526" on="1"/>
        <pt x="93" y="583" on="0"/>
        <pt x="131" y="655" on="0"/>
        <pt x="198" y="690" on="0"/>
        <pt x="273" y="702" on="0"/>
        <pt x="332" y="702" on="1"/>
        <pt x="452" y="702" on="0"/>
        <pt x="539" y="680" on="1"/>
        <pt x="528" y="608" on="1"/>
        <pt x="425" y="613" on="0"/>
        <pt x="332" y="613" on="1"/>
        <pt x="298" y="613" on="0"/>
        <pt x="267" y="612" on="0"/>
        <pt x="225" y="603" on="0"/>
        <pt x="206" y="583" on="0"/>
        <pt x="189" y="545" on="0"/>
        <pt x="185" y="516" on="1"/>
        <pt x="179" y="467" on="0"/>
        <pt x="204" y="431" on="0"/>
        <pt x="251" y="414" on="1"/>
        <pt x="383" y="367" on="1"/>
        <pt x="459" y="340" on="0"/>
        <pt x="508" y="251" on="0"/>
        <pt x="497" y="171" on="1"/>
        <pt x="482" y="61" on="0"/>
        <pt x="369" y="-12" on="0"/>
        <pt x="237" y="-12" on="1"/>
        <pt x="128" y="-12" on="0"/>
        <pt x="24" y="8" on="1"/>
        <pt x="37" y="82" on="1"/>
        <pt x="193" y="77" on="0"/>
        <pt x="236" y="77" on="1"/>
        <pt x="324" y="78" on="0"/>
        <pt x="388" y="115" on="0"/>
        <pt x="397" y="181" on="1"/>
        <pt x="403" y="230" on="0"/>
        <pt x="377" y="267" on="0"/>
      </contour>
    </TTGlyph>
    <TTGlyph name="Scedilla" xMin="24" yMin="-243" xMax="539" yMax="702">
      <contour>
        <pt x="332" y="283" on="1"/>
        <pt x="197" y="331" on="1"/>
        <pt x="126" y="357" on="0"/>
        <pt x="74" y="451" on="0"/>
        <pt x="85" y="526" on="1"/>
        <pt x="93" y="583" on="0"/>
        <pt x="131" y="655" on="0"/>
        <pt x="198" y="690" on="0"/>
        <pt x="273" y="702" on="0"/>
        <pt x="332" y="702" on="1"/>
        <pt x="452" y="702" on="0"/>
        <pt x="539" y="680" on="1"/>
        <pt x="528" y="608" on="1"/>
        <pt x="425" y="613" on="0"/>
        <pt x="332" y="613" on="1"/>
        <pt x="298" y="613" on="0"/>
        <pt x="267" y="612" on="0"/>
        <pt x="225" y="603" on="0"/>
        <pt x="206" y="583" on="0"/>
        <pt x="189" y="545" on="0"/>
        <pt x="185" y="516" on="1"/>
        <pt x="179" y="467" on="0"/>
        <pt x="204" y="431" on="0"/>
        <pt x="251" y="414" on="1"/>
        <pt x="383" y="367" on="1"/>
        <pt x="459" y="340" on="0"/>
        <pt x="508" y="251" on="0"/>
        <pt x="497" y="171" on="1"/>
        <pt x="482" y="61" on="0"/>
        <pt x="369" y="-12" on="0"/>
        <pt x="237" y="-12" on="1"/>
        <pt x="128" y="-12" on="0"/>
        <pt x="24" y="8" on="1"/>
        <pt x="37" y="82" on="1"/>
        <pt x="193" y="77" on="0"/>
        <pt x="236" y="77" on="1"/>
        <pt x="324" y="78" on="0"/>
        <pt x="388" y="115" on="0"/>
        <pt x="397" y="181" on="1"/>
        <pt x="403" y="230" on="0"/>
        <pt x="377" y="267" on="0"/>
      </contour>
      <contour>
        <pt x="177" y="-99" on="1"/>
        <pt x="189" y="-54" on="1"/>
        <pt x="255" y="-48" on="0"/>
        <pt x="308" y="-76" on="0"/>
        <pt x="300" y="-123" on="1"/>
        <pt x="289" y="-187" on="0"/>
        <pt x="184" y="-253" on="0"/>
        <pt x="112" y="-243" on="1"/>
        <pt x="130" y="-192" on="1"/>
        <pt x="168" y="-193" on="0"/>
        <pt x="225" y="-154" on="0"/>
        <pt x="231" y="-123" on="1"/>
        <pt x="233" y="-108" on="0"/>
        <pt x="213" y="-99" on="0"/>
      </contour>
    </TTGlyph>
    <TTGlyph name="Scommaaccent" xMin="24" yMin="-278" xMax="539" yMax="702">
      <contour>
        <pt x="332" y="283" on="1"/>
        <pt x="197" y="331" on="1"/>
        <pt x="126" y="357" on="0"/>
        <pt x="74" y="451" on="0"/>
        <pt x="85" y="526" on="1"/>
        <pt x="93" y="583" on="0"/>
        <pt x="131" y="655" on="0"/>
        <pt x="198" y="690" on="0"/>
        <pt x="273" y="702" on="0"/>
        <pt x="332" y="702" on="1"/>
        <pt x="452" y="702" on="0"/>
        <pt x="539" y="680" on="1"/>
        <pt x="528" y="608" on="1"/>
        <pt x="425" y="613" on="0"/>
        <pt x="332" y="613" on="1"/>
        <pt x="298" y="613" on="0"/>
        <pt x="267" y="612" on="0"/>
        <pt x="225" y="603" on="0"/>
        <pt x="206" y="583" on="0"/>
        <pt x="189" y="545" on="0"/>
        <pt x="185" y="516" on="1"/>
        <pt x="179" y="467" on="0"/>
        <pt x="204" y="431" on="0"/>
        <pt x="251" y="414" on="1"/>
        <pt x="383" y="367" on="1"/>
        <pt x="459" y="340" on="0"/>
        <pt x="508" y="251" on="0"/>
        <pt x="497" y="171" on="1"/>
        <pt x="482" y="61" on="0"/>
        <pt x="369" y="-12" on="0"/>
        <pt x="237" y="-12" on="1"/>
        <pt x="128" y="-12" on="0"/>
        <pt x="24" y="8" on="1"/>
        <pt x="37" y="82" on="1"/>
        <pt x="193" y="77" on="0"/>
        <pt x="236" y="77" on="1"/>
        <pt x="324" y="78" on="0"/>
        <pt x="388" y="115" on="0"/>
        <pt x="397" y="181" on="1"/>
        <pt x="403" y="230" on="0"/>
        <pt x="377" y="267" on="0"/>
      </contour>
      <contour>
        <pt x="247" y="-58" on="1"/>
        <pt x="273" y="-58" on="1"/>
        <pt x="307" y="-58" on="0"/>
        <pt x="301" y="-89" on="1"/>
        <pt x="293" y="-144" on="1"/>
        <pt x="285" y="-203" on="0"/>
        <pt x="239" y="-278" on="1"/>
        <pt x="196" y="-264" on="1"/>
        <pt x="220" y="-195" on="0"/>
        <pt x="227" y="-161" on="1"/>
        <pt x="213" y="-162" on="0"/>
        <pt x="198" y="-148" on="0"/>
        <pt x="200" y="-135" on="1"/>
        <pt x="207" y="-86" on="1"/>
        <pt x="211" y="-69" on="0"/>
        <pt x="227" y="-58" on="0"/>
      </contour>
    </TTGlyph>
    <TTGlyph name="T" xMin="63" yMin="0" xMax="612" yMax="690">
      <contour>
        <pt x="600" y="601" on="1"/>
        <pt x="381" y="601" on="1"/>
        <pt x="296" y="0" on="1"/>
        <pt x="196" y="0" on="1"/>
        <pt x="281" y="601" on="1"/>
        <pt x="63" y="601" on="1"/>
        <pt x="76" y="690" on="1"/>
        <pt x="612" y="690" on="1"/>
      </contour>
    </TTGlyph>
    <TTGlyph name="Tbar" xMin="63" yMin="0" xMax="612" yMax="690">
      <contour>
        <pt x="381" y="601" on="1"/>
        <pt x="355" y="415" on="1"/>
        <pt x="499" y="415" on="1"/>
        <pt x="492" y="361" on="1"/>
        <pt x="347" y="361" on="1"/>
        <pt x="296" y="0" on="1"/>
        <pt x="196" y="0" on="1"/>
        <pt x="247" y="361" on="1"/>
        <pt x="116" y="361" on="1"/>
        <pt x="123" y="415" on="1"/>
        <pt x="255" y="415" on="1"/>
        <pt x="281" y="601" on="1"/>
        <pt x="63" y="601" on="1"/>
        <pt x="76" y="690" on="1"/>
        <pt x="612" y="690" on="1"/>
        <pt x="600" y="601" on="1"/>
      </contour>
    </TTGlyph>
    <TTGlyph name="Tcaron" xMin="63" yMin="0" xMax="612" yMax="913">
      <contour>
        <pt x="319" y="742" on="1"/>
        <pt x="202" y="878" on="1"/>
        <pt x="241" y="913" on="1"/>
        <pt x="353" y="814" on="1"/>
        <pt x="361" y="814" on="1"/>
        <pt x="508" y="913" on="1"/>
        <pt x="538" y="871" on="1"/>
        <pt x="389" y="742" on="1"/>
      </contour>
      <contour>
        <pt x="600" y="601" on="1"/>
        <pt x="381" y="601" on="1"/>
        <pt x="296" y="0" on="1"/>
        <pt x="196" y="0" on="1"/>
        <pt x="281" y="601" on="1"/>
        <pt x="63" y="601" on="1"/>
        <pt x="76" y="690" on="1"/>
        <pt x="612" y="690" on="1"/>
      </contour>
    </TTGlyph>
    <TTGlyph name="Tcedilla" xMin="63" yMin="-231" xMax="612" yMax="690">
      <contour>
        <pt x="600" y="601" on="1"/>
        <pt x="381" y="601" on="1"/>
        <pt x="296" y="0" on="1"/>
        <pt x="196" y="0" on="1"/>
        <pt x="281" y="601" on="1"/>
        <pt x="63" y="601" on="1"/>
        <pt x="76" y="690" on="1"/>
        <pt x="612" y="690" on="1"/>
      </contour>
      <contour>
        <pt x="177" y="-87" on="1"/>
        <pt x="189" y="-42" on="1"/>
        <pt x="255" y="-36" on="0"/>
        <pt x="308" y="-64" on="0"/>
        <pt x="300" y="-111" on="1"/>
        <pt x="289" y="-175" on="0"/>
        <pt x="184" y="-241" on="0"/>
        <pt x="112" y="-231" on="1"/>
        <pt x="130" y="-180" on="1"/>
        <pt x="168" y="-181" on="0"/>
        <pt x="225" y="-143" on="0"/>
        <pt x="231" y="-111" on="1"/>
        <pt x="233" y="-97" on="0"/>
        <pt x="214" y="-88" on="0"/>
      </contour>
    </TTGlyph>
    <TTGlyph name="Thorn" xMin="42" yMin="0" xMax="556" yMax="690">
      <contour>
        <pt x="239" y="690" on="1"/>
        <pt x="222" y="568" on="1"/>
        <pt x="259" y="570" on="0"/>
        <pt x="357" y="570" on="1"/>
        <pt x="477" y="570" on="0"/>
        <pt x="574" y="471" on="0"/>
        <pt x="538" y="219" on="0"/>
        <pt x="432" y="128" on="0"/>
        <pt x="317" y="128" on="1"/>
        <pt x="238" y="128" on="0"/>
        <pt x="161" y="137" on="1"/>
        <pt x="142" y="0" on="1"/>
        <pt x="42" y="0" on="1"/>
        <pt x="139" y="690" on="1"/>
      </contour>
      <contour>
        <pt x="172" y="214" on="1"/>
        <pt x="305" y="214" on="1"/>
        <pt x="381" y="215" on="0"/>
        <pt x="445" y="271" on="0"/>
        <pt x="457" y="352" on="1"/>
        <pt x="467" y="432" on="0"/>
        <pt x="426" y="484" on="0"/>
        <pt x="354" y="484" on="1"/>
        <pt x="249" y="484" on="0"/>
        <pt x="210" y="483" on="1"/>
      </contour>
    </TTGlyph>
    <TTGlyph name="U" xMin="75" yMin="-13" xMax="642" yMax="690">
      <contour>
        <pt x="642" y="690" on="1"/>
        <pt x="581" y="264" on="1"/>
        <pt x="560" y="113" on="0"/>
        <pt x="430" y="-13" on="0"/>
        <pt x="299" y="-13" on="1"/>
        <pt x="164" y="-13" on="0"/>
        <pt x="54" y="119" on="0"/>
        <pt x="75" y="269" on="1"/>
        <pt x="133" y="690" on="1"/>
        <pt x="234" y="690" on="1"/>
        <pt x="174" y="264" on="1"/>
        <pt x="159" y="158" on="0"/>
        <pt x="212" y="76" on="0"/>
        <pt x="296" y="76" on="1"/>
        <pt x="383" y="76" on="0"/>
        <pt x="467" y="162" on="0"/>
        <pt x="482" y="269" on="1"/>
        <pt x="541" y="690" on="1"/>
      </contour>
    </TTGlyph>
    <TTGlyph name="Uacute" xMin="75" yMin="-13" xMax="642" yMax="918">
      <contour>
        <pt x="572" y="843" on="1"/>
        <pt x="359" y="726" on="1"/>
        <pt x="330" y="771" on="1"/>
        <pt x="526" y="918" on="1"/>
      </contour>
      <contour>
        <pt x="642" y="690" on="1"/>
        <pt x="581" y="264" on="1"/>
        <pt x="560" y="113" on="0"/>
        <pt x="430" y="-13" on="0"/>
        <pt x="299" y="-13" on="1"/>
        <pt x="164" y="-13" on="0"/>
        <pt x="54" y="119" on="0"/>
        <pt x="75" y="269" on="1"/>
        <pt x="133" y="690" on="1"/>
        <pt x="234" y="690" on="1"/>
        <pt x="174" y="264" on="1"/>
        <pt x="159" y="158" on="0"/>
        <pt x="212" y="76" on="0"/>
        <pt x="296" y="76" on="1"/>
        <pt x="383" y="76" on="0"/>
        <pt x="467" y="162" on="0"/>
        <pt x="482" y="269" on="1"/>
        <pt x="541" y="690" on="1"/>
      </contour>
    </TTGlyph>
    <TTGlyph name="Ucircumflex" xMin="75" yMin="-13" xMax="642" yMax="899">
      <contour>
        <pt x="574" y="764" on="1"/>
        <pt x="538" y="726" on="1"/>
        <pt x="418" y="827" on="1"/>
        <pt x="410" y="827" on="1"/>
        <pt x="261" y="728" on="1"/>
        <pt x="233" y="770" on="1"/>
        <pt x="381" y="899" on="1"/>
        <pt x="449" y="899" on="1"/>
      </contour>
      <contour>
        <pt x="642" y="690" on="1"/>
        <pt x="581" y="264" on="1"/>
        <pt x="560" y="113" on="0"/>
        <pt x="430" y="-13" on="0"/>
        <pt x="299" y="-13" on="1"/>
        <pt x="164" y="-13" on="0"/>
        <pt x="54" y="119" on="0"/>
        <pt x="75" y="269" on="1"/>
        <pt x="133" y="690" on="1"/>
        <pt x="234" y="690" on="1"/>
        <pt x="174" y="264" on="1"/>
        <pt x="159" y="158" on="0"/>
        <pt x="212" y="76" on="0"/>
        <pt x="296" y="76" on="1"/>
        <pt x="383" y="76" on="0"/>
        <pt x="467" y="162" on="0"/>
        <pt x="482" y="269" on="1"/>
        <pt x="541" y="690" on="1"/>
      </contour>
    </TTGlyph>
    <TTGlyph name="Udieresis" xMin="75" yMin="-13" xMax="642" yMax="873">
      <contour>
        <pt x="316" y="873" on="1"/>
        <pt x="345" y="873" on="1"/>
        <pt x="374" y="873" on="0"/>
        <pt x="369" y="846" on="1"/>
        <pt x="361" y="791" on="1"/>
        <pt x="358" y="765" on="0"/>
        <pt x="332" y="765" on="1"/>
        <pt x="300" y="765" on="1"/>
        <pt x="273" y="765" on="0"/>
        <pt x="276" y="790" on="1"/>
        <pt x="285" y="846" on="1"/>
        <pt x="288" y="873" on="0"/>
      </contour>
      <contour>
        <pt x="483" y="873" on="1"/>
        <pt x="512" y="873" on="1"/>
        <pt x="542" y="873" on="0"/>
        <pt x="537" y="846" on="1"/>
        <pt x="528" y="791" on="1"/>
        <pt x="525" y="765" on="0"/>
        <pt x="499" y="765" on="1"/>
        <pt x="467" y="765" on="1"/>
        <pt x="440" y="765" on="0"/>
        <pt x="443" y="790" on="1"/>
        <pt x="452" y="846" on="1"/>
        <pt x="456" y="873" on="0"/>
      </contour>
      <contour>
        <pt x="642" y="690" on="1"/>
        <pt x="581" y="264" on="1"/>
        <pt x="560" y="113" on="0"/>
        <pt x="430" y="-13" on="0"/>
        <pt x="299" y="-13" on="1"/>
        <pt x="164" y="-13" on="0"/>
        <pt x="54" y="119" on="0"/>
        <pt x="75" y="269" on="1"/>
        <pt x="133" y="690" on="1"/>
        <pt x="234" y="690" on="1"/>
        <pt x="174" y="264" on="1"/>
        <pt x="159" y="158" on="0"/>
        <pt x="212" y="76" on="0"/>
        <pt x="296" y="76" on="1"/>
        <pt x="383" y="76" on="0"/>
        <pt x="467" y="162" on="0"/>
        <pt x="482" y="269" on="1"/>
        <pt x="541" y="690" on="1"/>
      </contour>
    </TTGlyph>
    <TTGlyph name="Ugrave" xMin="75" yMin="-13" xMax="642" yMax="917">
      <contour>
        <pt x="449" y="770" on="1"/>
        <pt x="415" y="726" on="1"/>
        <pt x="220" y="848" on="1"/>
        <pt x="272" y="917" on="1"/>
      </contour>
      <contour>
        <pt x="642" y="690" on="1"/>
        <pt x="581" y="264" on="1"/>
        <pt x="560" y="113" on="0"/>
        <pt x="430" y="-13" on="0"/>
        <pt x="299" y="-13" on="1"/>
        <pt x="164" y="-13" on="0"/>
        <pt x="54" y="119" on="0"/>
        <pt x="75" y="269" on="1"/>
        <pt x="133" y="690" on="1"/>
        <pt x="234" y="690" on="1"/>
        <pt x="174" y="264" on="1"/>
        <pt x="159" y="158" on="0"/>
        <pt x="212" y="76" on="0"/>
        <pt x="296" y="76" on="1"/>
        <pt x="383" y="76" on="0"/>
        <pt x="467" y="162" on="0"/>
        <pt x="482" y="269" on="1"/>
        <pt x="541" y="690" on="1"/>
      </contour>
    </TTGlyph>
    <TTGlyph name="Uhungarumlaut" xMin="75" yMin="-13" xMax="642" yMax="923">
      <contour>
        <pt x="457" y="881" on="1"/>
        <pt x="299" y="720" on="1"/>
        <pt x="258" y="752" on="1"/>
        <pt x="398" y="923" on="1"/>
      </contour>
      <contour>
        <pt x="626" y="881" on="1"/>
        <pt x="467" y="720" on="1"/>
        <pt x="428" y="752" on="1"/>
        <pt x="566" y="923" on="1"/>
      </contour>
      <contour>
        <pt x="642" y="690" on="1"/>
        <pt x="581" y="264" on="1"/>
        <pt x="560" y="113" on="0"/>
        <pt x="430" y="-13" on="0"/>
        <pt x="299" y="-13" on="1"/>
        <pt x="164" y="-13" on="0"/>
        <pt x="54" y="119" on="0"/>
        <pt x="75" y="269" on="1"/>
        <pt x="133" y="690" on="1"/>
        <pt x="234" y="690" on="1"/>
        <pt x="174" y="264" on="1"/>
        <pt x="159" y="158" on="0"/>
        <pt x="212" y="76" on="0"/>
        <pt x="296" y="76" on="1"/>
        <pt x="383" y="76" on="0"/>
        <pt x="467" y="162" on="0"/>
        <pt x="482" y="269" on="1"/>
        <pt x="541" y="690" on="1"/>
      </contour>
    </TTGlyph>
    <TTGlyph name="Umacron" xMin="75" yMin="-13" xMax="642" yMax="853">
      <contour>
        <pt x="542" y="782" on="1"/>
        <pt x="260" y="782" on="1"/>
        <pt x="270" y="853" on="1"/>
        <pt x="552" y="853" on="1"/>
      </contour>
      <contour>
        <pt x="642" y="690" on="1"/>
        <pt x="581" y="264" on="1"/>
        <pt x="560" y="113" on="0"/>
        <pt x="430" y="-13" on="0"/>
        <pt x="299" y="-13" on="1"/>
        <pt x="164" y="-13" on="0"/>
        <pt x="54" y="119" on="0"/>
        <pt x="75" y="269" on="1"/>
        <pt x="133" y="690" on="1"/>
        <pt x="234" y="690" on="1"/>
        <pt x="174" y="264" on="1"/>
        <pt x="159" y="158" on="0"/>
        <pt x="212" y="76" on="0"/>
        <pt x="296" y="76" on="1"/>
        <pt x="383" y="76" on="0"/>
        <pt x="467" y="162" on="0"/>
        <pt x="482" y="269" on="1"/>
        <pt x="541" y="690" on="1"/>
      </contour>
    </TTGlyph>
    <TTGlyph name="Uogonek" xMin="75" yMin="-222" xMax="642" yMax="690">
      <contour>
        <pt x="642" y="690" on="1"/>
        <pt x="581" y="264" on="1"/>
        <pt x="561" y="121" on="0"/>
        <pt x="443" y="-6" on="0"/>
        <pt x="327" y="-12" on="1"/>
        <pt x="281" y="-61" on="0"/>
        <pt x="245" y="-124" on="1"/>
        <pt x="226" y="-157" on="0"/>
        <pt x="262" y="-177" on="0"/>
        <pt x="309" y="-161" on="1"/>
        <pt x="321" y="-203" on="1"/>
        <pt x="281" y="-218" on="0"/>
        <pt x="218" y="-225" on="0"/>
        <pt x="181" y="-210" on="0"/>
        <pt x="161" y="-182" on="0"/>
        <pt x="164" y="-143" on="0"/>
        <pt x="175" y="-121" on="1"/>
        <pt x="203" y="-66" on="0"/>
        <pt x="277" y="-12" on="1"/>
        <pt x="154" y="-7" on="0"/>
        <pt x="54" y="126" on="0"/>
        <pt x="75" y="269" on="1"/>
        <pt x="133" y="690" on="1"/>
        <pt x="234" y="690" on="1"/>
        <pt x="174" y="264" on="1"/>
        <pt x="159" y="158" on="0"/>
        <pt x="212" y="76" on="0"/>
        <pt x="296" y="76" on="1"/>
        <pt x="383" y="76" on="0"/>
        <pt x="467" y="162" on="0"/>
        <pt x="482" y="269" on="1"/>
        <pt x="541" y="690" on="1"/>
      </contour>
    </TTGlyph>
    <TTGlyph name="Uring" xMin="75" yMin="-13" xMax="642" yMax="927">
      <contour>
        <pt x="412" y="927" on="1"/>
        <pt x="462" y="927" on="0"/>
        <pt x="521" y="865" on="0"/>
        <pt x="515" y="816" on="1"/>
        <pt x="509" y="773" on="0"/>
        <pt x="449" y="714" on="0"/>
        <pt x="402" y="714" on="1"/>
        <pt x="352" y="714" on="0"/>
        <pt x="294" y="776" on="0"/>
        <pt x="299" y="824" on="1"/>
        <pt x="304" y="868" on="0"/>
        <pt x="364" y="927" on="0"/>
      </contour>
      <contour>
        <pt x="413" y="879" on="1"/>
        <pt x="387" y="879" on="0"/>
        <pt x="354" y="846" on="0"/>
        <pt x="351" y="821" on="1"/>
        <pt x="348" y="793" on="0"/>
        <pt x="378" y="762" on="0"/>
        <pt x="402" y="762" on="1"/>
        <pt x="428" y="762" on="0"/>
        <pt x="461" y="796" on="0"/>
        <pt x="463" y="822" on="1"/>
        <pt x="465" y="847" on="0"/>
        <pt x="438" y="879" on="0"/>
      </contour>
      <contour>
        <pt x="642" y="690" on="1"/>
        <pt x="581" y="264" on="1"/>
        <pt x="560" y="113" on="0"/>
        <pt x="430" y="-13" on="0"/>
        <pt x="299" y="-13" on="1"/>
        <pt x="164" y="-13" on="0"/>
        <pt x="54" y="119" on="0"/>
        <pt x="75" y="269" on="1"/>
        <pt x="133" y="690" on="1"/>
        <pt x="234" y="690" on="1"/>
        <pt x="174" y="264" on="1"/>
        <pt x="159" y="158" on="0"/>
        <pt x="212" y="76" on="0"/>
        <pt x="296" y="76" on="1"/>
        <pt x="383" y="76" on="0"/>
        <pt x="467" y="162" on="0"/>
        <pt x="482" y="269" on="1"/>
        <pt x="541" y="690" on="1"/>
      </contour>
    </TTGlyph>
    <TTGlyph name="V" xMin="67" yMin="0" xMax="650" yMax="690">
      <contour>
        <pt x="650" y="690" on="1"/>
        <pt x="350" y="26" on="1"/>
        <pt x="339" y="0" on="0"/>
        <pt x="312" y="0" on="1"/>
        <pt x="215" y="0" on="1"/>
        <pt x="202" y="0" on="0"/>
        <pt x="184" y="18" on="0"/>
        <pt x="182" y="30" on="1"/>
        <pt x="67" y="690" on="1"/>
        <pt x="168" y="690" on="1"/>
        <pt x="249" y="151" on="1"/>
        <pt x="258" y="78" on="0"/>
        <pt x="258" y="75" on="1"/>
        <pt x="284" y="75" on="1"/>
        <pt x="298" y="118" on="0"/>
        <pt x="314" y="155" on="1"/>
        <pt x="544" y="690" on="1"/>
      </contour>
    </TTGlyph>
    <TTGlyph name="W" xMin="83" yMin="0" xMax="973" yMax="690">
      <contour>
        <pt x="973" y="690" on="1"/>
        <pt x="747" y="27" on="1"/>
        <pt x="736" y="0" on="0"/>
        <pt x="706" y="0" on="1"/>
        <pt x="597" y="0" on="1"/>
        <pt x="583" y="0" on="0"/>
        <pt x="563" y="18" on="0"/>
        <pt x="562" y="32" on="1"/>
        <pt x="531" y="539" on="1"/>
        <pt x="530" y="552" on="0"/>
        <pt x="526" y="603" on="0"/>
        <pt x="526" y="616" on="1"/>
        <pt x="505" y="616" on="1"/>
        <pt x="480" y="535" on="1"/>
        <pt x="310" y="28" on="1"/>
        <pt x="301" y="0" on="0"/>
        <pt x="270" y="0" on="1"/>
        <pt x="162" y="0" on="1"/>
        <pt x="147" y="0" on="0"/>
        <pt x="126" y="18" on="0"/>
        <pt x="125" y="31" on="1"/>
        <pt x="83" y="690" on="1"/>
        <pt x="185" y="690" on="1"/>
        <pt x="209" y="162" on="1"/>
        <pt x="210" y="148" on="0"/>
        <pt x="211" y="89" on="0"/>
        <pt x="211" y="74" on="1"/>
        <pt x="234" y="74" on="1"/>
        <pt x="238" y="88" on="0"/>
        <pt x="263" y="166" on="1"/>
        <pt x="429" y="659" on="1"/>
        <pt x="439" y="690" on="0"/>
        <pt x="470" y="690" on="1"/>
        <pt x="575" y="690" on="1"/>
        <pt x="589" y="690" on="0"/>
        <pt x="608" y="670" on="0"/>
        <pt x="609" y="655" on="1"/>
        <pt x="645" y="161" on="1"/>
        <pt x="649" y="103" on="0"/>
        <pt x="648" y="74" on="1"/>
        <pt x="672" y="74" on="1"/>
        <pt x="683" y="112" on="0"/>
        <pt x="699" y="164" on="1"/>
        <pt x="868" y="690" on="1"/>
      </contour>
    </TTGlyph>
    <TTGlyph name="Wacute" xMin="83" yMin="0" xMax="973" yMax="917">
      <contour>
        <pt x="711" y="842" on="1"/>
        <pt x="498" y="726" on="1"/>
        <pt x="469" y="770" on="1"/>
        <pt x="665" y="917" on="1"/>
      </contour>
      <contour>
        <pt x="973" y="690" on="1"/>
        <pt x="747" y="27" on="1"/>
        <pt x="736" y="0" on="0"/>
        <pt x="706" y="0" on="1"/>
        <pt x="597" y="0" on="1"/>
        <pt x="583" y="0" on="0"/>
        <pt x="563" y="18" on="0"/>
        <pt x="562" y="32" on="1"/>
        <pt x="531" y="539" on="1"/>
        <pt x="530" y="552" on="0"/>
        <pt x="526" y="603" on="0"/>
        <pt x="526" y="616" on="1"/>
        <pt x="505" y="616" on="1"/>
        <pt x="480" y="535" on="1"/>
        <pt x="310" y="28" on="1"/>
        <pt x="301" y="0" on="0"/>
        <pt x="270" y="0" on="1"/>
        <pt x="162" y="0" on="1"/>
        <pt x="147" y="0" on="0"/>
        <pt x="126" y="18" on="0"/>
        <pt x="125" y="31" on="1"/>
        <pt x="83" y="690" on="1"/>
        <pt x="185" y="690" on="1"/>
        <pt x="209" y="162" on="1"/>
        <pt x="210" y="148" on="0"/>
        <pt x="211" y="89" on="0"/>
        <pt x="211" y="74" on="1"/>
        <pt x="234" y="74" on="1"/>
        <pt x="238" y="88" on="0"/>
        <pt x="263" y="166" on="1"/>
        <pt x="429" y="659" on="1"/>
        <pt x="439" y="690" on="0"/>
        <pt x="470" y="690" on="1"/>
        <pt x="575" y="690" on="1"/>
        <pt x="589" y="690" on="0"/>
        <pt x="608" y="670" on="0"/>
        <pt x="609" y="655" on="1"/>
        <pt x="645" y="161" on="1"/>
        <pt x="649" y="103" on="0"/>
        <pt x="648" y="74" on="1"/>
        <pt x="672" y="74" on="1"/>
        <pt x="683" y="112" on="0"/>
        <pt x="699" y="164" on="1"/>
        <pt x="868" y="690" on="1"/>
      </contour>
    </TTGlyph>
    <TTGlyph name="Wcircumflex" xMin="83" yMin="0" xMax="973" yMax="898">
      <contour>
        <pt x="713" y="763" on="1"/>
        <pt x="678" y="725" on="1"/>
        <pt x="557" y="826" on="1"/>
        <pt x="549" y="826" on="1"/>
        <pt x="400" y="727" on="1"/>
        <pt x="372" y="769" on="1"/>
        <pt x="520" y="898" on="1"/>
        <pt x="589" y="898" on="1"/>
      </contour>
      <contour>
        <pt x="973" y="690" on="1"/>
        <pt x="747" y="27" on="1"/>
        <pt x="736" y="0" on="0"/>
        <pt x="706" y="0" on="1"/>
        <pt x="597" y="0" on="1"/>
        <pt x="583" y="0" on="0"/>
        <pt x="563" y="18" on="0"/>
        <pt x="562" y="32" on="1"/>
        <pt x="531" y="539" on="1"/>
        <pt x="530" y="552" on="0"/>
        <pt x="526" y="603" on="0"/>
        <pt x="526" y="616" on="1"/>
        <pt x="505" y="616" on="1"/>
        <pt x="480" y="535" on="1"/>
        <pt x="310" y="28" on="1"/>
        <pt x="301" y="0" on="0"/>
        <pt x="270" y="0" on="1"/>
        <pt x="162" y="0" on="1"/>
        <pt x="147" y="0" on="0"/>
        <pt x="126" y="18" on="0"/>
        <pt x="125" y="31" on="1"/>
        <pt x="83" y="690" on="1"/>
        <pt x="185" y="690" on="1"/>
        <pt x="209" y="162" on="1"/>
        <pt x="210" y="148" on="0"/>
        <pt x="211" y="89" on="0"/>
        <pt x="211" y="74" on="1"/>
        <pt x="234" y="74" on="1"/>
        <pt x="238" y="88" on="0"/>
        <pt x="263" y="166" on="1"/>
        <pt x="429" y="659" on="1"/>
        <pt x="439" y="690" on="0"/>
        <pt x="470" y="690" on="1"/>
        <pt x="575" y="690" on="1"/>
        <pt x="589" y="690" on="0"/>
        <pt x="608" y="670" on="0"/>
        <pt x="609" y="655" on="1"/>
        <pt x="645" y="161" on="1"/>
        <pt x="649" y="103" on="0"/>
        <pt x="648" y="74" on="1"/>
        <pt x="672" y="74" on="1"/>
        <pt x="683" y="112" on="0"/>
        <pt x="699" y="164" on="1"/>
        <pt x="868" y="690" on="1"/>
      </contour>
    </TTGlyph>
    <TTGlyph name="Wdieresis" xMin="83" yMin="0" xMax="973" yMax="872">
      <contour>
        <pt x="622" y="872" on="1"/>
        <pt x="651" y="872" on="1"/>
        <pt x="680" y="872" on="0"/>
        <pt x="676" y="845" on="1"/>
        <pt x="667" y="790" on="1"/>
        <pt x="664" y="764" on="0"/>
        <pt x="639" y="764" on="1"/>
        <pt x="606" y="764" on="1"/>
        <pt x="579" y="764" on="0"/>
        <pt x="582" y="789" on="1"/>
        <pt x="591" y="845" on="1"/>
        <pt x="596" y="872" on="0"/>
      </contour>
      <contour>
        <pt x="455" y="872" on="1"/>
        <pt x="484" y="872" on="1"/>
        <pt x="512" y="872" on="0"/>
        <pt x="509" y="845" on="1"/>
        <pt x="500" y="790" on="1"/>
        <pt x="497" y="764" on="0"/>
        <pt x="471" y="764" on="1"/>
        <pt x="439" y="764" on="1"/>
        <pt x="412" y="764" on="0"/>
        <pt x="415" y="789" on="1"/>
        <pt x="424" y="845" on="1"/>
        <pt x="428" y="872" on="0"/>
      </contour>
      <contour>
        <pt x="973" y="690" on="1"/>
        <pt x="747" y="27" on="1"/>
        <pt x="736" y="0" on="0"/>
        <pt x="706" y="0" on="1"/>
        <pt x="597" y="0" on="1"/>
        <pt x="583" y="0" on="0"/>
        <pt x="563" y="18" on="0"/>
        <pt x="562" y="32" on="1"/>
        <pt x="531" y="539" on="1"/>
        <pt x="530" y="552" on="0"/>
        <pt x="526" y="603" on="0"/>
        <pt x="526" y="616" on="1"/>
        <pt x="505" y="616" on="1"/>
        <pt x="480" y="535" on="1"/>
        <pt x="310" y="28" on="1"/>
        <pt x="301" y="0" on="0"/>
        <pt x="270" y="0" on="1"/>
        <pt x="162" y="0" on="1"/>
        <pt x="147" y="0" on="0"/>
        <pt x="126" y="18" on="0"/>
        <pt x="125" y="31" on="1"/>
        <pt x="83" y="690" on="1"/>
        <pt x="185" y="690" on="1"/>
        <pt x="209" y="162" on="1"/>
        <pt x="210" y="148" on="0"/>
        <pt x="211" y="89" on="0"/>
        <pt x="211" y="74" on="1"/>
        <pt x="234" y="74" on="1"/>
        <pt x="238" y="88" on="0"/>
        <pt x="263" y="166" on="1"/>
        <pt x="429" y="659" on="1"/>
        <pt x="439" y="690" on="0"/>
        <pt x="470" y="690" on="1"/>
        <pt x="575" y="690" on="1"/>
        <pt x="589" y="690" on="0"/>
        <pt x="608" y="670" on="0"/>
        <pt x="609" y="655" on="1"/>
        <pt x="645" y="161" on="1"/>
        <pt x="649" y="103" on="0"/>
        <pt x="648" y="74" on="1"/>
        <pt x="672" y="74" on="1"/>
        <pt x="683" y="112" on="0"/>
        <pt x="699" y="164" on="1"/>
        <pt x="868" y="690" on="1"/>
      </contour>
    </TTGlyph>
    <TTGlyph name="Wgrave" xMin="83" yMin="0" xMax="973" yMax="916">
      <contour>
        <pt x="588" y="769" on="1"/>
        <pt x="554" y="726" on="1"/>
        <pt x="359" y="847" on="1"/>
        <pt x="411" y="916" on="1"/>
      </contour>
      <contour>
        <pt x="973" y="690" on="1"/>
        <pt x="747" y="27" on="1"/>
        <pt x="736" y="0" on="0"/>
        <pt x="706" y="0" on="1"/>
        <pt x="597" y="0" on="1"/>
        <pt x="583" y="0" on="0"/>
        <pt x="563" y="18" on="0"/>
        <pt x="562" y="32" on="1"/>
        <pt x="531" y="539" on="1"/>
        <pt x="530" y="552" on="0"/>
        <pt x="526" y="603" on="0"/>
        <pt x="526" y="616" on="1"/>
        <pt x="505" y="616" on="1"/>
        <pt x="480" y="535" on="1"/>
        <pt x="310" y="28" on="1"/>
        <pt x="301" y="0" on="0"/>
        <pt x="270" y="0" on="1"/>
        <pt x="162" y="0" on="1"/>
        <pt x="147" y="0" on="0"/>
        <pt x="126" y="18" on="0"/>
        <pt x="125" y="31" on="1"/>
        <pt x="83" y="690" on="1"/>
        <pt x="185" y="690" on="1"/>
        <pt x="209" y="162" on="1"/>
        <pt x="210" y="148" on="0"/>
        <pt x="211" y="89" on="0"/>
        <pt x="211" y="74" on="1"/>
        <pt x="234" y="74" on="1"/>
        <pt x="238" y="88" on="0"/>
        <pt x="263" y="166" on="1"/>
        <pt x="429" y="659" on="1"/>
        <pt x="439" y="690" on="0"/>
        <pt x="470" y="690" on="1"/>
        <pt x="575" y="690" on="1"/>
        <pt x="589" y="690" on="0"/>
        <pt x="608" y="670" on="0"/>
        <pt x="609" y="655" on="1"/>
        <pt x="645" y="161" on="1"/>
        <pt x="649" y="103" on="0"/>
        <pt x="648" y="74" on="1"/>
        <pt x="672" y="74" on="1"/>
        <pt x="683" y="112" on="0"/>
        <pt x="699" y="164" on="1"/>
        <pt x="868" y="690" on="1"/>
      </contour>
    </TTGlyph>
    <TTGlyph name="X" xMin="-21" yMin="0" xMax="636" yMax="690">
      <contour>
        <pt x="411" y="357" on="1"/>
        <pt x="551" y="0" on="1"/>
        <pt x="449" y="0" on="1"/>
        <pt x="328" y="320" on="1"/>
        <pt x="303" y="320" on="1"/>
        <pt x="95" y="0" on="1"/>
        <pt x="-21" y="0" on="1"/>
        <pt x="221" y="357" on="1"/>
        <pt x="92" y="690" on="1"/>
        <pt x="194" y="690" on="1"/>
        <pt x="303" y="396" on="1"/>
        <pt x="329" y="396" on="1"/>
        <pt x="526" y="690" on="1"/>
        <pt x="636" y="690" on="1"/>
      </contour>
    </TTGlyph>
    <TTGlyph name="Y" xMin="63" yMin="0" xMax="617" yMax="690">
      <contour>
        <pt x="325" y="238" on="1"/>
        <pt x="292" y="0" on="1"/>
        <pt x="191" y="0" on="1"/>
        <pt x="226" y="243" on="1"/>
        <pt x="63" y="690" on="1"/>
        <pt x="164" y="690" on="1"/>
        <pt x="263" y="405" on="1"/>
        <pt x="277" y="361" on="0"/>
        <pt x="281" y="325" on="1"/>
        <pt x="290" y="325" on="1"/>
        <pt x="303" y="366" on="0"/>
        <pt x="330" y="408" on="1"/>
        <pt x="508" y="690" on="1"/>
        <pt x="617" y="690" on="1"/>
      </contour>
    </TTGlyph>
    <TTGlyph name="Yacute" xMin="63" yMin="0" xMax="617" yMax="918">
      <contour>
        <pt x="308" y="726" on="1"/>
        <pt x="279" y="771" on="1"/>
        <pt x="475" y="918" on="1"/>
        <pt x="521" y="843" on="1"/>
      </contour>
      <contour>
        <pt x="325" y="238" on="1"/>
        <pt x="292" y="0" on="1"/>
        <pt x="191" y="0" on="1"/>
        <pt x="226" y="243" on="1"/>
        <pt x="63" y="690" on="1"/>
        <pt x="164" y="690" on="1"/>
        <pt x="263" y="405" on="1"/>
        <pt x="277" y="361" on="0"/>
        <pt x="281" y="325" on="1"/>
        <pt x="290" y="325" on="1"/>
        <pt x="303" y="366" on="0"/>
        <pt x="330" y="408" on="1"/>
        <pt x="508" y="690" on="1"/>
        <pt x="617" y="690" on="1"/>
      </contour>
    </TTGlyph>
    <TTGlyph name="Ycircumflex" xMin="63" yMin="0" xMax="617" yMax="899">
      <contour>
        <pt x="210" y="728" on="1"/>
        <pt x="183" y="770" on="1"/>
        <pt x="330" y="899" on="1"/>
        <pt x="399" y="899" on="1"/>
        <pt x="523" y="764" on="1"/>
        <pt x="488" y="726" on="1"/>
        <pt x="367" y="827" on="1"/>
        <pt x="359" y="827" on="1"/>
      </contour>
      <contour>
        <pt x="325" y="238" on="1"/>
        <pt x="292" y="0" on="1"/>
        <pt x="191" y="0" on="1"/>
        <pt x="226" y="243" on="1"/>
        <pt x="63" y="690" on="1"/>
        <pt x="164" y="690" on="1"/>
        <pt x="263" y="405" on="1"/>
        <pt x="277" y="361" on="0"/>
        <pt x="281" y="325" on="1"/>
        <pt x="290" y="325" on="1"/>
        <pt x="303" y="366" on="0"/>
        <pt x="330" y="408" on="1"/>
        <pt x="508" y="690" on="1"/>
        <pt x="617" y="690" on="1"/>
      </contour>
    </TTGlyph>
    <TTGlyph name="Ydieresis" xMin="63" yMin="0" xMax="617" yMax="873">
      <contour>
        <pt x="281" y="765" on="1"/>
        <pt x="249" y="765" on="1"/>
        <pt x="222" y="765" on="0"/>
        <pt x="225" y="790" on="1"/>
        <pt x="234" y="846" on="1"/>
        <pt x="238" y="873" on="0"/>
        <pt x="265" y="873" on="1"/>
        <pt x="294" y="873" on="1"/>
        <pt x="322" y="873" on="0"/>
        <pt x="319" y="846" on="1"/>
        <pt x="310" y="791" on="1"/>
        <pt x="307" y="765" on="0"/>
      </contour>
      <contour>
        <pt x="449" y="765" on="1"/>
        <pt x="416" y="765" on="1"/>
        <pt x="391" y="765" on="0"/>
        <pt x="392" y="790" on="1"/>
        <pt x="401" y="846" on="1"/>
        <pt x="406" y="873" on="0"/>
        <pt x="432" y="873" on="1"/>
        <pt x="462" y="873" on="1"/>
        <pt x="490" y="873" on="0"/>
        <pt x="486" y="846" on="1"/>
        <pt x="477" y="791" on="1"/>
        <pt x="474" y="765" on="0"/>
      </contour>
      <contour>
        <pt x="325" y="238" on="1"/>
        <pt x="292" y="0" on="1"/>
        <pt x="191" y="0" on="1"/>
        <pt x="226" y="243" on="1"/>
        <pt x="63" y="690" on="1"/>
        <pt x="164" y="690" on="1"/>
        <pt x="263" y="405" on="1"/>
        <pt x="277" y="361" on="0"/>
        <pt x="281" y="325" on="1"/>
        <pt x="290" y="325" on="1"/>
        <pt x="303" y="366" on="0"/>
        <pt x="330" y="408" on="1"/>
        <pt x="508" y="690" on="1"/>
        <pt x="617" y="690" on="1"/>
      </contour>
    </TTGlyph>
    <TTGlyph name="Ygrave" xMin="63" yMin="0" xMax="617" yMax="917">
      <contour>
        <pt x="364" y="726" on="1"/>
        <pt x="170" y="848" on="1"/>
        <pt x="222" y="917" on="1"/>
        <pt x="398" y="770" on="1"/>
      </contour>
      <contour>
        <pt x="325" y="238" on="1"/>
        <pt x="292" y="0" on="1"/>
        <pt x="191" y="0" on="1"/>
        <pt x="226" y="243" on="1"/>
        <pt x="63" y="690" on="1"/>
        <pt x="164" y="690" on="1"/>
        <pt x="263" y="405" on="1"/>
        <pt x="277" y="361" on="0"/>
        <pt x="281" y="325" on="1"/>
        <pt x="290" y="325" on="1"/>
        <pt x="303" y="366" on="0"/>
        <pt x="330" y="408" on="1"/>
        <pt x="508" y="690" on="1"/>
        <pt x="617" y="690" on="1"/>
      </contour>
    </TTGlyph>
    <TTGlyph name="Z" xMin="5" yMin="0" xMax="569" yMax="690">
      <contour>
        <pt x="569" y="690" on="1"/>
        <pt x="556" y="605" on="1"/>
        <pt x="127" y="85" on="1"/>
        <pt x="491" y="85" on="1"/>
        <pt x="479" y="0" on="1"/>
        <pt x="5" y="0" on="1"/>
        <pt x="17" y="85" on="1"/>
        <pt x="446" y="605" on="1"/>
        <pt x="95" y="605" on="1"/>
        <pt x="108" y="690" on="1"/>
      </contour>
    </TTGlyph>
    <TTGlyph name="Zacute" xMin="5" yMin="0" xMax="569" yMax="918">
      <contour>
        <pt x="312" y="726" on="1"/>
        <pt x="283" y="771" on="1"/>
        <pt x="479" y="918" on="1"/>
        <pt x="525" y="843" on="1"/>
      </contour>
      <contour>
        <pt x="569" y="690" on="1"/>
        <pt x="556" y="605" on="1"/>
        <pt x="127" y="85" on="1"/>
        <pt x="491" y="85" on="1"/>
        <pt x="479" y="0" on="1"/>
        <pt x="5" y="0" on="1"/>
        <pt x="17" y="85" on="1"/>
        <pt x="446" y="605" on="1"/>
        <pt x="95" y="605" on="1"/>
        <pt x="108" y="690" on="1"/>
      </contour>
    </TTGlyph>
    <TTGlyph name="Zcaron" xMin="5" yMin="0" xMax="569" yMax="913">
      <contour>
        <pt x="316" y="742" on="1"/>
        <pt x="200" y="878" on="1"/>
        <pt x="239" y="913" on="1"/>
        <pt x="351" y="814" on="1"/>
        <pt x="359" y="814" on="1"/>
        <pt x="506" y="913" on="1"/>
        <pt x="535" y="871" on="1"/>
        <pt x="387" y="742" on="1"/>
      </contour>
      <contour>
        <pt x="569" y="690" on="1"/>
        <pt x="556" y="605" on="1"/>
        <pt x="127" y="85" on="1"/>
        <pt x="491" y="85" on="1"/>
        <pt x="479" y="0" on="1"/>
        <pt x="5" y="0" on="1"/>
        <pt x="17" y="85" on="1"/>
        <pt x="446" y="605" on="1"/>
        <pt x="95" y="605" on="1"/>
        <pt x="108" y="690" on="1"/>
      </contour>
    </TTGlyph>
    <TTGlyph name="Zdotaccent" xMin="5" yMin="0" xMax="569" yMax="869">
      <contour>
        <pt x="369" y="756" on="1"/>
        <pt x="338" y="756" on="1"/>
        <pt x="324" y="756" on="0"/>
        <pt x="310" y="773" on="0"/>
        <pt x="312" y="786" on="1"/>
        <pt x="319" y="842" on="1"/>
        <pt x="322" y="869" on="0"/>
        <pt x="348" y="869" on="1"/>
        <pt x="379" y="869" on="1"/>
        <pt x="410" y="869" on="0"/>
        <pt x="407" y="838" on="1"/>
        <pt x="399" y="783" on="1"/>
        <pt x="395" y="756" on="0"/>
      </contour>
      <contour>
        <pt x="569" y="690" on="1"/>
        <pt x="556" y="605" on="1"/>
        <pt x="127" y="85" on="1"/>
        <pt x="491" y="85" on="1"/>
        <pt x="479" y="0" on="1"/>
        <pt x="5" y="0" on="1"/>
        <pt x="17" y="85" on="1"/>
        <pt x="446" y="605" on="1"/>
        <pt x="95" y="605" on="1"/>
        <pt x="108" y="690" on="1"/>
      </contour>
    </TTGlyph>
    <TTGlyph name="a" xMin="47" yMin="-12" xMax="528" yMax="501">
      <contour>
        <pt x="460" y="0" on="1"/>
        <pt x="384" y="0" on="1"/>
        <pt x="388" y="90" on="1"/>
        <pt x="300" y="-12" on="0"/>
        <pt x="178" y="-12" on="1"/>
        <pt x="89" y="-12" on="0"/>
        <pt x="27" y="104" on="0"/>
        <pt x="47" y="250" on="1"/>
        <pt x="58" y="331" on="0"/>
        <pt x="98" y="434" on="0"/>
        <pt x="164" y="484" on="0"/>
        <pt x="234" y="501" on="0"/>
        <pt x="289" y="501" on="1"/>
        <pt x="408" y="501" on="0"/>
        <pt x="528" y="475" on="1"/>
      </contour>
      <contour>
        <pt x="387" y="176" on="1"/>
        <pt x="422" y="418" on="1"/>
        <pt x="330" y="420" on="0"/>
        <pt x="319" y="420" on="1"/>
        <pt x="267" y="420" on="0"/>
        <pt x="213" y="410" on="0"/>
        <pt x="172" y="369" on="0"/>
        <pt x="153" y="305" on="0"/>
        <pt x="144" y="243" on="1"/>
        <pt x="130" y="134" on="0"/>
        <pt x="151" y="72" on="0"/>
        <pt x="198" y="72" on="1"/>
        <pt x="244" y="72" on="0"/>
        <pt x="332" y="123" on="0"/>
      </contour>
    </TTGlyph>
    <TTGlyph name="aacute" xMin="47" yMin="-12" xMax="528" yMax="738">
      <contour>
        <pt x="287" y="547" on="1"/>
        <pt x="258" y="592" on="1"/>
        <pt x="454" y="738" on="1"/>
        <pt x="500" y="664" on="1"/>
      </contour>
      <contour>
        <pt x="460" y="0" on="1"/>
        <pt x="384" y="0" on="1"/>
        <pt x="388" y="90" on="1"/>
        <pt x="300" y="-12" on="0"/>
        <pt x="178" y="-12" on="1"/>
        <pt x="89" y="-12" on="0"/>
        <pt x="27" y="104" on="0"/>
        <pt x="47" y="250" on="1"/>
        <pt x="58" y="331" on="0"/>
        <pt x="98" y="434" on="0"/>
        <pt x="164" y="484" on="0"/>
        <pt x="234" y="501" on="0"/>
        <pt x="289" y="501" on="1"/>
        <pt x="408" y="501" on="0"/>
        <pt x="528" y="475" on="1"/>
      </contour>
      <contour>
        <pt x="387" y="176" on="1"/>
        <pt x="422" y="418" on="1"/>
        <pt x="330" y="420" on="0"/>
        <pt x="319" y="420" on="1"/>
        <pt x="267" y="420" on="0"/>
        <pt x="213" y="410" on="0"/>
        <pt x="172" y="369" on="0"/>
        <pt x="153" y="305" on="0"/>
        <pt x="144" y="243" on="1"/>
        <pt x="130" y="134" on="0"/>
        <pt x="151" y="72" on="0"/>
        <pt x="198" y="72" on="1"/>
        <pt x="244" y="72" on="0"/>
        <pt x="332" y="123" on="0"/>
      </contour>
    </TTGlyph>
    <TTGlyph name="abreve" xMin="47" yMin="-12" xMax="528" yMax="709">
      <contour>
        <pt x="446" y="709" on="1"/>
        <pt x="495" y="697" on="1"/>
        <pt x="490" y="637" on="0"/>
        <pt x="400" y="564" on="0"/>
        <pt x="329" y="564" on="1"/>
        <pt x="253" y="564" on="0"/>
        <pt x="177" y="641" on="0"/>
        <pt x="190" y="701" on="1"/>
        <pt x="239" y="705" on="1"/>
        <pt x="235" y="672" on="0"/>
        <pt x="282" y="635" on="0"/>
        <pt x="328" y="635" on="1"/>
        <pt x="380" y="635" on="0"/>
        <pt x="442" y="674" on="0"/>
      </contour>
      <contour>
        <pt x="460" y="0" on="1"/>
        <pt x="384" y="0" on="1"/>
        <pt x="388" y="90" on="1"/>
        <pt x="300" y="-12" on="0"/>
        <pt x="178" y="-12" on="1"/>
        <pt x="89" y="-12" on="0"/>
        <pt x="27" y="104" on="0"/>
        <pt x="47" y="250" on="1"/>
        <pt x="58" y="331" on="0"/>
        <pt x="98" y="434" on="0"/>
        <pt x="164" y="484" on="0"/>
        <pt x="234" y="501" on="0"/>
        <pt x="289" y="501" on="1"/>
        <pt x="408" y="501" on="0"/>
        <pt x="528" y="475" on="1"/>
      </contour>
      <contour>
        <pt x="387" y="176" on="1"/>
        <pt x="422" y="418" on="1"/>
        <pt x="330" y="420" on="0"/>
        <pt x="319" y="420" on="1"/>
        <pt x="267" y="420" on="0"/>
        <pt x="213" y="410" on="0"/>
        <pt x="172" y="369" on="0"/>
        <pt x="153" y="305" on="0"/>
        <pt x="144" y="243" on="1"/>
        <pt x="130" y="134" on="0"/>
        <pt x="151" y="72" on="0"/>
        <pt x="198" y="72" on="1"/>
        <pt x="244" y="72" on="0"/>
        <pt x="332" y="123" on="0"/>
      </contour>
    </TTGlyph>
    <TTGlyph name="acircumflex" xMin="47" yMin="-12" xMax="528" yMax="720">
      <contour>
        <pt x="189" y="549" on="1"/>
        <pt x="161" y="591" on="1"/>
        <pt x="309" y="720" on="1"/>
        <pt x="378" y="720" on="1"/>
        <pt x="502" y="584" on="1"/>
        <pt x="466" y="546" on="1"/>
        <pt x="346" y="647" on="1"/>
        <pt x="338" y="647" on="1"/>
      </contour>
      <contour>
        <pt x="460" y="0" on="1"/>
        <pt x="384" y="0" on="1"/>
        <pt x="388" y="90" on="1"/>
        <pt x="300" y="-12" on="0"/>
        <pt x="178" y="-12" on="1"/>
        <pt x="89" y="-12" on="0"/>
        <pt x="27" y="104" on="0"/>
        <pt x="47" y="250" on="1"/>
        <pt x="58" y="331" on="0"/>
        <pt x="98" y="434" on="0"/>
        <pt x="164" y="484" on="0"/>
        <pt x="234" y="501" on="0"/>
        <pt x="289" y="501" on="1"/>
        <pt x="408" y="501" on="0"/>
        <pt x="528" y="475" on="1"/>
      </contour>
      <contour>
        <pt x="387" y="176" on="1"/>
        <pt x="422" y="418" on="1"/>
        <pt x="330" y="420" on="0"/>
        <pt x="319" y="420" on="1"/>
        <pt x="267" y="420" on="0"/>
        <pt x="213" y="410" on="0"/>
        <pt x="172" y="369" on="0"/>
        <pt x="153" y="305" on="0"/>
        <pt x="144" y="243" on="1"/>
        <pt x="130" y="134" on="0"/>
        <pt x="151" y="72" on="0"/>
        <pt x="198" y="72" on="1"/>
        <pt x="244" y="72" on="0"/>
        <pt x="332" y="123" on="0"/>
      </contour>
    </TTGlyph>
    <TTGlyph name="acute" xMin="101" yMin="535" xMax="342" yMax="727">
      <contour>
        <pt x="342" y="652" on="1"/>
        <pt x="129" y="535" on="1"/>
        <pt x="101" y="580" on="1"/>
        <pt x="297" y="727" on="1"/>
      </contour>
    </TTGlyph>
    <TTGlyph name="adieresis" xMin="47" yMin="-12" xMax="528" yMax="693">
      <contour>
        <pt x="260" y="586" on="1"/>
        <pt x="228" y="586" on="1"/>
        <pt x="201" y="586" on="0"/>
        <pt x="204" y="611" on="1"/>
        <pt x="213" y="666" on="1"/>
        <pt x="216" y="693" on="0"/>
        <pt x="244" y="693" on="1"/>
        <pt x="273" y="693" on="1"/>
        <pt x="289" y="693" on="0"/>
        <pt x="300" y="681" on="0"/>
        <pt x="298" y="666" on="1"/>
        <pt x="289" y="612" on="1"/>
        <pt x="286" y="586" on="0"/>
      </contour>
      <contour>
        <pt x="427" y="586" on="1"/>
        <pt x="395" y="586" on="1"/>
        <pt x="368" y="586" on="0"/>
        <pt x="371" y="611" on="1"/>
        <pt x="380" y="666" on="1"/>
        <pt x="384" y="693" on="0"/>
        <pt x="411" y="693" on="1"/>
        <pt x="440" y="693" on="1"/>
        <pt x="456" y="693" on="0"/>
        <pt x="467" y="681" on="0"/>
        <pt x="465" y="666" on="1"/>
        <pt x="456" y="612" on="1"/>
        <pt x="453" y="586" on="0"/>
      </contour>
      <contour>
        <pt x="460" y="0" on="1"/>
        <pt x="384" y="0" on="1"/>
        <pt x="388" y="90" on="1"/>
        <pt x="300" y="-12" on="0"/>
        <pt x="178" y="-12" on="1"/>
        <pt x="89" y="-12" on="0"/>
        <pt x="27" y="104" on="0"/>
        <pt x="47" y="250" on="1"/>
        <pt x="58" y="331" on="0"/>
        <pt x="98" y="434" on="0"/>
        <pt x="164" y="484" on="0"/>
        <pt x="234" y="501" on="0"/>
        <pt x="289" y="501" on="1"/>
        <pt x="408" y="501" on="0"/>
        <pt x="528" y="475" on="1"/>
      </contour>
      <contour>
        <pt x="387" y="176" on="1"/>
        <pt x="422" y="418" on="1"/>
        <pt x="330" y="420" on="0"/>
        <pt x="319" y="420" on="1"/>
        <pt x="267" y="420" on="0"/>
        <pt x="213" y="410" on="0"/>
        <pt x="172" y="369" on="0"/>
        <pt x="153" y="305" on="0"/>
        <pt x="144" y="243" on="1"/>
        <pt x="130" y="134" on="0"/>
        <pt x="151" y="72" on="0"/>
        <pt x="198" y="72" on="1"/>
        <pt x="244" y="72" on="0"/>
        <pt x="332" y="123" on="0"/>
      </contour>
    </TTGlyph>
    <TTGlyph name="ae" xMin="47" yMin="-12" xMax="835" yMax="501">
      <contour>
        <pt x="774" y="81" on="1"/>
        <pt x="780" y="16" on="1"/>
        <pt x="712" y="-12" on="0"/>
        <pt x="583" y="-12" on="1"/>
        <pt x="426" y="-12" on="0"/>
        <pt x="389" y="93" on="1"/>
        <pt x="300" y="-12" on="0"/>
        <pt x="176" y="-12" on="1"/>
        <pt x="88" y="-12" on="0"/>
        <pt x="26" y="106" on="0"/>
        <pt x="47" y="250" on="1"/>
        <pt x="58" y="332" on="0"/>
        <pt x="98" y="434" on="0"/>
        <pt x="164" y="485" on="0"/>
        <pt x="233" y="501" on="0"/>
        <pt x="288" y="501" on="1"/>
        <pt x="392" y="501" on="0"/>
        <pt x="505" y="479" on="1"/>
        <pt x="561" y="501" on="0"/>
        <pt x="651" y="501" on="1"/>
        <pt x="765" y="501" on="0"/>
        <pt x="846" y="421" on="0"/>
        <pt x="835" y="343" on="1"/>
        <pt x="824" y="272" on="0"/>
        <pt x="736" y="209" on="0"/>
        <pt x="645" y="202" on="1"/>
        <pt x="475" y="187" on="1"/>
        <pt x="475" y="118" on="0"/>
        <pt x="534" y="69" on="0"/>
        <pt x="598" y="69" on="1"/>
        <pt x="666" y="69" on="0"/>
      </contour>
      <contour>
        <pt x="196" y="72" on="1"/>
        <pt x="241" y="72" on="0"/>
        <pt x="325" y="118" on="0"/>
        <pt x="376" y="167" on="1"/>
        <pt x="374" y="213" on="0"/>
        <pt x="381" y="257" on="1"/>
        <pt x="394" y="360" on="0"/>
        <pt x="430" y="417" on="1"/>
        <pt x="406" y="417" on="0"/>
        <pt x="329" y="420" on="0"/>
        <pt x="318" y="420" on="1"/>
        <pt x="223" y="420" on="0"/>
        <pt x="163" y="359" on="0"/>
        <pt x="147" y="243" on="1"/>
        <pt x="132" y="135" on="0"/>
        <pt x="152" y="72" on="0"/>
      </contour>
      <contour>
        <pt x="482" y="259" on="1"/>
        <pt x="644" y="274" on="1"/>
        <pt x="690" y="277" on="0"/>
        <pt x="732" y="310" on="0"/>
        <pt x="739" y="351" on="1"/>
        <pt x="745" y="398" on="0"/>
        <pt x="702" y="420" on="0"/>
        <pt x="636" y="420" on="1"/>
        <pt x="559" y="420" on="0"/>
        <pt x="497" y="357" on="0"/>
      </contour>
    </TTGlyph>
    <TTGlyph name="agrave" xMin="47" yMin="-12" xMax="528" yMax="737">
      <contour>
        <pt x="343" y="547" on="1"/>
        <pt x="148" y="669" on="1"/>
        <pt x="200" y="737" on="1"/>
        <pt x="377" y="590" on="1"/>
      </contour>
      <contour>
        <pt x="460" y="0" on="1"/>
        <pt x="384" y="0" on="1"/>
        <pt x="388" y="90" on="1"/>
        <pt x="300" y="-12" on="0"/>
        <pt x="178" y="-12" on="1"/>
        <pt x="89" y="-12" on="0"/>
        <pt x="27" y="104" on="0"/>
        <pt x="47" y="250" on="1"/>
        <pt x="58" y="331" on="0"/>
        <pt x="98" y="434" on="0"/>
        <pt x="164" y="484" on="0"/>
        <pt x="234" y="501" on="0"/>
        <pt x="289" y="501" on="1"/>
        <pt x="408" y="501" on="0"/>
        <pt x="528" y="475" on="1"/>
      </contour>
      <contour>
        <pt x="387" y="176" on="1"/>
        <pt x="422" y="418" on="1"/>
        <pt x="330" y="420" on="0"/>
        <pt x="319" y="420" on="1"/>
        <pt x="267" y="420" on="0"/>
        <pt x="213" y="410" on="0"/>
        <pt x="172" y="369" on="0"/>
        <pt x="153" y="305" on="0"/>
        <pt x="144" y="243" on="1"/>
        <pt x="130" y="134" on="0"/>
        <pt x="151" y="72" on="0"/>
        <pt x="198" y="72" on="1"/>
        <pt x="244" y="72" on="0"/>
        <pt x="332" y="123" on="0"/>
      </contour>
    </TTGlyph>
    <TTGlyph name="amacron" xMin="47" yMin="-12" xMax="528" yMax="674">
      <contour>
        <pt x="470" y="603" on="1"/>
        <pt x="188" y="603" on="1"/>
        <pt x="198" y="674" on="1"/>
        <pt x="480" y="674" on="1"/>
      </contour>
      <contour>
        <pt x="460" y="0" on="1"/>
        <pt x="384" y="0" on="1"/>
        <pt x="388" y="90" on="1"/>
        <pt x="300" y="-12" on="0"/>
        <pt x="178" y="-12" on="1"/>
        <pt x="89" y="-12" on="0"/>
        <pt x="27" y="104" on="0"/>
        <pt x="47" y="250" on="1"/>
        <pt x="58" y="331" on="0"/>
        <pt x="98" y="434" on="0"/>
        <pt x="164" y="484" on="0"/>
        <pt x="234" y="501" on="0"/>
        <pt x="289" y="501" on="1"/>
        <pt x="408" y="501" on="0"/>
        <pt x="528" y="475" on="1"/>
      </contour>
      <contour>
        <pt x="387" y="176" on="1"/>
        <pt x="422" y="418" on="1"/>
        <pt x="330" y="420" on="0"/>
        <pt x="319" y="420" on="1"/>
        <pt x="267" y="420" on="0"/>
        <pt x="213" y="410" on="0"/>
        <pt x="172" y="369" on="0"/>
        <pt x="153" y="305" on="0"/>
        <pt x="144" y="243" on="1"/>
        <pt x="130" y="134" on="0"/>
        <pt x="151" y="72" on="0"/>
        <pt x="198" y="72" on="1"/>
        <pt x="244" y="72" on="0"/>
        <pt x="332" y="123" on="0"/>
      </contour>
    </TTGlyph>
    <TTGlyph name="ampersand" xMin="42" yMin="-11" xMax="723" yMax="701">
      <contour>
        <pt x="712" y="319" on="1"/>
        <pt x="611" y="319" on="1"/>
        <pt x="596" y="211" on="0"/>
        <pt x="551" y="139" on="1"/>
        <pt x="458" y="-10" on="0"/>
        <pt x="238" y="-11" on="1"/>
        <pt x="122" y="-12" on="0"/>
        <pt x="30" y="77" on="0"/>
        <pt x="42" y="179" on="1"/>
        <pt x="62" y="347" on="0"/>
        <pt x="208" y="356" on="1"/>
        <pt x="209" y="361" on="1"/>
        <pt x="89" y="370" on="0"/>
        <pt x="114" y="525" on="1"/>
        <pt x="132" y="631" on="0"/>
        <pt x="254" y="701" on="0"/>
        <pt x="378" y="701" on="1"/>
        <pt x="463" y="701" on="0"/>
        <pt x="550" y="679" on="1"/>
        <pt x="533" y="605" on="1"/>
        <pt x="474" y="618" on="0"/>
        <pt x="382" y="618" on="1"/>
        <pt x="293" y="618" on="0"/>
        <pt x="223" y="575" on="0"/>
        <pt x="212" y="504" on="1"/>
        <pt x="202" y="440" on="0"/>
        <pt x="249" y="395" on="0"/>
        <pt x="322" y="395" on="1"/>
        <pt x="531" y="395" on="1"/>
        <pt x="533" y="434" on="0"/>
        <pt x="533" y="520" on="1"/>
        <pt x="621" y="520" on="1"/>
        <pt x="622" y="460" on="0"/>
        <pt x="619" y="395" on="1"/>
        <pt x="723" y="395" on="1"/>
      </contour>
      <contour>
        <pt x="523" y="319" on="1"/>
        <pt x="312" y="319" on="1"/>
        <pt x="232" y="319" on="0"/>
        <pt x="160" y="264" on="0"/>
        <pt x="148" y="189" on="1"/>
        <pt x="138" y="124" on="0"/>
        <pt x="181" y="76" on="0"/>
        <pt x="249" y="76" on="1"/>
        <pt x="399" y="76" on="0"/>
        <pt x="470" y="176" on="1"/>
        <pt x="509" y="230" on="0"/>
      </contour>
    </TTGlyph>
    <TTGlyph name="aogonek" xMin="47" yMin="-213" xMax="528" yMax="501">
      <contour>
        <pt x="528" y="475" on="1"/>
        <pt x="460" y="0" on="1"/>
        <pt x="412" y="-51" on="0"/>
        <pt x="375" y="-115" on="1"/>
        <pt x="356" y="-148" on="0"/>
        <pt x="392" y="-168" on="0"/>
        <pt x="440" y="-152" on="1"/>
        <pt x="451" y="-194" on="1"/>
        <pt x="411" y="-209" on="0"/>
        <pt x="348" y="-216" on="0"/>
        <pt x="311" y="-201" on="0"/>
        <pt x="291" y="-173" on="0"/>
        <pt x="294" y="-134" on="0"/>
        <pt x="305" y="-112" on="1"/>
        <pt x="335" y="-55" on="0"/>
        <pt x="412" y="0" on="1"/>
        <pt x="384" y="0" on="1"/>
        <pt x="388" y="90" on="1"/>
        <pt x="300" y="-12" on="0"/>
        <pt x="178" y="-12" on="1"/>
        <pt x="89" y="-12" on="0"/>
        <pt x="27" y="104" on="0"/>
        <pt x="47" y="250" on="1"/>
        <pt x="58" y="331" on="0"/>
        <pt x="98" y="434" on="0"/>
        <pt x="164" y="484" on="0"/>
        <pt x="234" y="501" on="0"/>
        <pt x="289" y="501" on="1"/>
        <pt x="408" y="501" on="0"/>
      </contour>
      <contour>
        <pt x="387" y="176" on="1"/>
        <pt x="422" y="418" on="1"/>
        <pt x="330" y="420" on="0"/>
        <pt x="319" y="420" on="1"/>
        <pt x="267" y="420" on="0"/>
        <pt x="213" y="410" on="0"/>
        <pt x="172" y="369" on="0"/>
        <pt x="153" y="305" on="0"/>
        <pt x="144" y="243" on="1"/>
        <pt x="130" y="134" on="0"/>
        <pt x="151" y="72" on="0"/>
        <pt x="198" y="72" on="1"/>
        <pt x="244" y="72" on="0"/>
        <pt x="332" y="123" on="0"/>
      </contour>
    </TTGlyph>
    <TTGlyph name="approxequal" xMin="51" yMin="129" xMax="532" yMax="450">
      <contour>
        <pt x="142" y="322" on="1"/>
        <pt x="79" y="326" on="1"/>
        <pt x="79" y="392" on="0"/>
        <pt x="139" y="452" on="0"/>
        <pt x="190" y="450" on="1"/>
        <pt x="225" y="448" on="0"/>
        <pt x="380" y="394" on="0"/>
        <pt x="413" y="393" on="1"/>
        <pt x="439" y="392" on="0"/>
        <pt x="463" y="415" on="0"/>
        <pt x="468" y="446" on="1"/>
        <pt x="532" y="443" on="1"/>
        <pt x="533" y="380" on="0"/>
        <pt x="476" y="319" on="0"/>
        <pt x="418" y="320" on="1"/>
        <pt x="379" y="321" on="0"/>
        <pt x="225" y="377" on="0"/>
        <pt x="197" y="378" on="1"/>
        <pt x="171" y="379" on="0"/>
        <pt x="146" y="354" on="0"/>
      </contour>
      <contour>
        <pt x="115" y="130" on="1"/>
        <pt x="51" y="134" on="1"/>
        <pt x="51" y="201" on="0"/>
        <pt x="111" y="261" on="0"/>
        <pt x="163" y="259" on="1"/>
        <pt x="198" y="257" on="0"/>
        <pt x="353" y="202" on="0"/>
        <pt x="386" y="201" on="1"/>
        <pt x="412" y="200" on="0"/>
        <pt x="436" y="224" on="0"/>
        <pt x="441" y="255" on="1"/>
        <pt x="505" y="251" on="1"/>
        <pt x="506" y="189" on="0"/>
        <pt x="450" y="128" on="0"/>
        <pt x="392" y="129" on="1"/>
        <pt x="352" y="130" on="0"/>
        <pt x="198" y="185" on="0"/>
        <pt x="170" y="186" on="1"/>
        <pt x="144" y="187" on="0"/>
        <pt x="119" y="162" on="0"/>
      </contour>
    </TTGlyph>
    <TTGlyph name="aring" xMin="47" yMin="-12" xMax="528" yMax="748">
      <contour>
        <pt x="330" y="534" on="1"/>
        <pt x="280" y="534" on="0"/>
        <pt x="222" y="597" on="0"/>
        <pt x="227" y="644" on="1"/>
        <pt x="232" y="688" on="0"/>
        <pt x="292" y="748" on="0"/>
        <pt x="340" y="748" on="1"/>
        <pt x="389" y="748" on="0"/>
        <pt x="449" y="685" on="0"/>
        <pt x="443" y="637" on="1"/>
        <pt x="438" y="593" on="0"/>
        <pt x="378" y="534" on="0"/>
      </contour>
      <contour>
        <pt x="279" y="641" on="1"/>
        <pt x="276" y="614" on="0"/>
        <pt x="306" y="583" on="0"/>
        <pt x="356" y="583" on="0"/>
        <pt x="389" y="616" on="0"/>
        <pt x="391" y="643" on="1"/>
        <pt x="393" y="668" on="0"/>
        <pt x="366" y="699" on="0"/>
        <pt x="341" y="699" on="1"/>
        <pt x="315" y="699" on="0"/>
        <pt x="282" y="667" on="0"/>
      </contour>
      <contour>
        <pt x="460" y="0" on="1"/>
        <pt x="384" y="0" on="1"/>
        <pt x="388" y="90" on="1"/>
        <pt x="300" y="-12" on="0"/>
        <pt x="178" y="-12" on="1"/>
        <pt x="89" y="-12" on="0"/>
        <pt x="27" y="104" on="0"/>
        <pt x="47" y="250" on="1"/>
        <pt x="58" y="331" on="0"/>
        <pt x="98" y="434" on="0"/>
        <pt x="164" y="484" on="0"/>
        <pt x="234" y="501" on="0"/>
        <pt x="289" y="501" on="1"/>
        <pt x="408" y="501" on="0"/>
        <pt x="528" y="475" on="1"/>
      </contour>
      <contour>
        <pt x="387" y="176" on="1"/>
        <pt x="422" y="418" on="1"/>
        <pt x="330" y="420" on="0"/>
        <pt x="319" y="420" on="1"/>
        <pt x="267" y="420" on="0"/>
        <pt x="213" y="410" on="0"/>
        <pt x="172" y="369" on="0"/>
        <pt x="153" y="305" on="0"/>
        <pt x="144" y="243" on="1"/>
        <pt x="130" y="134" on="0"/>
        <pt x="151" y="72" on="0"/>
        <pt x="198" y="72" on="1"/>
        <pt x="244" y="72" on="0"/>
        <pt x="332" y="123" on="0"/>
      </contour>
    </TTGlyph>
    <TTGlyph name="asciicircum" xMin="51" yMin="369" xMax="424" yMax="605">
      <contour>
        <pt x="424" y="392" on="1"/>
        <pt x="383" y="369" on="1"/>
        <pt x="267" y="541" on="1"/>
        <pt x="259" y="541" on="1"/>
        <pt x="88" y="369" on="1"/>
        <pt x="51" y="392" on="1"/>
        <pt x="231" y="605" on="1"/>
        <pt x="302" y="605" on="1"/>
      </contour>
    </TTGlyph>
    <TTGlyph name="asciitilde" xMin="63" yMin="223" xMax="454" yMax="351">
      <contour>
        <pt x="113" y="223" on="1"/>
        <pt x="63" y="227" on="1"/>
        <pt x="64" y="290" on="0"/>
        <pt x="115" y="353" on="0"/>
        <pt x="191" y="349" on="0"/>
        <pt x="328" y="297" on="0"/>
        <pt x="350" y="294" on="1"/>
        <pt x="377" y="291" on="0"/>
        <pt x="401" y="317" on="0"/>
        <pt x="406" y="348" on="1"/>
        <pt x="454" y="344" on="1"/>
        <pt x="454" y="283" on="0"/>
        <pt x="404" y="220" on="0"/>
        <pt x="366" y="223" on="1"/>
        <pt x="322" y="225" on="0"/>
        <pt x="187" y="277" on="0"/>
        <pt x="168" y="279" on="1"/>
        <pt x="141" y="282" on="0"/>
        <pt x="117" y="256" on="0"/>
      </contour>
    </TTGlyph>
    <TTGlyph name="asterisk" xMin="84" yMin="366" xMax="434" yMax="691">
      <contour>
        <pt x="276" y="529" on="1"/>
        <pt x="361" y="400" on="1"/>
        <pt x="313" y="366" on="1"/>
        <pt x="254" y="490" on="1"/>
        <pt x="161" y="367" on="1"/>
        <pt x="117" y="401" on="1"/>
        <pt x="237" y="529" on="1"/>
        <pt x="251" y="691" on="1"/>
        <pt x="309" y="691" on="1"/>
      </contour>
      <contour>
        <pt x="224" y="557" on="1"/>
        <pt x="220" y="532" on="1"/>
        <pt x="206" y="516" on="1"/>
        <pt x="84" y="550" on="1"/>
        <pt x="107" y="603" on="1"/>
      </contour>
      <contour>
        <pt x="434" y="545" on="1"/>
        <pt x="307" y="516" on="1"/>
        <pt x="298" y="532" on="1"/>
        <pt x="298" y="557" on="1"/>
        <pt x="423" y="603" on="1"/>
      </contour>
    </TTGlyph>
    <TTGlyph name="at" xMin="54" yMin="-12" xMax="724" yMax="648">
      <contour>
        <pt x="108" y="567" on="1"/>
        <pt x="116" y="639" on="1"/>
        <pt x="268" y="646" on="0"/>
        <pt x="433" y="648" on="1"/>
        <pt x="504" y="649" on="0"/>
        <pt x="594" y="641" on="0"/>
        <pt x="668" y="615" on="0"/>
        <pt x="705" y="571" on="0"/>
        <pt x="725" y="494" on="0"/>
        <pt x="722" y="392" on="0"/>
        <pt x="711" y="317" on="1"/>
        <pt x="695" y="185" on="0"/>
        <pt x="644" y="47" on="0"/>
        <pt x="562" y="-8" on="0"/>
        <pt x="491" y="-8" on="1"/>
        <pt x="383" y="-8" on="0"/>
        <pt x="373" y="90" on="1"/>
        <pt x="291" y="-12" on="0"/>
        <pt x="182" y="-12" on="1"/>
        <pt x="97" y="-12" on="0"/>
        <pt x="33" y="101" on="0"/>
        <pt x="54" y="230" on="1"/>
        <pt x="66" y="302" on="0"/>
        <pt x="105" y="392" on="0"/>
        <pt x="168" y="438" on="0"/>
        <pt x="236" y="453" on="0"/>
        <pt x="290" y="453" on="1"/>
        <pt x="373" y="453" on="0"/>
        <pt x="515" y="427" on="1"/>
        <pt x="468" y="120" on="1"/>
        <pt x="462" y="74" on="0"/>
        <pt x="499" y="74" on="1"/>
        <pt x="554" y="74" on="0"/>
        <pt x="601" y="179" on="0"/>
        <pt x="620" y="325" on="1"/>
        <pt x="625" y="363" on="0"/>
        <pt x="632" y="416" on="0"/>
        <pt x="633" y="466" on="0"/>
        <pt x="632" y="498" on="0"/>
        <pt x="619" y="527" on="0"/>
        <pt x="609" y="543" on="0"/>
        <pt x="578" y="557" on="0"/>
        <pt x="556" y="563" on="0"/>
        <pt x="505" y="567" on="0"/>
        <pt x="466" y="567" on="0"/>
        <pt x="430" y="567" on="1"/>
      </contour>
      <contour>
        <pt x="380" y="177" on="1"/>
        <pt x="412" y="373" on="1"/>
        <pt x="324" y="375" on="0"/>
        <pt x="323" y="375" on="1"/>
        <pt x="271" y="375" on="0"/>
        <pt x="216" y="366" on="0"/>
        <pt x="175" y="330" on="0"/>
        <pt x="157" y="276" on="0"/>
        <pt x="148" y="223" on="1"/>
        <pt x="133" y="129" on="0"/>
        <pt x="156" y="70" on="0"/>
        <pt x="203" y="70" on="1"/>
        <pt x="248" y="70" on="0"/>
        <pt x="328" y="120" on="0"/>
      </contour>
    </TTGlyph>
    <TTGlyph name="atilde" xMin="47" yMin="-12" xMax="528" yMax="703">
      <contour>
        <pt x="459" y="700" on="1"/>
        <pt x="503" y="696" on="1"/>
        <pt x="502" y="638" on="0"/>
        <pt x="452" y="578" on="0"/>
        <pt x="414" y="581" on="1"/>
        <pt x="374" y="584" on="0"/>
        <pt x="286" y="633" on="0"/>
        <pt x="269" y="636" on="1"/>
        <pt x="241" y="639" on="0"/>
        <pt x="214" y="612" on="0"/>
        <pt x="210" y="582" on="1"/>
        <pt x="166" y="586" on="1"/>
        <pt x="168" y="646" on="0"/>
        <pt x="219" y="706" on="0"/>
        <pt x="256" y="703" on="1"/>
        <pt x="291" y="700" on="0"/>
        <pt x="376" y="653" on="0"/>
        <pt x="400" y="650" on="1"/>
        <pt x="428" y="646" on="0"/>
        <pt x="455" y="671" on="0"/>
      </contour>
      <contour>
        <pt x="460" y="0" on="1"/>
        <pt x="384" y="0" on="1"/>
        <pt x="388" y="90" on="1"/>
        <pt x="300" y="-12" on="0"/>
        <pt x="178" y="-12" on="1"/>
        <pt x="89" y="-12" on="0"/>
        <pt x="27" y="104" on="0"/>
        <pt x="47" y="250" on="1"/>
        <pt x="58" y="331" on="0"/>
        <pt x="98" y="434" on="0"/>
        <pt x="164" y="484" on="0"/>
        <pt x="234" y="501" on="0"/>
        <pt x="289" y="501" on="1"/>
        <pt x="408" y="501" on="0"/>
        <pt x="528" y="475" on="1"/>
      </contour>
      <contour>
        <pt x="387" y="176" on="1"/>
        <pt x="422" y="418" on="1"/>
        <pt x="330" y="420" on="0"/>
        <pt x="319" y="420" on="1"/>
        <pt x="267" y="420" on="0"/>
        <pt x="213" y="410" on="0"/>
        <pt x="172" y="369" on="0"/>
        <pt x="153" y="305" on="0"/>
        <pt x="144" y="243" on="1"/>
        <pt x="130" y="134" on="0"/>
        <pt x="151" y="72" on="0"/>
        <pt x="198" y="72" on="1"/>
        <pt x="244" y="72" on="0"/>
        <pt x="332" y="123" on="0"/>
      </contour>
    </TTGlyph>
    <TTGlyph name="b" xMin="34" yMin="-13" xMax="517" yMax="700">
      <contour>
        <pt x="225" y="700" on="1"/>
        <pt x="198" y="498" on="1"/>
        <pt x="189" y="432" on="0"/>
        <pt x="172" y="386" on="1"/>
        <pt x="220" y="434" on="0"/>
        <pt x="335" y="500" on="0"/>
        <pt x="384" y="500" on="1"/>
        <pt x="442" y="500" on="0"/>
        <pt x="504" y="457" on="0"/>
        <pt x="530" y="340" on="0"/>
        <pt x="513" y="238" on="1"/>
        <pt x="502" y="156" on="0"/>
        <pt x="462" y="53" on="0"/>
        <pt x="398" y="3" on="0"/>
        <pt x="332" y="-13" on="0"/>
        <pt x="280" y="-13" on="1"/>
        <pt x="158" y="-13" on="0"/>
        <pt x="34" y="23" on="1"/>
        <pt x="129" y="700" on="1"/>
      </contour>
      <contour>
        <pt x="170" y="310" on="1"/>
        <pt x="137" y="70" on="1"/>
        <pt x="209" y="67" on="0"/>
        <pt x="244" y="67" on="1"/>
        <pt x="339" y="67" on="0"/>
        <pt x="399" y="128" on="0"/>
        <pt x="415" y="245" on="1"/>
        <pt x="429" y="354" on="0"/>
        <pt x="407" y="416" on="0"/>
        <pt x="361" y="416" on="1"/>
        <pt x="290" y="416" on="0"/>
      </contour>
    </TTGlyph>
    <TTGlyph name="backslash" xMin="78" yMin="-67" xMax="441" yMax="690">
      <contour>
        <pt x="441" y="-67" on="1"/>
        <pt x="367" y="-67" on="1"/>
        <pt x="78" y="690" on="1"/>
        <pt x="152" y="690" on="1"/>
      </contour>
    </TTGlyph>
    <TTGlyph name="bar" xMin="24" yMin="-169" xMax="227" yMax="781">
      <contour>
        <pt x="93" y="-169" on="1"/>
        <pt x="24" y="-169" on="1"/>
        <pt x="157" y="781" on="1"/>
        <pt x="227" y="781" on="1"/>
      </contour>
    </TTGlyph>
    <TTGlyph name="braceleft" xMin="42" yMin="-165" xMax="345" yMax="768">
      <contour>
        <pt x="345" y="768" on="1"/>
        <pt x="342" y="707" on="1"/>
        <pt x="292" y="707" on="0"/>
        <pt x="246" y="669" on="0"/>
        <pt x="239" y="624" on="1"/>
        <pt x="215" y="451" on="1"/>
        <pt x="207" y="387" on="0"/>
        <pt x="164" y="337" on="0"/>
        <pt x="107" y="327" on="1"/>
        <pt x="159" y="310" on="0"/>
        <pt x="192" y="258" on="0"/>
        <pt x="184" y="205" on="1"/>
        <pt x="152" y="-26" on="1"/>
        <pt x="145" y="-71" on="0"/>
        <pt x="176" y="-104" on="0"/>
        <pt x="226" y="-104" on="1"/>
        <pt x="222" y="-165" on="1"/>
        <pt x="130" y="-172" on="0"/>
        <pt x="49" y="-101" on="0"/>
        <pt x="60" y="-29" on="1"/>
        <pt x="95" y="224" on="1"/>
        <pt x="100" y="259" on="0"/>
        <pt x="80" y="281" on="0"/>
        <pt x="42" y="295" on="1"/>
        <pt x="51" y="363" on="1"/>
        <pt x="81" y="371" on="0"/>
        <pt x="101" y="381" on="0"/>
        <pt x="118" y="410" on="0"/>
        <pt x="122" y="441" on="1"/>
        <pt x="149" y="636" on="1"/>
        <pt x="159" y="710" on="0"/>
        <pt x="250" y="776" on="0"/>
      </contour>
    </TTGlyph>
    <TTGlyph name="braceright" xMin="-25" yMin="-165" xMax="290" yMax="768">
      <contour>
        <pt x="102" y="707" on="1"/>
        <pt x="105" y="768" on="1"/>
        <pt x="199" y="777" on="0"/>
        <pt x="278" y="702" on="0"/>
        <pt x="268" y="632" on="1"/>
        <pt x="241" y="436" on="1"/>
        <pt x="235" y="393" on="0"/>
        <pt x="250" y="373" on="0"/>
        <pt x="290" y="361" on="1"/>
        <pt x="281" y="293" on="1"/>
        <pt x="258" y="285" on="0"/>
        <pt x="242" y="278" on="0"/>
        <pt x="219" y="262" on="0"/>
        <pt x="210" y="238" on="0"/>
        <pt x="207" y="219" on="1"/>
        <pt x="171" y="-33" on="1"/>
        <pt x="161" y="-107" on="0"/>
        <pt x="72" y="-173" on="0"/>
        <pt x="-25" y="-165" on="1"/>
        <pt x="-21" y="-104" on="1"/>
        <pt x="29" y="-104" on="0"/>
        <pt x="74" y="-67" on="0"/>
        <pt x="80" y="-22" on="1"/>
        <pt x="113" y="209" on="1"/>
        <pt x="121" y="263" on="0"/>
        <pt x="165" y="311" on="0"/>
        <pt x="225" y="329" on="1"/>
        <pt x="174" y="339" on="0"/>
        <pt x="141" y="393" on="0"/>
        <pt x="151" y="455" on="1"/>
        <pt x="176" y="628" on="1"/>
        <pt x="182" y="673" on="0"/>
        <pt x="152" y="707" on="0"/>
      </contour>
    </TTGlyph>
    <TTGlyph name="bracketleft" xMin="30" yMin="-165" xMax="357" yMax="768">
      <contour>
        <pt x="348" y="705" on="1"/>
        <pt x="254" y="705" on="1"/>
        <pt x="247" y="705" on="0"/>
        <pt x="235" y="694" on="0"/>
        <pt x="233" y="687" on="1"/>
        <pt x="124" y="-88" on="1"/>
        <pt x="122" y="-102" on="0"/>
        <pt x="135" y="-102" on="1"/>
        <pt x="235" y="-102" on="1"/>
        <pt x="226" y="-165" on="1"/>
        <pt x="82" y="-165" on="1"/>
        <pt x="56" y="-165" on="0"/>
        <pt x="26" y="-135" on="0"/>
        <pt x="30" y="-105" on="1"/>
        <pt x="145" y="712" on="1"/>
        <pt x="149" y="738" on="0"/>
        <pt x="183" y="768" on="0"/>
        <pt x="209" y="768" on="1"/>
        <pt x="357" y="768" on="1"/>
      </contour>
    </TTGlyph>
    <TTGlyph name="bracketright" xMin="-27" yMin="-165" xMax="300" yMax="768">
      <contour>
        <pt x="104" y="768" on="1"/>
        <pt x="247" y="768" on="1"/>
        <pt x="273" y="768" on="0"/>
        <pt x="304" y="733" on="0"/>
        <pt x="300" y="708" on="1"/>
        <pt x="185" y="-109" on="1"/>
        <pt x="181" y="-135" on="0"/>
        <pt x="146" y="-165" on="0"/>
        <pt x="121" y="-165" on="1"/>
        <pt x="-27" y="-165" on="1"/>
        <pt x="-18" y="-102" on="1"/>
        <pt x="75" y="-102" on="1"/>
        <pt x="82" y="-102" on="0"/>
        <pt x="95" y="-91" on="0"/>
        <pt x="97" y="-84" on="1"/>
        <pt x="206" y="691" on="1"/>
        <pt x="208" y="705" on="0"/>
        <pt x="195" y="705" on="1"/>
        <pt x="95" y="705" on="1"/>
      </contour>
    </TTGlyph>
    <TTGlyph name="breve" xMin="100" yMin="556" xMax="405" yMax="700">
      <contour>
        <pt x="357" y="700" on="1"/>
        <pt x="405" y="689" on="1"/>
        <pt x="400" y="629" on="0"/>
        <pt x="310" y="556" on="0"/>
        <pt x="239" y="556" on="1"/>
        <pt x="163" y="556" on="0"/>
        <pt x="87" y="633" on="0"/>
        <pt x="100" y="693" on="1"/>
        <pt x="149" y="696" on="1"/>
        <pt x="145" y="663" on="0"/>
        <pt x="192" y="627" on="0"/>
        <pt x="238" y="627" on="1"/>
        <pt x="289" y="627" on="0"/>
        <pt x="352" y="666" on="0"/>
      </contour>
    </TTGlyph>
    <TTGlyph name="brevecy" xMin="100" yMin="556" xMax="405" yMax="696">
      <contour>
        <pt x="331" y="696" on="1"/>
        <pt x="405" y="696" on="1"/>
        <pt x="400" y="633" on="0"/>
        <pt x="310" y="556" on="0"/>
        <pt x="239" y="556" on="1"/>
        <pt x="164" y="556" on="0"/>
        <pt x="87" y="634" on="0"/>
        <pt x="100" y="696" on="1"/>
        <pt x="172" y="696" on="1"/>
        <pt x="159" y="609" on="0"/>
        <pt x="245" y="609" on="1"/>
        <pt x="322" y="609" on="0"/>
      </contour>
    </TTGlyph>
    <TTGlyph name="brokenbar" xMin="24" yMin="-169" xMax="227" yMax="781">
      <contour>
        <pt x="171" y="381" on="1"/>
        <pt x="101" y="381" on="1"/>
        <pt x="157" y="781" on="1"/>
        <pt x="227" y="781" on="1"/>
      </contour>
      <contour>
        <pt x="94" y="-169" on="1"/>
        <pt x="24" y="-169" on="1"/>
        <pt x="80" y="231" on="1"/>
        <pt x="150" y="231" on="1"/>
      </contour>
    </TTGlyph>
    <TTGlyph name="bullet" xMin="83" yMin="173" xMax="273" yMax="362">
      <contour>
        <pt x="184" y="362" on="1"/>
        <pt x="197" y="362" on="1"/>
        <pt x="245" y="362" on="0"/>
        <pt x="280" y="322" on="0"/>
        <pt x="273" y="274" on="1"/>
        <pt x="271" y="260" on="1"/>
        <pt x="264" y="209" on="0"/>
        <pt x="224" y="173" on="0"/>
        <pt x="175" y="173" on="1"/>
        <pt x="162" y="173" on="1"/>
        <pt x="111" y="173" on="0"/>
        <pt x="76" y="214" on="0"/>
        <pt x="83" y="265" on="1"/>
        <pt x="85" y="278" on="1"/>
        <pt x="92" y="327" on="0"/>
        <pt x="133" y="362" on="0"/>
      </contour>
    </TTGlyph>
    <TTGlyph name="c" xMin="44" yMin="-12" xMax="467" yMax="501">
      <contour>
        <pt x="410" y="80" on="1"/>
        <pt x="417" y="14" on="1"/>
        <pt x="342" y="-12" on="0"/>
        <pt x="245" y="-12" on="1"/>
        <pt x="116" y="-12" on="0"/>
        <pt x="24" y="108" on="0"/>
        <pt x="44" y="248" on="1"/>
        <pt x="63" y="388" on="0"/>
        <pt x="181" y="501" on="0"/>
        <pt x="307" y="501" on="1"/>
        <pt x="405" y="501" on="0"/>
        <pt x="467" y="475" on="1"/>
        <pt x="452" y="415" on="1"/>
        <pt x="392" y="419" on="0"/>
        <pt x="322" y="419" on="1"/>
        <pt x="234" y="419" on="0"/>
        <pt x="157" y="348" on="0"/>
        <pt x="131" y="134" on="0"/>
        <pt x="180" y="69" on="0"/>
        <pt x="263" y="69" on="1"/>
        <pt x="348" y="69" on="0"/>
      </contour>
    </TTGlyph>
    <TTGlyph name="cacute" xMin="44" yMin="-12" xMax="477" yMax="738">
      <contour>
        <pt x="477" y="664" on="1"/>
        <pt x="264" y="547" on="1"/>
        <pt x="236" y="592" on="1"/>
        <pt x="432" y="738" on="1"/>
      </contour>
      <contour>
        <pt x="410" y="80" on="1"/>
        <pt x="417" y="14" on="1"/>
        <pt x="342" y="-12" on="0"/>
        <pt x="245" y="-12" on="1"/>
        <pt x="116" y="-12" on="0"/>
        <pt x="24" y="108" on="0"/>
        <pt x="44" y="248" on="1"/>
        <pt x="63" y="388" on="0"/>
        <pt x="181" y="501" on="0"/>
        <pt x="307" y="501" on="1"/>
        <pt x="405" y="501" on="0"/>
        <pt x="467" y="475" on="1"/>
        <pt x="452" y="415" on="1"/>
        <pt x="392" y="419" on="0"/>
        <pt x="322" y="419" on="1"/>
        <pt x="234" y="419" on="0"/>
        <pt x="157" y="348" on="0"/>
        <pt x="131" y="134" on="0"/>
        <pt x="180" y="69" on="0"/>
        <pt x="263" y="69" on="1"/>
        <pt x="348" y="69" on="0"/>
      </contour>
    </TTGlyph>
    <TTGlyph name="caron" xMin="107" yMin="558" xMax="443" yMax="728">
      <contour>
        <pt x="443" y="687" on="1"/>
        <pt x="294" y="558" on="1"/>
        <pt x="224" y="558" on="1"/>
        <pt x="107" y="693" on="1"/>
        <pt x="146" y="728" on="1"/>
        <pt x="258" y="629" on="1"/>
        <pt x="266" y="629" on="1"/>
        <pt x="413" y="728" on="1"/>
      </contour>
    </TTGlyph>
    <TTGlyph name="ccaron" xMin="44" yMin="-12" xMax="488" yMax="734">
      <contour>
        <pt x="488" y="692" on="1"/>
        <pt x="339" y="563" on="1"/>
        <pt x="269" y="563" on="1"/>
        <pt x="152" y="698" on="1"/>
        <pt x="191" y="734" on="1"/>
        <pt x="304" y="634" on="1"/>
        <pt x="312" y="634" on="1"/>
        <pt x="458" y="734" on="1"/>
      </contour>
      <contour>
        <pt x="410" y="80" on="1"/>
        <pt x="417" y="14" on="1"/>
        <pt x="342" y="-12" on="0"/>
        <pt x="245" y="-12" on="1"/>
        <pt x="116" y="-12" on="0"/>
        <pt x="24" y="108" on="0"/>
        <pt x="44" y="248" on="1"/>
        <pt x="63" y="388" on="0"/>
        <pt x="181" y="501" on="0"/>
        <pt x="307" y="501" on="1"/>
        <pt x="405" y="501" on="0"/>
        <pt x="467" y="475" on="1"/>
        <pt x="452" y="415" on="1"/>
        <pt x="392" y="419" on="0"/>
        <pt x="322" y="419" on="1"/>
        <pt x="234" y="419" on="0"/>
        <pt x="157" y="348" on="0"/>
        <pt x="131" y="134" on="0"/>
        <pt x="180" y="69" on="0"/>
        <pt x="263" y="69" on="1"/>
        <pt x="348" y="69" on="0"/>
      </contour>
    </TTGlyph>
    <TTGlyph name="ccedilla" xMin="44" yMin="-243" xMax="467" yMax="501">
      <contour>
        <pt x="410" y="80" on="1"/>
        <pt x="417" y="14" on="1"/>
        <pt x="342" y="-12" on="0"/>
        <pt x="245" y="-12" on="1"/>
        <pt x="116" y="-12" on="0"/>
        <pt x="24" y="108" on="0"/>
        <pt x="44" y="248" on="1"/>
        <pt x="63" y="388" on="0"/>
        <pt x="181" y="501" on="0"/>
        <pt x="307" y="501" on="1"/>
        <pt x="405" y="501" on="0"/>
        <pt x="467" y="475" on="1"/>
        <pt x="452" y="415" on="1"/>
        <pt x="392" y="419" on="0"/>
        <pt x="322" y="419" on="1"/>
        <pt x="234" y="419" on="0"/>
        <pt x="157" y="348" on="0"/>
        <pt x="131" y="134" on="0"/>
        <pt x="180" y="69" on="0"/>
        <pt x="263" y="69" on="1"/>
        <pt x="348" y="69" on="0"/>
      </contour>
      <contour>
        <pt x="166" y="-99" on="1"/>
        <pt x="177" y="-54" on="1"/>
        <pt x="244" y="-48" on="0"/>
        <pt x="297" y="-76" on="0"/>
        <pt x="288" y="-123" on="1"/>
        <pt x="278" y="-187" on="0"/>
        <pt x="173" y="-253" on="0"/>
        <pt x="100" y="-243" on="1"/>
        <pt x="118" y="-192" on="1"/>
        <pt x="156" y="-193" on="0"/>
        <pt x="213" y="-155" on="0"/>
        <pt x="219" y="-123" on="1"/>
        <pt x="222" y="-109" on="0"/>
        <pt x="203" y="-100" on="0"/>
      </contour>
    </TTGlyph>
    <TTGlyph name="cdotaccent" xMin="44" yMin="-12" xMax="467" yMax="689">
      <contour>
        <pt x="301" y="689" on="1"/>
        <pt x="332" y="689" on="1"/>
        <pt x="346" y="689" on="0"/>
        <pt x="361" y="672" on="0"/>
        <pt x="359" y="659" on="1"/>
        <pt x="351" y="603" on="1"/>
        <pt x="346" y="576" on="0"/>
        <pt x="321" y="576" on="1"/>
        <pt x="291" y="576" on="1"/>
        <pt x="277" y="576" on="0"/>
        <pt x="262" y="593" on="0"/>
        <pt x="264" y="607" on="1"/>
        <pt x="271" y="662" on="1"/>
        <pt x="275" y="689" on="0"/>
      </contour>
      <contour>
        <pt x="410" y="80" on="1"/>
        <pt x="417" y="14" on="1"/>
        <pt x="342" y="-12" on="0"/>
        <pt x="245" y="-12" on="1"/>
        <pt x="116" y="-12" on="0"/>
        <pt x="24" y="108" on="0"/>
        <pt x="44" y="248" on="1"/>
        <pt x="63" y="388" on="0"/>
        <pt x="181" y="501" on="0"/>
        <pt x="307" y="501" on="1"/>
        <pt x="405" y="501" on="0"/>
        <pt x="467" y="475" on="1"/>
        <pt x="452" y="415" on="1"/>
        <pt x="392" y="419" on="0"/>
        <pt x="322" y="419" on="1"/>
        <pt x="234" y="419" on="0"/>
        <pt x="157" y="348" on="0"/>
        <pt x="131" y="134" on="0"/>
        <pt x="180" y="69" on="0"/>
        <pt x="263" y="69" on="1"/>
        <pt x="348" y="69" on="0"/>
      </contour>
    </TTGlyph>
    <TTGlyph name="cedilla" xMin="-32" yMin="-231" xMax="155" yMax="-42">
      <contour>
        <pt x="33" y="-87" on="1"/>
        <pt x="44" y="-42" on="1"/>
        <pt x="111" y="-36" on="0"/>
        <pt x="164" y="-64" on="0"/>
        <pt x="155" y="-111" on="1"/>
        <pt x="145" y="-175" on="0"/>
        <pt x="41" y="-241" on="0"/>
        <pt x="-32" y="-231" on="1"/>
        <pt x="-14" y="-180" on="1"/>
        <pt x="23" y="-181" on="0"/>
        <pt x="80" y="-143" on="0"/>
        <pt x="86" y="-111" on="1"/>
        <pt x="89" y="-97" on="0"/>
        <pt x="70" y="-88" on="0"/>
      </contour>
    </TTGlyph>
    <TTGlyph name="cent" xMin="58" yMin="0" xMax="481" yMax="690">
      <contour>
        <pt x="481" y="578" on="1"/>
        <pt x="467" y="518" on="1"/>
        <pt x="419" y="522" on="0"/>
        <pt x="361" y="522" on="1"/>
        <pt x="282" y="172" on="1"/>
        <pt x="374" y="175" on="0"/>
        <pt x="424" y="183" on="1"/>
        <pt x="431" y="117" on="1"/>
        <pt x="356" y="91" on="0"/>
        <pt x="261" y="91" on="1"/>
        <pt x="240" y="0" on="1"/>
        <pt x="194" y="0" on="1"/>
        <pt x="216" y="93" on="1"/>
        <pt x="113" y="102" on="0"/>
        <pt x="40" y="223" on="0"/>
        <pt x="58" y="351" on="1"/>
        <pt x="78" y="491" on="0"/>
        <pt x="196" y="604" on="0"/>
        <pt x="321" y="604" on="1"/>
        <pt x="335" y="604" on="1"/>
        <pt x="356" y="690" on="1"/>
        <pt x="402" y="690" on="1"/>
        <pt x="380" y="601" on="1"/>
        <pt x="444" y="594" on="0"/>
      </contour>
      <contour>
        <pt x="236" y="174" on="1"/>
        <pt x="314" y="522" on="1"/>
        <pt x="240" y="519" on="0"/>
        <pt x="171" y="445" on="0"/>
        <pt x="159" y="344" on="1"/>
        <pt x="147" y="251" on="0"/>
        <pt x="181" y="180" on="0"/>
      </contour>
    </TTGlyph>
    <TTGlyph name="circumflex" xMin="96" yMin="541" xMax="436" yMax="714">
      <contour>
        <pt x="436" y="579" on="1"/>
        <pt x="401" y="541" on="1"/>
        <pt x="281" y="642" on="1"/>
        <pt x="272" y="642" on="1"/>
        <pt x="123" y="544" on="1"/>
        <pt x="96" y="585" on="1"/>
        <pt x="243" y="714" on="1"/>
        <pt x="312" y="714" on="1"/>
      </contour>
    </TTGlyph>
    <TTGlyph name="colon" xMin="27" yMin="0" xMax="181" yMax="442">
      <contour>
        <pt x="117" y="442" on="1"/>
        <pt x="149" y="442" on="1"/>
        <pt x="187" y="442" on="0"/>
        <pt x="181" y="405" on="1"/>
        <pt x="174" y="352" on="1"/>
        <pt x="170" y="318" on="0"/>
        <pt x="137" y="318" on="1"/>
        <pt x="105" y="318" on="1"/>
        <pt x="67" y="318" on="0"/>
        <pt x="71" y="355" on="1"/>
        <pt x="79" y="409" on="1"/>
        <pt x="83" y="442" on="0"/>
      </contour>
      <contour>
        <pt x="72" y="124" on="1"/>
        <pt x="104" y="124" on="1"/>
        <pt x="141" y="124" on="0"/>
        <pt x="137" y="87" on="1"/>
        <pt x="129" y="34" on="1"/>
        <pt x="126" y="0" on="0"/>
        <pt x="92" y="0" on="1"/>
        <pt x="60" y="0" on="1"/>
        <pt x="21" y="0" on="0"/>
        <pt x="27" y="37" on="1"/>
        <pt x="35" y="91" on="1"/>
        <pt x="39" y="124" on="0"/>
      </contour>
    </TTGlyph>
    <TTGlyph name="comma" xMin="24" yMin="-136" xMax="139" yMax="124">
      <contour>
        <pt x="80" y="124" on="1"/>
        <pt x="108" y="124" on="1"/>
        <pt x="145" y="124" on="0"/>
        <pt x="139" y="87" on="1"/>
        <pt x="130" y="23" on="1"/>
        <pt x="122" y="-47" on="0"/>
        <pt x="71" y="-136" on="1"/>
        <pt x="24" y="-120" on="1"/>
        <pt x="49" y="-42" on="0"/>
        <pt x="57" y="2" on="1"/>
        <pt x="42" y="1" on="0"/>
        <pt x="26" y="18" on="0"/>
        <pt x="28" y="33" on="1"/>
        <pt x="36" y="91" on="1"/>
        <pt x="40" y="111" on="0"/>
        <pt x="58" y="124" on="0"/>
      </contour>
    </TTGlyph>
    <TTGlyph name="copyright" xMin="63" yMin="-13" xMax="782" yMax="703">
      <contour>
        <pt x="299" y="703" on="0"/>
        <pt x="621" y="703" on="0"/>
        <pt x="802" y="501" on="0"/>
        <pt x="782" y="341" on="1"/>
        <pt x="762" y="186" on="0"/>
        <pt x="543" y="-13" on="0"/>
        <pt x="382" y="-13" on="1"/>
        <pt x="220" y="-13" on="0"/>
        <pt x="43" y="192" on="0"/>
        <pt x="63" y="349" on="1"/>
        <pt x="83" y="502" on="0"/>
      </contour>
      <contour>
        <pt x="464" y="654" on="1"/>
        <pt x="324" y="654" on="0"/>
        <pt x="132" y="478" on="0"/>
        <pt x="98" y="204" on="0"/>
        <pt x="248" y="36" on="0"/>
        <pt x="381" y="36" on="1"/>
        <pt x="520" y="36" on="0"/>
        <pt x="713" y="212" on="0"/>
        <pt x="730" y="349" on="1"/>
        <pt x="747" y="482" on="0"/>
        <pt x="600" y="654" on="0"/>
      </contour>
      <contour>
        <pt x="542" y="200" on="1"/>
        <pt x="546" y="145" on="1"/>
        <pt x="485" y="129" on="0"/>
        <pt x="411" y="129" on="1"/>
        <pt x="293" y="129" on="0"/>
        <pt x="216" y="226" on="0"/>
        <pt x="233" y="351" on="1"/>
        <pt x="249" y="473" on="0"/>
        <pt x="350" y="565" on="0"/>
        <pt x="463" y="565" on="1"/>
        <pt x="527" y="565" on="0"/>
        <pt x="588" y="551" on="1"/>
        <pt x="578" y="497" on="1"/>
        <pt x="515" y="500" on="0"/>
        <pt x="470" y="500" on="1"/>
        <pt x="385" y="500" on="0"/>
        <pt x="321" y="442" on="0"/>
        <pt x="307" y="343" on="1"/>
        <pt x="295" y="257" on="0"/>
        <pt x="334" y="194" on="0"/>
        <pt x="399" y="194" on="1"/>
        <pt x="493" y="194" on="0"/>
      </contour>
    </TTGlyph>
    <TTGlyph name="currency" xMin="49" yMin="111" xMax="561" yMax="596">
      <contour>
        <pt x="561" y="537" on="1"/>
        <pt x="483" y="468" on="1"/>
        <pt x="511" y="417" on="0"/>
        <pt x="502" y="348" on="1"/>
        <pt x="493" y="277" on="0"/>
        <pt x="453" y="228" on="1"/>
        <pt x="522" y="152" on="1"/>
        <pt x="477" y="111" on="1"/>
        <pt x="409" y="189" on="1"/>
        <pt x="355" y="155" on="0"/>
        <pt x="284" y="155" on="1"/>
        <pt x="214" y="155" on="0"/>
        <pt x="166" y="192" on="1"/>
        <pt x="89" y="123" on="1"/>
        <pt x="49" y="169" on="1"/>
        <pt x="127" y="239" on="1"/>
        <pt x="101" y="287" on="0"/>
        <pt x="108" y="356" on="1"/>
        <pt x="119" y="430" on="0"/>
        <pt x="159" y="478" on="1"/>
        <pt x="92" y="554" on="1"/>
        <pt x="137" y="596" on="1"/>
        <pt x="205" y="518" on="1"/>
        <pt x="255" y="550" on="0"/>
        <pt x="325" y="550" on="1"/>
        <pt x="397" y="550" on="0"/>
        <pt x="444" y="514" on="1"/>
        <pt x="521" y="583" on="1"/>
      </contour>
      <contour>
        <pt x="285" y="210" on="1"/>
        <pt x="351" y="209" on="0"/>
        <pt x="437" y="289" on="0"/>
        <pt x="444" y="357" on="1"/>
        <pt x="451" y="420" on="0"/>
        <pt x="386" y="495" on="0"/>
        <pt x="324" y="495" on="1"/>
        <pt x="258" y="495" on="0"/>
        <pt x="174" y="416" on="0"/>
        <pt x="166" y="348" on="1"/>
        <pt x="159" y="285" on="0"/>
        <pt x="223" y="210" on="0"/>
      </contour>
    </TTGlyph>
    <TTGlyph name="d" xMin="47" yMin="-12" xMax="558" yMax="700">
      <contour>
        <pt x="558" y="700" on="1"/>
        <pt x="460" y="0" on="1"/>
        <pt x="384" y="0" on="1"/>
        <pt x="389" y="102" on="1"/>
        <pt x="285" y="-12" on="0"/>
        <pt x="168" y="-12" on="1"/>
        <pt x="91" y="-12" on="0"/>
        <pt x="27" y="107" on="0"/>
        <pt x="47" y="250" on="1"/>
        <pt x="59" y="331" on="0"/>
        <pt x="98" y="434" on="0"/>
        <pt x="161" y="484" on="0"/>
        <pt x="227" y="501" on="0"/>
        <pt x="278" y="501" on="1"/>
        <pt x="353" y="501" on="0"/>
        <pt x="437" y="488" on="1"/>
        <pt x="437" y="522" on="0"/>
        <pt x="444" y="581" on="1"/>
        <pt x="461" y="700" on="1"/>
      </contour>
      <contour>
        <pt x="388" y="178" on="1"/>
        <pt x="421" y="419" on="1"/>
        <pt x="376" y="421" on="0"/>
        <pt x="316" y="421" on="1"/>
        <pt x="266" y="421" on="0"/>
        <pt x="213" y="411" on="0"/>
        <pt x="172" y="371" on="0"/>
        <pt x="154" y="305" on="0"/>
        <pt x="145" y="243" on="1"/>
        <pt x="131" y="139" on="0"/>
        <pt x="151" y="72" on="0"/>
        <pt x="241" y="72" on="0"/>
        <pt x="327" y="121" on="0"/>
      </contour>
    </TTGlyph>
    <TTGlyph name="dagger" xMin="54" yMin="-110" xMax="442" yMax="691">
      <contour>
        <pt x="213" y="-110" on="1"/>
        <pt x="126" y="-110" on="1"/>
        <pt x="206" y="428" on="1"/>
        <pt x="214" y="484" on="1"/>
        <pt x="238" y="691" on="1"/>
        <pt x="326" y="691" on="1"/>
        <pt x="293" y="484" on="1"/>
        <pt x="285" y="428" on="1"/>
      </contour>
      <contour>
        <pt x="54" y="404" on="1"/>
        <pt x="65" y="488" on="1"/>
        <pt x="195" y="488" on="1"/>
        <pt x="185" y="415" on="1"/>
      </contour>
      <contour>
        <pt x="442" y="488" on="1"/>
        <pt x="431" y="404" on="1"/>
        <pt x="302" y="415" on="1"/>
        <pt x="312" y="488" on="1"/>
      </contour>
    </TTGlyph>
    <TTGlyph name="daggerdbl" xMin="30" yMin="-110" xMax="462" yMax="691">
      <contour>
        <pt x="313" y="486" on="1"/>
        <pt x="257" y="93" on="1"/>
        <pt x="233" y="-110" on="1"/>
        <pt x="146" y="-110" on="1"/>
        <pt x="178" y="93" on="1"/>
        <pt x="234" y="486" on="1"/>
        <pt x="258" y="691" on="1"/>
        <pt x="346" y="691" on="1"/>
      </contour>
      <contour>
        <pt x="204" y="415" on="1"/>
        <pt x="73" y="404" on="1"/>
        <pt x="85" y="488" on="1"/>
        <pt x="215" y="488" on="1"/>
      </contour>
      <contour>
        <pt x="450" y="404" on="1"/>
        <pt x="321" y="415" on="1"/>
        <pt x="332" y="488" on="1"/>
        <pt x="462" y="488" on="1"/>
      </contour>
      <contour>
        <pt x="170" y="166" on="1"/>
        <pt x="160" y="93" on="1"/>
        <pt x="30" y="93" on="1"/>
        <pt x="41" y="177" on="1"/>
      </contour>
      <contour>
        <pt x="407" y="93" on="1"/>
        <pt x="277" y="93" on="1"/>
        <pt x="287" y="166" on="1"/>
        <pt x="418" y="177" on="1"/>
      </contour>
    </TTGlyph>
</ttFont>
